<svg width="224" height="36" fill="none" xmlns="http://www.w3.org/2000/svg"><g clip-path="url(#prefix__clip0_1204_1097)"><path d="M13.86 30.576c-2.424 0-4.608-.576-6.552-1.728-1.944-1.176-3.468-2.772-4.572-4.788-1.104-2.016-1.656-4.236-1.656-6.66 0-2.328.552-4.464 1.656-6.408 1.128-1.944 2.688-3.48 4.68-4.608 1.992-1.128 4.26-1.692 6.804-1.692 1.392 0 2.736.156 4.032.468 1.32.312 2.508.756 3.564 1.332l-2.376 5.58c-1.632-.672-3.156-1.008-4.572-1.008-1.848 0-3.276.6-4.284 1.8-1.008 1.176-1.512 2.724-1.512 4.644 0 1.248.228 2.376.684 3.384.456.984 1.092 1.764 1.908 2.34.84.576 1.788.864 2.844.864.576 0 1.056-.048 1.44-.144v-5.796l6.228-.72v11.268c-2.712 1.248-5.484 1.872-8.316 1.872zM26.07 5.232H43.46v5.472h-8.64v4.5h7.883v4.536H34.82v4.788h8.64V30H26.07V5.232zm33.435 25.344c-2.592 0-4.896-.552-6.912-1.656-1.992-1.104-3.552-2.628-4.68-4.572-1.104-1.968-1.656-4.2-1.656-6.696 0-2.52.552-4.764 1.656-6.732a11.749 11.749 0 014.68-4.572c2.016-1.104 4.32-1.656 6.912-1.656 2.592 0 4.884.552 6.876 1.656 2.016 1.08 3.576 2.604 4.68 4.572 1.128 1.944 1.692 4.188 1.692 6.732 0 2.496-.564 4.728-1.692 6.696-1.104 1.944-2.664 3.468-4.68 4.572-2.016 1.104-4.308 1.656-6.876 1.656zm0-6.552c1.512 0 2.748-.588 3.708-1.764.984-1.176 1.476-2.724 1.476-4.644 0-1.272-.228-2.4-.684-3.384-.432-1.008-1.044-1.788-1.836-2.34a4.475 4.475 0 00-2.7-.864 4.42 4.42 0 00-2.664.864c-.792.552-1.404 1.332-1.836 2.34-.432.984-.648 2.112-.648 3.384 0 1.92.48 3.468 1.44 4.644.96 1.176 2.208 1.764 3.744 1.764zM80.523 5.232h7.488l6.192 12.024 6.048-12.024h7.488V30h-7.488V16.788l-4.572 8.64h-3.06l-4.608-8.64V30h-7.488V5.232zm36.602 0h10.944L135.233 30h-8.46l-.936-4.752h-6.408L118.385 30h-8.1l6.84-24.768zm7.848 15.588l-2.34-10.836-2.448 10.836h4.788zm12.644-15.588h7.236l9.864 13.356V5.232h6.444V30h-7.2l-9.936-12.888V30h-6.408V5.232zm28.231 0h8.316V30h-8.316V5.232zm17.687 0h10.944L201.643 30h-8.46l-.936-4.752h-6.408L184.795 30h-8.1l6.84-24.768zm7.848 15.588l-2.34-10.836-2.448 10.836h4.788zm24.308 9.756c-2.4 0-4.584-.564-6.552-1.692a12.957 12.957 0 01-4.644-4.68c-1.128-1.992-1.692-4.188-1.692-6.588 0-2.448.552-4.656 1.656-6.624 1.104-1.968 2.616-3.504 4.536-4.608 1.92-1.128 4.08-1.692 6.48-1.692 1.296 0 2.568.156 3.816.468 1.248.312 2.316.756 3.204 1.332l-.972 5.58c-1.728-.648-3.288-.972-4.68-.972-1.92 0-3.396.564-4.428 1.692-1.032 1.104-1.548 2.7-1.548 4.788 0 2.04.54 3.636 1.62 4.788 1.104 1.128 2.628 1.692 4.572 1.692.744 0 1.44-.072 2.088-.216.648-.144 1.44-.408 2.376-.792l1.008 5.688c-2.088 1.224-4.368 1.836-6.84 1.836z" fill="currentColor"/><mask id="prefix__a" style="mask-type:alpha" maskUnits="userSpaceOnUse" x="44" y="0" width="36" height="36"><circle cx="61.965" cy="17.965" r="17.606" fill="#1E3A8A"/></mask><g mask="url(#prefix__a)"><circle cx="61.965" cy="17.965" r="17.965" transform="rotate(-30 61.965 17.965)" fill="#fff"/><circle cx="61.965" cy="17.965" transform="rotate(-30 61.965 17.965)" fill="#38BDF8" r="15.528"/><path fill-rule="evenodd" clip-rule="evenodd" d="M54.428 4.586l-.353-.006.972-.56.477-.206.533-.168.21-.121.496-.111.234.04.356-.17.459-.056.576.088.294.146.579-.09.425.07.597-.24.296-.276.181.071.354.006.372-.145.32.13-.13.321.166.289c-.111.03-.336.096-.345.13-.009.032-.258-.144-.381-.236l-.57.225-.533.412.031.297.504.024.314.24.279.119.515-.018.377.168.144.372.377.167.123-.211-.114-.32.165-.2-.005-.312-.265-.337-.04-.432.125.033.282-.058.59.114.16.154.402.152.18-.174.17.112.365-.035.335.156.106.184.295.146.197.341.188-.038.22-.163.317.063.197.341.167.289.135-.008.197.097.38.235.07.24-.34.02-.45-.054-.111-.251-.084-.267-.204-.232-.233.204-.081.222-.504-.024-.25-.066-.133.252.207.056.38-.01.076.132-.01.286.493.065.315-.182.174.18-.353.239-.01.286-.503.22-.11-.252-.174-.18-.263.152-.368.213-.18.173.253.135-.171.309-.23.027-.164.2-.063.317-.165.2-.349.062.1.293.187-.039.04.433-.363.524-.42.243-.288.411.186.383.334.578.096.47-.213.298-.246-.244-.182-.315-.217-.68-.306-.104-.504-.024-.55-.103-.472.273-.47.096-.433.04-.443.08-.255.288-.442.325-.006.354-.009.53-.028.437.187.627.243.42.245.244.351.183.406-.025.422.002.127-.143.096-.44.213-.299.446-.258.35-.062.031.297-.123.212-.032.369-.296.275-.093.264.066.418.189.206.248.066.429-.107.537-.1.294.145.213.368-.104.305.046.323-.036.301.121.21.272.229.238.108.282-.058.164-.2.358.074.56.061.335-.088.131-.076-.057-.282.63-.363.206-.19.165-.2.282-.057.35.182.517.228.44.095.38-.009.5-.043.572.02.246.243.272.228.361.142.485-.07.543.212.523.118.137.236.175.425v.244l-.02.572-.047.342-.106.483-.104.305.34-.442.39-.05.35-.062.52.05.556-.006.418-.066.35.183.438.272.138.481-.337.51-.328.644-.305.807-.136.674-.096.44-.39.961-.37.634-.484.314-.423.42-.325.468-.205.433-.34.442-.435.46-.52.616-.517.439-.481.137-.111.415-.126.388-.58.089-.581.266-.495.355-.332.578-.42.242-.041.234-.277.37-.363.28-.052.274.234.04-.128.144-.447.013-.29-.077-.13-.346.321-.535.28-.547.032-.369.013-.463.284-.479.321-.535.002-.422.125-.632.167-.622.223-.584.113-.835-.018-.515-.287-.255-.972-.35-.57-.44-.032-.542-.39-.371-.25-.556-.235-.284-.306-.349-.272-.228-.167-.29.014-.217.222-.163-.102-.116-.32-.13.18-.174.265-.329-.058-.282.187-.283-.025-.406-.04-.432.26-.22.454-.122.03-.192.02-.327-.053-.215-.182-.315-.167-.289-.268-.16-.108.237-.175.242-.4-.085-.26-.025-.346-.115-.257-.202-.052.03-.238-.108-.182-.315-.328-.266-.22-.258-.218-.014-.176-.003-.215.053-.245-.243-.249-.067-.241-.175-.182-.316-.17-.112-.305-.104-.256.043-.402.092-.338.02-.46-.19-.332-.088-.279-.12-.448-.23-.412-.289-.222-.081-.167-.29-.016-.27.07-.181-.042-.256-.136-.236-.23-.217-.216-.191-.178-.247-.16-.399-.166-.289-.272-.228-.232-.461-.185-.139.05.147.106.184.046.323.168.533.182.315.013.204.267.16.122.21-.237.137-.222-.082-.204-.232-.122-.21-.114-.32-.136-.236-.137-.237.056-.207-.182-.315-.159-.153-.055-.459-.09-.158-.145-.371-.264-.093-.159-.154-.084-.267.067-.248-.058-.282-.046-.323.122-.456.051-.275.213-.298.287-.656.134-.252-.06-.106.104-.305.01-.286.148-.47.074-.358-.012-.203-.013-.203-.151-.263-.316-.063zm8.17-1.319l-.063-.35.15-.085-.112.03-.24.068-.452-.055-.343-.047-.323.047-.38.009-.253-.134-.199.08-.182-.316.293-.099c.19-.016.574-.037.598.005.025.042.309.009.448-.013l.459-.055-.154.159-.07.18.191.03.463.013.478.04-.182.047.115.2.463.014.317.062.098.049-.184.106.399.085-.04.233-.302-.036-.342-.048-.358-.073-.294-.146zm-.577-.998l.09.158.38-.01.546.036.509.092.527.185.708.257.495.31.5.2.46-.054.338-.02-.246-.244-.32-.13-.09-.158.25-.11.053-.03-.844-.248-1.178-.16-1.11-.165-1.068.091zm.735 10.432l-.285.235.008.135.275.052.32-.115.15.018-.045.166.131-.076.244-.245.384.058.4.085.316.307-.029.192.369.032.459-.054.553.17.182.315.628-.187.526-.059-.031-.297-.283-.187-.681-.027-.474.029-.336-.157-.462-.013-.397-.261-.294-.146-.372-.1-.757-.158-.5.288zm4.901.847l.137.237.24-.069.127-.144-.241-.175-.263.151zm-8.455-8.215l.058.281.196.097-.013-.203-.053-.214-.188.039zm1.686.917l-.113.17.234.04.222.082.421.002.195-.147-.12-.21-.505-.025-.334.088zm.833.535l-.405.269.088.334.054.214.19-.215.164-.445-.09-.157zm.59-.13l-.131.075.143.127-.096.196.128.101.236-.136-.023-.162-.144-.127-.113-.075zm.241.84l.007-.108.12-.035.177.003.159.154-.29.167-.187.038.014-.218z" fill="#D9F99D"/><circle cx="66.471" cy="10.795" fill="#fff" r="5.823"/><circle cx="55.583" cy="15.011" fill="#fff" r="3.488"/><circle cx="55.644" cy="15.556" fill="#111827" r="1.729"/><circle cx="66.137" cy="9.855" fill="#111827" r="1.729"/><path d="M72.264 18.104c1.413 4.134-1.667 8.977-6.794 10.16-5.127 1.184-11.828-1.086-11.828-6.035 0-2.639 2.82-.77 8.947-2.184 7.188-1.66 8.96-4.034 9.675-1.94z" fill="#78350F"/><path d="M61.527 33.177a5.307 5.307 0 005.308-5.307v-5.641s-10.403.819-10.615.819v4.92a5.307 5.307 0 005.307 5.21z" fill="#F87171"/><path d="M62.043 29.022a.516.516 0 11-1.031 0v-4.64c0-.258.251-.455.515-.455s.516.2.516.459v4.636z" fill="#DC2626"/><path fill-rule="evenodd" clip-rule="evenodd" d="M71.456 18.866A34.552 34.552 0 0154.76 22.48a11.773 11.773 0 006.617 2.022c4.263 0 7.999-2.255 10.08-5.637z" fill="#fff"/></g></g><defs><clipPath id="prefix__clip0_1204_1097"><path fill="#fff" d="M0 0h224v36H0z"/></clipPath></defs></svg>