<svg fill="none" xmlns="http://www.w3.org/2000/svg" viewBox="0 0 224 36"><g clip-path="url(#a)"><path d="M13.9 30.6A12.5 12.5 0 0 1 2.8 24a13.6 13.6 0 0 1 0-13.1c1-2 2.6-3.5 4.6-4.6 2-1.1 4.3-1.7 6.8-1.7a17.2 17.2 0 0 1 7.6 1.8L19.4 12a12 12 0 0 0-4.5-1c-1.9 0-3.3.6-4.3 1.8A6.9 6.9 0 0 0 9 17.5c0 1.3.2 2.4.7 3.4.4 1 1 1.8 1.9 2.3a5 5 0 0 0 2.8.9L16 24v-5.8l6.3-.8v11.3a19.7 19.7 0 0 1-8.3 1.9zM26 5.2h17.4v5.5h-8.7v4.5h7.9v4.5h-7.9v4.8h8.7V30H26V5.2zm33.4 25.4c-2.6 0-4.9-.6-7-1.7a12 12 0 0 1-4.6-4.6c-1-2-1.6-4.2-1.6-6.6 0-2.6.5-4.8 1.6-6.8a11.7 11.7 0 0 1 4.7-4.6c2-1 4.3-1.6 7-1.6 2.5 0 4.8.5 6.8 1.6S70 9 71 11c1 2 1.7 4.2 1.7 6.8 0 2.4-.6 4.7-1.7 6.6-1.1 2-2.7 3.5-4.7 4.6a14 14 0 0 1-6.9 1.7zm0-6.6c1.5 0 2.8-.6 3.7-1.7a7 7 0 0 0 1.5-4.7 8 8 0 0 0-.7-3.4c-.4-1-1-1.8-1.8-2.3a4.5 4.5 0 0 0-2.7-.9 4.4 4.4 0 0 0-2.7.9c-.8.5-1.4 1.3-1.8 2.3-.5 1-.7 2.1-.7 3.4 0 2 .5 3.5 1.5 4.7 1 1.1 2.2 1.7 3.7 1.7zm21-18.8H88l6.2 12 6-12h7.5V30h-7.4V16.8l-4.6 8.6h-3L88 16.8V30h-7.5V5.2zm36.6 0h11l7.1 24.8h-8.4l-1-4.8h-6.4l-1 4.8h-8.1L117 5.2zm7.9 15.6L122.6 10l-2.4 10.8h4.8zm12.6-15.6h7.3l9.8 13.4V5.2h6.5V30H154l-10-12.9V30h-6.4V5.2zm28.2 0h8.4V30h-8.4V5.2zm17.7 0h11l7.1 24.8h-8.4l-1-4.8h-6.4l-1 4.8h-8.1l6.8-24.8zm7.9 15.6L189 10l-2.4 10.8h4.8zm24.3 9.8a13 13 0 0 1-6.6-1.7 13 13 0 0 1-4.6-4.7c-1.1-2-1.7-4.2-1.7-6.6 0-2.4.6-4.6 1.7-6.6a12.6 12.6 0 0 1 11-6.3c1.3 0 2.5.1 3.8.5 1.2.3 2.3.7 3.2 1.3l-1 5.6c-1.7-.7-3.3-1-4.7-1-1.9 0-3.4.6-4.4 1.7-1 1.1-1.5 2.7-1.5 4.8 0 2 .5 3.6 1.6 4.8A6.1 6.1 0 0 0 217 24a15.2 15.2 0 0 0 4.5-1l1 5.6c-2.2 1.3-4.4 1.9-7 1.9z" fill="#fff"/><mask id="b" style="mask-type:alpha" maskUnits="userSpaceOnUse" x="44" y="0" width="36" height="36"><circle cx="62" cy="18" r="17.6" fill="#1E3A8A"/></mask><g mask="url(#b)"><circle cx="62" cy="18" r="18" transform="rotate(-30 62 18)" fill="#fff"/><circle cx="62" cy="18" transform="rotate(-30 62 18)" fill="#1E40AF" r="15.5"/><path fill-rule="evenodd" clip-rule="evenodd" d="M54.4 4.6h-.3l1-.6.4-.2.6-.2h.2l.5-.2h.2l.4-.1h1l.3.2.6-.1h.4l.6-.2.3-.3.2.1h.3l.4-.1h.3l-.1.4.1.3-.3.1-.4-.2-.6.2-.5.4v.3h.5l.4.3.2.1h.6l.3.2.2.3.4.2V5l.1-.2v-.3l-.2-.4v-.4H63.4l.2.2.4.2.2-.2.1.1h.4l.3.1.1.2.3.2.2.3h.2l.2-.2h.3l.2.4.2.3H67l.4.3.1.3h-.8l-.1-.3v-.3l-.3-.2-.2.2-.1.2h-.8v.2h.5v.4l.6.1.3-.2.1.2-.3.2v.3l-.5.2-.1-.2-.2-.2-.3.2-.3.2-.2.1.2.2-.1.3h-.3l-.1.2-.1.3-.2.2-.3.1v.3h.3V9l-.3.5-.5.3-.3.4.2.3.4.6v.5l-.2.3-.2-.3-.2-.3-.2-.6-.3-.2h-1.1l-.4.2h-.5l-.4.1-.5.1-.2.3-.5.3v1.3l.2.7.2.4.3.2.3.2h.8l.2-.1v-.5l.3-.3.4-.2.4-.1v.3l-.1.2v.4l-.3.2-.1.3v.4l.2.2.3.1.4-.1.5-.1.3.1.2.4V16.6l.3.3h.6l.1-.2.4.1h.9l.1-.1v-.3l.6-.3.2-.2.1-.2.3-.1.4.2.5.2.4.1H70l.2.2.3.2.4.2h.5l.5.1.5.2.2.2.1.4V18.8l-.1.5-.1.3.3-.5h.4l.3-.1H75l.4.2.4.2.2.5-.4.5-.3.7-.3.8-.2.7v.4l-.4 1-.4.6-.5.3-.4.4-.3.5-.2.4-.4.5-.4.4-.5.6-.6.5-.4.1-.2.4v.4l-.7.1-.5.3-.5.3-.4.6-.4.2v.3l-.3.4-.4.2v.3h.2l-.1.2h-.7l-.2-.4.3-.6.3-.5v-.8l.4-.5.3-.5v-.5l.1-.6.2-.6.2-.6.1-.8V25l-.3-.2-1-.4-.5-.4v-.5l-.5-.4-.2-.6-.3-.3-.3-.3-.2-.2-.2-.3v-.2l.2-.2v-.1l-.4-.1.2-.2.3-.4-.1-.2.2-.3v-.9l.2-.2.4-.1v-.7l-.1-.3-.2-.3-.3-.2v.2l-.3.3-.4-.1H64l-.4-.1-.2-.2-.3-.1-.2-.3-.3-.3-.2-.3h-.7l-.2-.2h-.2l-.3-.2-.2-.3-.1-.1-.3-.1H60l-.4.1h-.3l-.5-.2h-.3l-.3-.2-.5-.2-.4-.3h-.2l-.2-.4V13.1l-.3-.2-.2-.2-.2-.3-.2-.4-.1-.3-.3-.2-.2-.4-.2-.2v.2l.1.1v.4l.2.5.2.3v.2l.3.2.1.2-.2.1h-.2l-.2-.3-.2-.2v-.3L55 12l-.1-.2v-.2l-.2-.3-.1-.2v-.4l-.2-.2-.1-.4H54l-.1-.2-.1-.3V8.3L54 8l.2-.2.3-.7.1-.3v-.4l.1-.3.1-.4.1-.4V5l-.2-.3h-.3zm8.2-1.3v-.4H60.8l-.2-.2-.2.1-.2-.3H61.5l.5-.1-.2.1v.2h1.1l-.2.1.1.2h.5l.3.1h.1l-.2.2h.4v.3h-.3l-.4-.1H63l-.3-.2zm-.6-1 .1.1h.9l.5.1.6.2.7.3.5.3.5.2h.8l-.3-.3L66 3V3l.2-.1-.8-.3-1.2-.2-1.1-.1h-1zm.8 10.4-.3.2v.2H63.3l.3-.2h.3l.4.1.4.3v.2h.8l.5.2.2.3.6-.2h.5v-.4l-.3-.2H66l-.4-.1h-.4l-.4-.3-.3-.1-.4-.1-.7-.2-.5.3zm4.9.8v.3h.3l.2-.2-.3-.2-.2.1zm-8.5-8.2v.3l.3.1v-.2l-.1-.2h-.2zm1.7 1-.1.1h.2l.2.1h.5l.1-.1v-.2H60.8zm.8.5-.4.3.1.3v.2l.2-.2.2-.5v-.1zm.6-.1h-.1l.1.2V7h.3v-.2l-.2-.2zm.3.8v-.1h.3l.1.1-.3.2h-.2v-.2z" fill="#22C55E"/><circle cx="66.5" cy="10.8" fill="#fff" r="5.8"/><circle cx="55.6" cy="15" fill="#fff" r="3.5"/><circle cx="55.6" cy="15.6" fill="#111827" r="1.7"/><circle cx="66.1" cy="9.9" fill="#111827" r="1.7"/><path d="M72.3 18.1c1.4 4.1-1.7 9-6.8 10.2-5.2 1.1-11.9-1.1-11.9-6 0-2.7 2.9-.8 9-2.3 7.2-1.6 9-4 9.7-1.9z" fill="#78350F"/><path d="M61.5 33.2a5.3 5.3 0 0 0 5.3-5.3v-5.7l-10.6.8v5a5.3 5.3 0 0 0 5.3 5.2z" fill="#F87171"/><path d="M62 29a.5.5 0 1 1-1 0v-4.6c0-.3.3-.5.5-.5s.5.2.5.5V29z" fill="#DC2626"/><path fill-rule="evenodd" clip-rule="evenodd" d="M71.5 18.9a34.6 34.6 0 0 1-16.7 3.6 11.8 11.8 0 0 0 6.6 2c4.2 0 8-2.3 10-5.6z" fill="#fff"/></g></g><defs><clipPath id="a"><path fill="#fff" d="M0 0h224v36H0z"/></clipPath></defs></svg>