<svg width="532" height="502" fill="none" xmlns="http://www.w3.org/2000/svg"><mask id="prefix__a" style="mask-type:alpha" maskUnits="userSpaceOnUse" x="14" y="0" width="502" height="502"><circle cx="265" cy="251" r="250.88" fill="#1E3A8A"/></mask><g mask="url(#prefix__a)"><circle cx="265" cy="251" r="256" transform="rotate(-30 265 251)" fill="#fff"/><circle cx="265" cy="251" r="245.862" transform="rotate(-30 265 251)" fill="#38BDF8"/><path fill-rule="evenodd" clip-rule="evenodd" d="M140.598 42.253l-5.599-.094 15.387-8.884 7.55-3.25 8.446-2.658 3.327-1.921 7.854-1.762 3.696.638 5.646-2.705 7.263-.866 9.119 1.389 4.656 2.302 9.167-1.411 6.735 1.102 9.454-3.795 4.685-4.369 2.864 1.12 5.6.093 5.886-2.29 5.072 2.063-2.062 5.072 2.641 4.574c-1.765.465-5.33 1.525-5.47 2.05-.141.525-4.081-2.265-6.033-3.726l-9.037 3.555-8.429 6.53.497 4.703 7.983.381 4.961 3.79 4.416 1.886 8.159-.274L261 48.149l2.289 5.887 5.968 2.654 1.951-3.345-1.81-5.054 2.607-3.169-.081-4.943-4.194-5.342-.626-6.847 1.968.528 4.463-.914 9.36 1.805 2.512 2.43 6.384 2.415 2.847-2.753 2.688 1.775 5.775-.562 5.312 2.478 1.681 2.911 4.656 2.302 3.121 5.407 2.975-.61 3.503-2.576 5.008.99 5.762 9.98 2.144-.128 3.104 1.535 6.032 3.726 1.089 3.807-5.359.321-7.151-.861-1.745-3.983-1.329-4.223-3.233-3.678-3.679 3.232-1.294 3.52-7.983-.381-3.936-1.055-2.127 4 3.28.88 6.015-.147 1.201 2.08-.159 4.527 7.808 1.037 4.99-2.88 2.753 2.846-5.582 3.777-.159 4.528-7.966 3.49-1.745-3.983-2.752-2.847-9.981 5.762-2.847 2.753 4 2.126-2.718 4.897-3.631.433-2.607 3.168-.99 5.008-2.607 3.168-5.535.978 1.57 4.639 2.975-.609.626 6.846-5.74 8.305-6.654 3.842-4.557 6.512 2.945 6.063 5.282 9.149 1.522 7.438-3.374 4.721-3.888-3.855-2.881-4.99-3.443-10.765-4.832-1.647-7.983-.381-8.704-1.629-7.485 4.322-7.439 1.522-6.847.626-7.022 1.282-4.03 4.545-7.005 5.153-.236 13.998-.446 6.912 2.963 9.933 3.842 6.654 3.888 3.854 5.553 2.894 6.431-.386 6.671.03 2.015-2.272 1.517-6.976 3.374-4.72 7.07-4.082 5.535-.978.497 4.704-1.95 3.344-.51 5.839-4.686 4.369-1.471 4.176 1.042 6.607 2.993 3.262 3.936 1.055 6.782-1.698 8.51-1.587 4.656 2.303 3.362 5.822-1.646 4.832.737 5.119-.574 4.767 1.921 3.327 4.304 3.614 3.76 1.711 4.463-.914 2.607-3.168 5.663 1.166 8.88.973 5.294-1.393 2.08-1.201-.914-4.463 9.981-5.762 3.263-2.993 2.606-3.168 4.463-.914 5.553 2.894 8.176 3.597 6.975 1.517 6.015-.145 7.919-.691 9.055.317 3.888 3.854 4.305 3.614 5.728 2.238 7.679-1.106 8.591 3.357 8.288 1.869 2.161 3.743 2.77 6.718.017 3.871-.317 9.055-.75 5.424-1.694 7.631-1.646 4.832 5.389-6.993 6.191-.802 5.535-.977 8.223.797 8.815-.099 6.606-1.042 5.553 2.894 6.928 4.317 2.178 7.615-5.324 8.064-5.196 10.208-4.828 12.768-2.156 10.671-1.518 6.976-6.186 15.216-5.852 10.032-7.661 4.978-6.701 6.641-5.149 7.409-3.245 6.864-5.389 6.993-6.877 7.297-8.236 9.745-8.188 6.946-7.615 2.178-1.757 6.56-1.998 6.143-9.166 1.411-9.214 4.211-7.837 5.633-5.26 9.137-6.654 3.841-.639 3.696-4.381 5.857-5.758 4.433-.815 4.351 3.696.639-2.015 2.272-7.087.211-4.592-1.231-2.049-5.47 5.085-8.481 4.428-8.656.51-5.839.206-7.327 4.493-7.585 5.084-8.48.03-6.671 1.981-10.015 2.636-9.84 3.533-9.248 1.787-13.231-.274-8.158-4.545-4.03-15.392-5.531-9.025-6.988-.514-8.574-6.161-5.87-3.971-8.797-3.713-4.51-4.849-5.518-4.304-3.614-2.641-4.575.223-3.455 3.502-2.577-1.616-1.839-5.072-2.062 2.847-2.753 4.205-5.2-.913-4.464 2.958-4.48-.386-6.431-.626-6.847 4.094-3.473 7.199-1.938.463-3.039.334-5.184-.849-3.391-5.522-9.565-4.24-2.542-1.711 3.76-2.782 3.824-6.32-1.342-4.111-.398-5.488-1.822-4.065-3.198-.831.48-3.76-1.711-2.882-4.99-5.2-4.206-3.473-4.094-3.456-.223-2.799-.047-3.392.849-3.888-3.854-3.936-1.055-3.824-2.782-2.882-4.991-2.688-1.775-4.832-1.646-4.047.673-6.367 1.458-5.359.322-7.28-3.005-5.247-1.407-4.416-1.886-7.105-3.661-6.512-4.557-3.52-1.295-2.641-4.575-.258-4.287 1.119-2.864-.673-4.047-2.161-3.743-3.648-3.438-3.409-3.023-2.817-3.918-2.529-6.303-2.641-4.574-4.305-3.614-3.666-7.31-2.928-2.191.784 2.32 1.681 2.911.738 5.119 2.658 8.446 2.881 4.99.193 3.216 4.241 2.542 1.92 3.327-3.742 2.161-3.52-1.295-3.233-3.678-1.921-3.327-1.809-5.055-4.322-7.486.879-3.28-2.881-4.99-2.513-2.431-.866-7.262-1.441-2.496-2.289-5.886-4.176-1.471-2.513-2.43-1.329-4.223 1.055-3.936-.913-4.463-.738-5.119 1.933-7.216.815-4.352 3.374-4.72 4.54-10.384 2.126-4-.96-1.664 1.646-4.832.159-4.527 2.349-7.456 1.166-5.663-.386-6.431-2.401-4.159-5.008-.99zm75.578 11.814l.913 4.463 3.104 1.535-.193-3.216-.849-3.39-2.975.608zM242.865 68.6l-1.775 2.689 3.695.638 3.52 1.295 6.671.03 3.087-2.337-1.921-3.327-7.983-.381-5.294 1.393zm13.201 8.459l-6.414 4.258 1.393 5.294.849 3.391 3.023-3.408 2.589-7.04-1.44-2.495zm9.342-2.067l-2.08 1.2 2.273 2.016-1.535 3.104 2.032 1.599 3.743-2.16-.369-2.56-2.272-2.015-1.792-1.184zm3.923 11.597l1.903-.544 2.8.047 2.512 2.43-4.574 2.642-2.976.609.335-5.184z" fill="#D9F99D"/><path d="M269.934 21.366l-.978-5.535 2.357-1.36-1.765.464-3.807 1.09-7.152-.862-5.423-.75-5.119.737-6.015.146-4-2.126-3.152 1.264-2.881-4.99 4.639-1.57c2.997-.25 9.087-.588 9.471.078.384.665 4.884.137 7.087-.21l7.262-.867-2.43 2.513-1.119 2.864 3.039.463 7.327.205 7.568.622-2.889.76 1.834 3.176 7.327.205 5.008.99 1.552.768-2.911 1.68 6.319 1.342-.639 3.696-4.767-.574-5.424-.75-5.663-1.166-4.656-2.303z" fill="#D9F99D"/><path d="M260.81 5.563l1.441 2.496 6.015-.146 8.639.557 8.047 1.453 8.352 2.941 11.216 4.06 7.824 4.909 7.936 3.18 7.263-.866 5.359-.321-3.889-3.855-5.072-2.062-1.44-2.495 3.982-1.745.832-.48-13.359-3.931-18.654-2.538-17.583-2.602-16.909 1.445zM272.445 170.737l-4.51 3.713.129 2.143 4.351.815 5.055-1.81 2.384.288-.703 2.624 2.079-1.201 3.854-3.889 6.08.926 6.319 1.342 5.025 4.862-.463 3.04 5.84.51 7.262-.867 8.768 2.701 2.881 4.991 9.934-2.963 8.334-.931-.497-4.703-4.48-2.958-10.783-.429-7.503.451-5.312-2.478-7.327-.206-6.272-4.141-4.656-2.302-5.904-1.582-11.983-2.508-7.902 4.562zM350.055 184.15l2.161 3.743 3.807-1.089 2.015-2.273-3.824-2.782-4.159 2.401z" fill="#D9F99D"/></g><ellipse cx="154" cy="198" rx="31" ry="39" fill="#111827"/><ellipse cx="380" cy="198" rx="31" ry="39" fill="#111827"/><path d="M433 297.452C433 353.418 361.918 421 263.283 421 164.648 421 92 345.499 92 297.452c0-40.824 72.648-7.92 171.283-7.92 98.635 0 169.717-32.904 169.717 7.92z" fill="#D97706"/><path d="M425 301c0 70-71.097 120-162.5 120s-163-62.5-163-120c0-34.677 71.597 0 163 0S425 266.323 425 301z" fill="#78350F"/><path d="M343.218 406.275C319.595 415.752 292.113 421 262.5 421c-27.705 0-53.591-5.742-76.215-15.347C204.505 383.332 232.768 369 264.5 369c32.026 0 60.519 14.599 78.718 37.275z" fill="#F87171"/><path d="M423.813 294.304C375.828 315.044 319.392 327 259 327c-57.999 0-112.349-11.027-159.07-30.272 3.538-15.97 28.61-11.835 66.239-5.627 26.816 4.423 60.01 9.899 96.331 9.899 36.36 0 69.507-5.487 96.243-9.913 35.415-5.863 59.582-9.864 65.07 3.217z" fill="#fff"/><path fill-rule="evenodd" clip-rule="evenodd" d="M50.5 111c-10.779 2.795-20.602 3.996-28.578 4.971C9.92 117.438 2.101 118.394 1.5 123.5c-1 8.501-1.5 21.571 0 22.5 2.94 4.227 7.57 4.334 12.25 4.441C21.8 150.626 30 150.814 30 172c0 33.5 6 110 81 110h58.5s39.5-5.5 54-24c14.5-18.499 25-71 25-82.5 0-9.217 12.527-9.762 17.5-9.615v.08c4.519-.196 18.05.015 18.05 9.59 0 11.494 10.5 63.967 25.001 82.457 14.5 18.491 54 23.988 54 23.988h58.501c75.001 0 81.001-76.461 81.001-109.943 0-21.175 8.199-21.364 16.251-21.548 4.679-.108 9.309-.214 12.249-4.439 1.5-.928 1-13.992 0-22.488-.6-5.104-8.42-6.059-20.422-7.526-7.976-.974-17.799-2.174-28.578-4.968-27.001-6.996-131.502-7.765-158.502 3.998-14.22 6.195-20.257 10.855-24.175 13.878-3.521 2.718-5.329 4.113-9.826 4.113h-23V133H243c-4.497 0-6.305-1.396-9.826-4.115-3.917-3.025-9.955-7.687-24.174-13.885-27-11.769-131.5-11-158.5-4zm71.427 10.472c-31.966-.127-48.103-.191-63.427 11.528-13.978 10.69-12.406 34.225-11.406 49.203.216 3.237.406 6.075.406 8.297 0 .253 0 .527-.002.822-.042 14.28-.228 76.648 85.502 75.178 68 0 90.5-29.5 90.5-69.5 0-3.199.182-6.633.372-10.21v-.001c1.561-29.403 3.632-68.409-90.872-65.289-3.893 0-7.578-.015-11.073-.028zm277.625.028c3.893 0 7.577-.015 11.073-.028 31.966-.127 48.103-.191 63.428 11.528 13.978 10.69 12.406 34.225 11.406 49.203v.001c-.217 3.237-.406 6.075-.406 8.296v.185l.001.637c.043 14.28.229 76.648-85.502 75.178-68.001 0-90.502-29.5-90.502-69.5 0-3.199-.182-6.633-.372-10.21v-.001c-1.561-29.403-3.631-68.409 90.874-65.289z" fill="#111827"/></svg>