<svg width="502" height="537" fill="none" xmlns="http://www.w3.org/2000/svg"><mask id="prefix__a" style="mask-type:alpha" maskUnits="userSpaceOnUse" x="0" y="0" width="502" height="502"><circle cx="251" cy="251" r="250.88" fill="#1E3A8A"/></mask><g mask="url(#prefix__a)"><circle cx="251" cy="251" r="256" transform="rotate(-30 251 251)" fill="#D1D5DB"/><circle cx="251" cy="251" r="245.862" transform="rotate(-30 251 251)" fill="#9CA3AF"/><path fill-rule="evenodd" clip-rule="evenodd" d="M126.598 42.253l-5.599-.094 15.387-8.884 7.55-3.25 8.446-2.658 3.327-1.921 7.854-1.762 3.696.638 5.646-2.705 7.263-.866 9.119 1.389 4.656 2.302 9.167-1.411 6.735 1.102 9.454-3.795 4.685-4.369 2.864 1.12 5.6.093 5.886-2.29 5.072 2.063-2.062 5.072 2.641 4.574c-1.765.465-5.33 1.525-5.47 2.05-.141.525-4.081-2.265-6.033-3.726l-9.037 3.555-8.429 6.53.497 4.703 7.983.381 4.961 3.79 4.416 1.886 8.159-.274L247 48.149l2.289 5.887 5.968 2.654 1.951-3.344-1.81-5.055 2.607-3.169-.081-4.943-4.194-5.342-.626-6.847 1.968.528 4.463-.914 9.36 1.805 2.512 2.43 6.384 2.415 2.847-2.753 2.688 1.775 5.775-.562 5.312 2.478 1.681 2.911 4.656 2.302 3.121 5.407 2.975-.61 3.503-2.576 5.008.99 3.121 5.406 2.641 4.575 2.144-.129 3.104 1.535 6.032 3.726 1.089 3.807-5.359.321-7.151-.861-1.745-3.983-1.329-4.223-3.233-3.678-3.679 3.232-1.294 3.52-7.983-.381-3.936-1.055-2.127 4 3.28.88 6.015-.147 1.201 2.08-.159 4.527 7.808 1.037 4.99-2.88 2.753 2.846-5.582 3.777-.159 4.528-7.966 3.49-1.745-3.983-2.752-2.847-4.159 2.401-5.822 3.361-2.847 2.753 4 2.126-2.718 4.897-3.631.433-2.607 3.168-.99 5.008-2.607 3.168-5.535.978 1.57 4.639 2.975-.609.626 6.847-5.74 8.304-6.654 3.842-4.557 6.512 2.945 6.063 5.282 9.149 1.522 7.438-3.374 4.721-3.888-3.855-2.881-4.99-3.443-10.765-4.832-1.647-7.983-.381-8.704-1.629-7.485 4.322-7.439 1.522-6.846.626-7.023 1.282-4.03 4.545-7.005 5.153-.095 5.6-.141 8.398-.446 6.912 2.963 9.933 3.842 6.654 3.888 3.854 5.553 2.894 6.431-.386 6.671.03 2.015-2.272 1.517-6.976 3.374-4.72 7.07-4.082 5.535-.978.497 4.704-1.95 3.344-.51 5.839-4.686 4.369-1.471 4.176 1.042 6.607 2.993 3.262 3.936 1.055 6.782-1.698 8.51-1.587 4.656 2.303 3.362 5.822-1.646 4.832.737 5.119-.574 4.767 1.921 3.327 4.304 3.614 3.76 1.711 4.463-.914 2.607-3.168 5.663 1.166 8.88.973 5.294-1.393 2.08-1.201-.914-4.463 9.981-5.762 3.263-2.993 2.606-3.168 4.463-.914 5.553 2.894 8.176 3.597 6.975 1.517 6.015-.145 7.919-.691 9.055.317 3.888 3.854 4.305 3.615 5.728 2.237 7.679-1.106 8.591 3.357 8.288 1.869 2.161 3.743 2.77 6.718.017 3.871-.317 9.055-.75 5.424-1.694 7.631-1.646 4.832 5.389-6.993 6.191-.802 5.535-.977 8.223.797 8.815-.099 6.606-1.042 5.553 2.894 6.928 4.317 2.178 7.615-5.324 8.064-5.196 10.208-4.828 12.768-2.156 10.671-1.518 6.976-6.186 15.216-5.852 10.032-7.661 4.978-6.701 6.641-5.149 7.409-3.245 6.864-5.389 6.993-6.877 7.297-8.236 9.745-8.188 6.946-7.615 2.178-1.757 6.56-1.998 6.143-9.166 1.411-9.214 4.211-7.837 5.633-5.26 9.137-6.654 3.841-.639 3.696-4.381 5.857-5.758 4.433-.815 4.351 3.696.639-2.015 2.272-7.087.211-4.592-1.231-2.049-5.47 5.085-8.481 4.428-8.656.51-5.839.206-7.327 4.493-7.585 5.084-8.48.03-6.671 1.981-10.015 2.636-9.84 3.533-9.248 1.787-13.231-.274-8.158-4.545-4.03-15.392-5.531-9.025-6.988-.514-8.574-6.161-5.87-3.971-8.797-3.712-4.51-4.85-5.518-4.304-3.614-2.641-4.575.223-3.455 3.502-2.577-1.616-1.839-5.072-2.062 2.847-2.753 4.205-5.2-.913-4.464 2.958-4.48-.386-6.431-.626-6.847 4.094-3.473 7.199-1.938.463-3.039.334-5.184-.849-3.391-2.881-4.99-2.641-4.575-4.24-2.542-1.711 3.76-2.782 3.824-6.32-1.342-4.111-.398-5.488-1.822-4.065-3.198-.831.48-3.76-1.711-2.882-4.99-5.2-4.206-3.473-4.094-3.456-.223-2.799-.047-3.392.849-3.888-3.854-3.936-1.055-3.824-2.782-2.882-4.991-2.688-1.775-4.832-1.646-4.047.673-6.367 1.458-5.359.322-7.28-3.005-5.247-1.407-4.416-1.886-7.105-3.661-6.512-4.557-3.52-1.295-2.641-4.575-.258-4.287 1.119-2.864-.673-4.047-2.161-3.743-3.648-3.438-3.409-3.023-2.817-3.918-2.529-6.303-2.641-4.574-4.305-3.614-3.666-7.31-2.928-2.191.785 2.32 1.68 2.911.738 5.119 2.658 8.446 2.881 4.99.193 3.216 4.241 2.542 1.92 3.327-3.742 2.161-3.52-1.295-3.233-3.678-1.921-3.327-1.809-5.055-2.161-3.743-2.161-3.743.879-3.28-2.881-4.99-2.513-2.431-.866-7.262-1.441-2.496-2.289-5.886-4.176-1.471-2.513-2.43-1.329-4.223 1.055-3.936-.913-4.463-.738-5.119 1.933-7.216.815-4.352 3.374-4.72 4.54-10.384 2.126-4-.96-1.664 1.646-4.832.159-4.527 2.349-7.456 1.166-5.663-.193-3.216-.193-3.215-2.401-4.159-5.008-.99zm129.336-20.887l-.978-5.535 2.357-1.36-1.765.464-3.807 1.09-7.152-.862-5.423-.75-5.119.737-6.015.146-4-2.126-3.152 1.264-2.881-4.99 4.639-1.57c2.997-.25 9.087-.588 9.471.078.384.665 4.884.137 7.087-.21l7.262-.867-2.43 2.513-1.119 2.864 3.039.463 7.327.205 7.568.622-2.888.76 1.833 3.176 7.327.205 5.008.99 1.552.768-2.911 1.68 6.319 1.342-.639 3.696-4.767-.574-5.424-.75-5.663-1.166-4.656-2.303zM246.81 5.563l1.441 2.496 6.015-.146 8.639.557 8.047 1.453 8.352 2.941 11.216 4.06 7.824 4.909 7.936 3.18 7.263-.866 5.359-.321-3.889-3.854-5.072-2.063-1.44-2.495 3.982-1.745.832-.48-13.359-3.931-18.654-2.538-17.583-2.602-16.909 1.445zm11.635 165.174l-4.51 3.713.129 2.143 4.351.815 5.055-1.809 2.384.287-.703 2.624 2.079-1.201 3.854-3.889 6.08.926 6.319 1.342 5.025 4.862-.463 3.04 5.84.51 7.262-.867 8.768 2.701 2.881 4.991 9.934-2.963 8.334-.931-.497-4.703-4.48-2.958-10.783-.429-7.503.451-5.312-2.478-7.327-.206-6.272-4.141-4.656-2.302-5.904-1.582-11.983-2.508-7.902 4.562zm77.61 13.413l2.161 3.743 3.807-1.089 2.015-2.273-3.824-2.782-4.159 2.401zM202.176 54.067l.913 4.463 3.104 1.535-.193-3.216-.849-3.39-2.975.608zM228.865 68.6l-1.775 2.689 3.695.638 3.52 1.295 6.671.03 3.087-2.337-1.92-3.327-7.983-.381-5.295 1.393zm13.201 8.459l-6.414 4.258 1.393 5.294.849 3.392 3.023-3.409 2.589-7.04-1.44-2.495zm9.342-2.067l-2.08 1.2 2.273 2.016-1.535 3.104 2.032 1.599 3.743-2.16-.369-2.56-2.272-2.015-1.792-1.184zm3.811 13.325l.112-1.728 1.903-.544 2.8.047 2.512 2.43-4.574 2.642-2.976.609.223-3.456z" fill="#D1D5DB"/></g><path d="M75.835 356.83C67.78 378.98 52.13 400.353 60.29 466.415c8.16 66.062 41.58 78.885 136.398 59.067 21.762-4.879 23.705-13.213 23.705-19.041-.001-5.829-8.55-15.156-8.55-15.156s15.933-7.383 14.379-20.596c-1.555-13.212-14.379-13.989-14.379-13.989s14.379-8.938 11.27-23.316c-3.109-14.378-21.762-13.212-21.762-13.212s75.388-19.819 88.601-25.259c13.212-5.441 19.43-13.601 16.321-22.539-3.109-8.938-29.534-3.498-38.083-2.72-8.549.777-52.461 8.549-88.6 15.155-36.14 6.606-50.129 5.829-58.679-6.995-8.549-12.824-3.886-8.938-4.274-34.196 0-15.156-4.283-25.259-19.042-37.695-17.875-13.6-21.761 8.794-21.761 12.436 0 3.641 8.054 16.321 0 38.471z" fill="#4B5563" stroke="#D1D5DB" stroke-width="5"/><path d="M453.164 208.385c-26.424-42.746-32.642-41.968-32.642-41.968v11.269s36.317 35.314 39.471 94.041c3.155 58.727-14.932 90.273-14.932 121.906 0 31.633 16.264 89.492 16.264 89.492s.389 6.217 6.218 5.44c5.828-.777 2.331-8.161 2.331-8.161S448.675 427.5 453.164 393c4.49-34.5 36.235-126 0-184.615z" fill="#374151"/><path d="M185.42 112.79c-11.658-2.721-31.865-13.213-51.295-13.213-11.27 0-40.169 17.488-32.643 26.425 6.218 7.384 15.544-8.549 32.643-10.492 17.098-1.943 46.632 15.155 62.953 15.155 9.326.389 17.487-3.886 13.212-11.658-4.275-7.771-13.212-3.497-24.87-6.217zM263.119 93.794c-1.556 3.489-3.449 7.733 3.129 9.281 58.679-38.86 106.088-1.554 106.088-1.554s-6.607-12.824-9.715-15.933c-3.109-3.109-9.715-9.715-21.373-13.212-11.658-3.498-23.705.777-23.705.777s-51.295 13.99-54.404 20.596l-.02.045z" fill="#4B5563"/><ellipse cx="157.55" cy="173.278" rx="25.124" ry="36.467" transform="rotate(15.98 157.55 173.278)" fill="#111827"/><ellipse cx="303.198" cy="190.309" rx="25.297" ry="34.585" transform="rotate(12.203 303.198 190.309)" fill="#111827"/><path d="M158.606 316.027s14.378-4.663 46.243-4.663c31.866 0 87.863 20.987 87.863 20.987" stroke="#000" stroke-width="12" stroke-linecap="round"/><path d="M413.916 156.702l-5.052-6.995s10.104 44.689-3.886 76.554l8.938-16.321 6.606 2.331c6.218-12.046 9.715-40.414 0-58.678l-6.606 3.109z" fill="#111827"/><path fill-rule="evenodd" clip-rule="evenodd" d="M320.264 279.887c52.151 0 94.429-43.495 94.429-97.149 0-53.655-42.278-97.15-94.429-97.15-52.152 0-94.43 43.495-94.43 97.15 0 53.654 42.278 97.149 94.43 97.149zm0-7.771c49.576 0 89.766-40.364 89.766-90.155 0-49.792-40.19-90.155-89.766-90.155-49.577 0-89.767 40.363-89.767 90.155 0 49.791 40.19 90.155 89.767 90.155z" fill="#374151"/><ellipse cx="320.263" cy="181.961" rx="89.766" ry="90.155" fill="url(#prefix__paint0_linear_1310_41)"/><defs><linearGradient id="prefix__paint0_linear_1310_41" x1="376.5" y1="138" x2="320.263" y2="272.116" gradientUnits="userSpaceOnUse"><stop stop-color="#fff" stop-opacity=".2"/><stop offset="1" stop-color="#fff" stop-opacity=".05"/></linearGradient></defs></svg>