<svg fill="none" xmlns="http://www.w3.org/2000/svg" viewBox="0 0 64 39"><path fill="#9CA3AF" d="M0 0h64v38.4H0z"/><path fill="#E5E7EB" d="M21 0h21.3v38.4H21z"/><circle cx="32" cy="19" r="16" fill="#fff"/><path d="M33 23h-3a10 10 0 0 1 .2-1.8c.2-.5.3-1 .6-1.4a6.5 6.5 0 0 1 1-1.3l1-.9.7-1 .2-1c0-.4 0-.8-.2-1.1a1.4 1.4 0 0 0-.6-.7 2 2 0 0 0-1-.2 2 2 0 0 0-1 .2c-.3.1-.5.4-.7.7-.2.3-.3.6-.3 1.1h-3.4c0-1 .3-2 .8-2.6a4.3 4.3 0 0 1 1.9-1.6c.8-.3 1.7-.5 2.7-.5 1 0 2 .2 2.8.5.8.4 1.4 1 1.8 1.6.4.7.6 1.5.6 2.5a4 4 0 0 1-.4 1.8 6.2 6.2 0 0 1-1 1.5l-1.5 1.4-.9 1.2-.2 1.6zm-3.3 3.6c0-.5.2-1 .5-1.2.4-.4.8-.5 1.4-.5.6 0 1 .1 1.4.5.3.3.5.7.5 1.2s-.2.9-.5 1.2c-.3.4-.8.5-1.4.5-.6 0-1-.1-1.4-.5a1.7 1.7 0 0 1-.5-1.2z" fill="#9CA3AF"/></svg>