<?xml version="1.0"?>
<svg xmlns="http://www.w3.org/2000/svg" version="1.2" baseProfile="tiny" width="800" height="766" viewBox="0 0 800 766" stroke-linecap="round" stroke-linejoin="round">
<g id="continents">
<path d="M 419.02 279.06 423.43 279.23 424.65 283.72 424.29 284.29 424.16 284.56 424.1 284.7 423.34 285.62 422.3 286.5 425.49 289.25 433.65 291.33 435.09 294.02 441.98 296.78 444.27 292.35 447.97 289.88 455.75 293.26 457.39 293.34 457.72 293.42 458.65 293.63 460.4 293.97 464.64 295.39 469.14 293.42 472.44 294.77 475.81 294.12 475.92 294.41 477.36 298.85 475.12 304.97 478.82 314.23 481.73 317.28 483.19 324.96 485.59 326.69 487.12 331.54 495.58 338.88 495.87 341.62 498.4 344.04 508.48 342.17 513.6 340.88 512.67 346.29 506.36 357.3 501.59 362.17 498.26 364.21 492.06 371.06 486.94 377.7 486.16 381.35 487.12 386.07 488.18 389.37 488.62 389.93 489.53 390.36 489.69 390.61 490.09 399.53 488.31 404.24 482.55 407.26 476.92 413.5 478.87 419.6 477.94 423.43 472.68 426.12 472.91 429.11 472.11 432.49 467.14 439.55 461.76 444.99 455.04 447.97 449.99 447.54 443.51 449.53 440.85 446.77 440.63 443.54 436.46 433.55 434 430.46 431.74 417.75 426.02 406.12 427.82 397.36 430.7 391.94 428.82 387.43 428.97 380.3 427.07 380.08 426.64 378.39 424.67 375.98 419.55 368.86 421.26 365.01 421.72 362.19 418.97 356.73 413.48 357.77 410.77 353.9 406.01 353.14 403.59 353.47 402.64 353.76 395.57 356.73 393.11 355.99 393.15 355.9 393.31 355.9 388.87 355.75 383.29 357.64 379.76 356.08 374.49 351.93 370.54 347.14 366.66 342.89 362.96 339.7 362.85 338.09 363.29 336.88 363.34 331.72 364.36 327.76 362.21 320.11 362.32 318.66 368.06 306.95 371.29 302.82 374.4 301.81 378.41 297.63 378.25 293.86 380.94 289.22 384.71 287.14 385.92 284.97 386.07 284.56 386.79 282.53 386.88 282.23 390.4 283.94 395.08 284.1 402.79 280.22 414.39 278.64 419.02 279.06 Z M 509.81 395.06 511.9 401.82 509.68 407.63 504.58 424.04 500.22 425.95 497.62 424.55 495.92 417.42 498.38 412.65 497.49 406.44 498.51 403.78 502.7 402.56 509.81 395.06 Z" fill-rule="evenodd" fill="#2ca02c" stroke="white" opacity="0.25" id="Africa"/>
<path d="M 517.68 329.85 515.75 332.14 514.38 332.87 513.91 333.06 513.76 333.12 513.09 333.33 512.01 333.56 511.21 334 509.39 334.48 499.84 338.63 496.38 338.59 494.87 330.5 490.35 322.59 486.65 318.92 484.88 312.68 477.76 302.37 477.47 299.18 477.52 298.65 477.36 298.85 475.92 294.41 475.81 294.12 476.43 293.45 477.83 289.51 479.76 285.37 479.58 284.78 479.56 284.56 479.56 284.51 479.56 284.21 479.67 283.78 479.27 282.83 479.56 281.87 476.7 279.5 472.68 281.54 469.49 279.45 465.81 281.21 460.63 278.84 461 278.2 460.74 278.03 460.69 277.95 460.49 277.92 460.34 277.81 460.36 276.16 459.14 275.54 459.27 269.23 463.82 268.86 464.99 266.8 469.27 267.16 473.99 264.46 480.71 266.69 485.08 267.71 487.4 267.16 488.25 267.54 488.95 267.66 489.27 267.6 492.01 265.95 491.97 262.54 490.53 261.33 489.82 261.15 489.09 260.57 488.95 260.48 488.62 260.24 488.84 259.84 488.95 259.8 489 259.78 490.11 259.9 492.17 260.85 494.78 261 501.37 263.08 502.92 264.85 507.66 265 510.35 268.71 508.33 274.86 509.44 277.45 511.12 277.75 511.23 277.84 511.3 277.95 511.59 278.48 512.01 278.87 513.32 279.61 513.91 279.77 514.73 279.97 515.69 279.95 519.5 277.95 519.46 273.67 516.35 265.18 512.67 257.87 513.98 254.22 516.44 254.09 517.31 249.13 513.45 248.61 509.13 251.1 506.64 246.51 503.43 244.32 504.16 239.44 512.52 233.03 518.24 233.74 523.69 236.84 529.36 235.23 532.58 236.91 536.44 234.31 535.17 230.47 537.41 224.7 550.05 221.2 552.91 219.18 556.81 219.49 560.2 223.49 564.5 226.09 569.07 223.34 572.24 226.83 577.31 236.25 584.78 235.48 589.06 240.3 593.56 242.04 594.65 241.8 603.29 236.6 608.92 236.98 609.72 238.86 615.48 239.85 617.46 238.65 617.12 234.2 619.21 231.45 626.34 234.2 626.74 236.88 629.71 238.44 633.59 237.3 639.22 239.1 640.55 241.19 645.67 241.76 650.06 240.57 653.37 237.99 658.64 239.55 661.28 240.61 664.12 238.89 667.51 231.99 667.55 227.61 674 226.2 679.41 229.19 683.31 240.23 689.39 242.81 690.38 246.71 698.05 244.49 696.72 251.39 694.68 255.26 690.45 255.69 690.54 261.82 689.34 262.9 689.7 263.62 687.52 267.89 682.78 271.03 684.55 274.35 686.7 278.14 686.88 283.02 682.23 285.83 680.9 282.28 680.7 276.72 678.08 276.86 677.88 271.75 675.66 270.4 671.16 272.21 671.05 268.83 668.59 267.77 663.74 272.75 664.78 278.56 668.19 280 664.27 284.35 666.44 286.18 670.17 295.16 668.44 301.86 664.98 308.58 658.18 315 653.3 315.98 652.74 316.06 651.7 316.75 651.55 316.8 644.25 319.57 639.33 318.45 634.92 322.17 634.12 324.45 641.22 332.78 642.06 341.13 632.51 348.2 631.49 344.09 628.16 341.15 625.48 338.93 621.64 340.11 619.83 344.29 622.66 350.75 626.32 353.43 629.25 356.53 629.29 360.79 627.72 363.17 624.55 360.88 621.93 352.98 618.79 348.92 618.79 344.58 618.52 337.86 616.5 330.08 611.45 332 608.37 323.35 604.64 320.16 602.78 315.36 600.14 317.52 597.39 317.06 593.29 318.38 591.25 322.22 577.98 332.02 578.09 337.4 575.07 346.65 570.62 348.58 562.88 331.24 561.09 322.43 552.97 316.8 551.11 312.8 547.25 308.6 543.33 309.58 536.52 309.54 527.08 308.09 524.93 304.59 519.06 305.76 516.33 303.55 514.54 302.99 514.2 302.82 513.91 302.52 513.67 302.27 510.79 296.99 507.62 297.63 506.36 297.58 507.38 301.23 510.81 305.51 512.61 310.54 513.65 310.98 513.74 311.64 513.91 311.68 513.94 311.68 514.11 311.71 514.22 311.76 514.31 311.76 519.26 312.29 524.31 307.42 524.8 308.43 525 310.07 529.85 313.33 532.56 316.75 524.98 326.74 522.05 328.95 517.68 329.85 Z M 462.09 264.61 463.8 267.57 457.72 268.27 458.34 265.35 462.09 264.61 Z M 676.91 387.19 677.24 388.47 674.96 388.08 675.84 387.75 676.91 387.19 Z M 577.29 345.44 581.48 351.09 577.55 353.63 577.29 345.44 Z M 668.44 325.27 671.59 328.76 669.08 332.92 666.18 334 666.8 327.55 668.44 325.27 Z M 679.32 346.54 680.61 351 675.33 353.45 676.8 347.32 679.32 346.54 Z M 643.01 362.79 645.92 363.92 647.42 361.04 650.46 360.28 652.83 357.1 654.98 356.41 655.23 356.41 659.99 352.45 664.18 355.23 660.61 358.04 662.01 365.36 658.35 370.55 658.4 372.39 657.98 373.01 657.97 373.08 657.95 373.3 657.86 373.72 657.04 375.27 654.23 376.54 653.9 375.03 652.88 374.56 652.26 374.96 651.84 374.39 651.24 374.5 650.88 374.13 650.55 373.79 650.42 374.36 647.87 375.12 647.85 373.96 644.34 373.79 641.42 365.54 643.01 362.79 Z M 718.8 258.09 721.64 259.2 717.23 264.46 713.22 260.91 714.63 253.74 718.8 258.09 Z M 713.06 266.39 714.72 270.86 709.89 284.48 703.42 284.89 701.29 288.24 698.67 285 699.63 282.34 706.61 278.28 710.42 272.09 710.16 268.65 713.06 266.39 Z M 613.89 355.68 623.99 362.28 628.47 366.2 629.91 369.26 633.64 372.57 634.57 379.9 631.86 380.39 625.17 374.32 618.47 363.08 611.67 356.73 613.89 355.68 Z M 676.84 365.07 675.82 366.25 668.24 366.31 666.13 368.53 669.17 369.37 669.81 371.41 670.1 372.46 670.37 372.92 670.42 373.08 670.46 373.19 670.61 373.39 671.08 373.74 671.32 374.39 670.99 375.32 672.43 376.94 666.98 375.61 663.3 373.41 663.45 373.17 663.58 373.12 663.66 373.08 663.69 373.05 663.98 372.79 664.56 371.35 666.13 365.76 668.39 364.34 676.84 365.07 Z M 638 380.64 640.91 382.38 645.67 381.55 645.19 385.42 636.36 383.78 638 380.64 Z M 712.48 373.08 712.51 387.59 708.32 384.16 706.45 379.92 693.38 373.9 694.22 373.48 694.6 373.19 694.68 373.08 694.88 372.81 693.29 372.26 690.96 369.2 696.97 368.93 697.45 372.41 698.1 373.01 698.43 372.92 698.45 373.03 698.46 373.08 698.47 373.3 698.59 373.79 699.45 374.72 700.34 374.72 701.16 373.94 701.49 373.34 701.9 373.08 702 373.01 703.95 371.37 705.48 370.57 712.48 373.08 Z" fill-rule="evenodd" fill="#ff7f0e" stroke="white" opacity="0.25" id="Asia"/>
<path d="M 241.91 340.81 247.43 341.78 249.55 343.95 256.25 344.78 258.42 343.52 259.24 343.57 259.93 343.41 260.26 343.39 260.33 343.39 260.46 343.41 261.02 343.32 260.7 343.86 261.86 345.5 263.65 345.35 266.96 348.27 273.23 353.74 273.23 354.97 278.46 353.99 279.95 355.39 282.74 355.23 285.51 358.28 289.39 364.72 286.33 367.49 288.28 371.77 293.33 368.93 301.03 371.17 301.78 372.92 311.42 373.63 317.61 378.19 321.2 378.68 322.84 383.49 321.66 387.84 313.39 397.45 313.82 402.9 312 410.86 306.81 419.58 301.05 419.84 296.1 422.7 292.38 426.56 291.83 433.44 288.5 438.16 284.8 440.61 281.7 446.82 278.31 450.01 271.81 448.8 270.99 443.46 270.81 449.34 272.99 450.72 274.38 455.27 272.43 458.73 267.38 460.85 262.41 461.08 261.68 466.78 255.78 469.97 257.18 473.25 255.3 474.98 254.5 479.26 250.15 482.55 254.12 488.69 251.2 491.19 249.47 495.58 247.18 496.97 248.29 504 246.52 503.46 243.06 505.49 240.18 508.83 235.94 505.02 236.19 500.3 233.62 498.4 235.24 495.55 234.53 487.9 232.29 484.35 236.96 480.74 238.72 473.19 238.6 468.69 236.03 467.45 237.67 461.94 237.7 456.16 241.62 443.96 241.04 439.01 243.39 427.82 243.59 419.84 244.63 416.08 243.9 408.68 241.44 406.21 233.53 401.87 227.92 392.48 225.42 386.47 220.87 381.24 219.94 376.67 221.96 374.81 220.67 369.68 222.47 365.56 225.19 364.05 228.94 358.73 228.52 352.85 228.14 352.43 227.54 351.42 227.35 351.24 227.32 351.22 228.5 348.02 232.33 346.25 234.1 342.51 241.91 340.81 Z M 247.83 513.3 243.73 513.15 242.9 509.61 245.94 504.47 247.87 505.05 252.57 514 247.83 513.3 Z" fill-rule="evenodd" fill="#9467bd" stroke="white" opacity="0.25" id="South America"/>
<path d="M 394.08 233.24 389.8 232.81 393.13 227.28 393.17 220.85 389.54 219.06 386.63 213.74 388.12 207.76 392.77 205.89 392.46 209.85 396.05 210.76 394.26 214.54 395.52 217.53 403.46 231.56 400.47 236.28 393.35 236.42 394.08 233.24 Z M 384 220.35 386.21 224.17 386.63 228.5 384.97 231.12 379.39 233.67 377.83 223.45 381.67 220.11 384 220.35 Z M 484.7 248.67 478.09 250.78 477.58 253.05 475.17 257.25 472.97 254.25 474.46 251.87 470.87 249.91 468.27 250.42 465.86 254.53 463.37 259.26 462.09 264.61 458.34 265.35 457.72 268.27 454.04 267.74 452.45 269.76 450.16 268.94 451.54 274.24 453.22 275.45 451.4 276.21 451.43 277.17 452.07 277.67 451.54 277.84 451.43 277.92 451.38 277.95 451.34 277.98 451.29 277.95 451.21 277.89 451.21 277.67 450.85 277.45 450.47 277.81 450.56 277.95 450.65 278.09 450.98 278.84 451.14 279.53 447.84 278.67 448.08 278.03 448.07 277.95 448.06 277.81 447.81 277.39 446.88 276.33 446.06 273.24 444.33 271.23 442.87 264.91 441.05 263.23 439.17 261.82 438.99 261.7 433.52 257.65 430.1 253.71 430.41 253.49 427.11 254.6 427.49 257.78 431.06 262.45 437.53 269.06 434.78 270.42 428 266.09 423.3 261.6 422.72 258.92 418.95 257.38 416.6 259.16 416.49 259.23 416.36 259.29 413.57 261.3 408.98 259.72 407.12 263.23 402.28 267.3 399.27 271.78 400.44 273.95 396.36 277.81 396.25 277.95 396.01 278.26 395.7 279.03 395.32 279.5 390.31 279.67 386.61 281.13 383.57 278.39 380.94 278.56 380.05 278.81 380.21 278.42 380.38 277.95 380.47 277.7 380.25 274.66 378.99 273.84 380.76 268.21 380.54 264.7 379.65 261 382.93 259.2 396.03 260.27 397.63 252.79 395.52 248.84 389.74 245.39 392.84 242.88 396.81 243.55 402.77 238.93 405.59 235.09 407.43 234.1 409.38 234.06 410.37 228.94 413.43 226.72 415.96 227.2 419.73 225.11 419.22 221.08 418.02 218.36 419.11 212.32 423.36 210.92 421.59 221.35 425.27 224.74 427.89 222.73 431.61 225.53 431.5 225 431.5 224.7 440.61 221.31 443.45 222.77 446.33 219.57 446.46 219.61 447.08 219.69 446.66 216.5 446.71 213.5 449.99 209.81 453.91 209.18 452.07 203.53 456.55 201.62 462.09 202.32 461.62 197.61 452.58 200.16 447.53 197.34 447.9 192.8 446.86 187.34 456.06 176.69 456.19 173.42 453.55 171.65 450.43 171.32 447.7 174.06 447.59 179.18 446.02 181.77 441.25 185.2 437.97 192.85 438.24 196.89 442.05 201.09 437.22 206.15 435.47 215.91 432.76 216.15 429.53 219.34 425.38 208.14 425.25 204.22 421.32 204.61 418.89 207.38 415.52 208.55 411.46 203.71 410.93 192.24 412.26 189.41 417.96 185.64 421.3 182.17 429.08 169.36 429.04 167.64 440.12 152.22 440.54 150.21 454.13 142.27 460.45 140.85 464.51 141.19 468.56 144.26 468.43 148.3 470.89 147.21 474.66 151.28 479.49 152.03 485.03 156.75 487.71 158.85 488.45 158.61 488.76 159.14 488.95 159.39 489.13 159.62 489.51 160.26 490.82 160.97 491.5 165.56 489.82 168.14 488.95 168.91 488.89 168.97 487.09 169.9 485.12 170.29 478.38 168.25 476.28 173.85 477.3 178.25 480.6 181.11 482.13 174.91 487.71 178.2 488.8 177.16 488.95 177.14 489.11 177.11 489.58 177.27 489.64 177.11 489.29 175.96 488.98 175.65 488.95 175.6 488.45 174.64 488.27 172.78 488.95 172.29 489.4 171.97 490.37 170.67 491.95 169.96 493.57 167.75 497.76 169.3 497.05 163.63 497.93 156.03 501.72 156.39 503.5 160.15 499.62 162.3 501.94 165.9 505.65 165.17 506.11 161.72 512.7 157.17 516.49 155.72 519.5 157.89 524.22 155.36 526.64 155.97 530.92 153.15 535.06 153.27 533.38 149.51 535.26 147.85 540.45 148.94 548.52 154.01 551.93 153.4 548.65 148.88 549.14 142 548.34 138.32 551.33 135.53 553.04 128.36 558.49 126.56 561.4 128.21 560.22 135.39 561.11 154.01 563.04 155.85 561.97 160.62 558.6 166.41 562.95 165.85 565.76 159.32 565.32 154.75 563.06 148.75 564.72 142.6 562.02 137.21 563.3 134.32 567.89 131.08 568.53 133.9 573.96 130.42 576.05 130.5 580.68 135.03 582.17 131.52 579.17 129.69 578.62 121.48 593.32 119.03 591.08 111.31 599.9 104.62 607.37 102.28 609.65 99.54 614.75 101.56 620.74 96.54 623.53 95.97 623.86 91.52 628.6 85.06 630.56 84.02 635.1 87.52 634.32 91.42 639.47 94.15 646.91 94.44 652.41 102.19 651.84 107.27 647.98 111.98 644.65 114.24 639.84 120.54 643.52 122.27 644.41 117.91 652.83 121.41 655.67 120.46 662.56 121.33 662.52 123.97 668.22 126.33 674.02 124.43 675.73 120.07 681.58 121.64 685.71 124.43 686.86 130.94 684.53 132.6 687.63 139.42 691.62 140.92 693.84 133.97 697.26 137.63 701.2 135.88 710.29 136.86 709.45 129.62 714.9 127.98 721.86 129.1 724.45 133.82 726.43 130.86 731.99 132.6 730.11 135.32 736 138.25 738.06 141.39 745.58 139.56 750.32 139.97 754.07 142.6 754.29 148.3 758.08 150.84 759.94 149.13 769.78 150.08 775.97 154.5 779.05 152.9 777.92 146.17 784.1 148.04 789.96 147.53 796.45 150.78 799 153.34 799 175.59 795.72 178.04 796.14 183.52 798.05 187.58 797.05 189.36 792.26 187.73 784.86 192.2 778.19 198.11 775.13 197.34 762.96 199.89 759.01 208.3 762.07 215.87 759.28 216.42 759.34 221.66 754.82 223.79 754.45 226.83 751.59 228.72 750.46 232.56 747.46 235.55 744.8 219.34 745.76 213.98 749.01 209.47 762.09 196.44 761.34 191.87 756.37 196.66 752.63 191.26 749.06 191.82 738.88 204.65 735.8 202.14 731.7 201.04 726.98 203.23 717.4 202.79 711.84 207.76 705.21 216.22 703.22 218 702.49 218.44 702.24 218.71 701.96 219.18 701.87 219.34 699.83 220.93 703.24 222.16 704.41 226.24 709.69 223.45 713.44 227.57 711.4 237.02 710.71 243.95 705.21 252.76 699.54 259.9 696.39 262.03 692.13 260.72 689.7 263.62 689.34 262.9 690.54 261.82 690.45 255.69 694.68 255.26 696.72 251.39 698.05 244.49 690.38 246.71 689.39 242.81 683.31 240.23 679.41 229.19 674 226.2 667.55 227.61 667.51 231.99 664.12 238.89 661.28 240.61 658.64 239.55 653.37 237.99 650.06 240.57 645.67 241.76 640.55 241.19 639.22 239.1 633.59 237.3 629.71 238.44 626.74 236.88 626.34 234.2 619.21 231.45 617.12 234.2 617.46 238.65 615.48 239.85 609.72 238.86 608.92 236.98 603.29 236.6 594.65 241.8 593.56 242.04 589.06 240.3 584.78 235.48 577.31 236.25 572.24 226.83 569.07 223.34 564.5 226.09 560.2 223.49 556.81 219.49 552.91 219.18 550.05 221.2 537.41 224.7 535.17 230.47 536.44 234.31 532.58 236.91 529.36 235.23 523.69 236.84 518.24 233.74 512.52 233.03 504.16 239.44 503.43 244.32 506.64 246.51 509.13 251.1 503.65 256.41 505.2 261.39 507.66 265 502.92 264.85 501.37 263.08 494.78 261 492.17 260.85 490.11 259.9 489 259.78 488.95 259.8 488.84 259.84 488.62 260.24 483.46 254.15 484.7 248.67 Z M 1.44 153.58 11.31 161.14 12.59 166.3 16.01 165.22 17.51 165.45 18.13 165.22 18.67 165.22 19.13 165.43 19.18 165.45 22.75 169.52 21.93 172.46 20.46 173.31 19.91 173.15 19.2 173.26 19.13 173.27 18.93 173.31 16.49 179.59 10.2 175.91 9.67 173.47 2.44 173.21 1 175.59 1.44 153.58 Z M 511.45 45.42 514.6 48.75 506.78 56.2 503.39 53.98 506.18 50.92 509.04 50.52 509.15 46.95 511.45 45.42 Z M 550.22 98.7 546.92 101.1 536.01 107.09 530.63 114.32 526.26 123.04 520.14 121.72 523.2 112.9 526.33 106.48 536.48 98.14 542.89 97.39 549.69 91.32 552.73 95.59 550.22 98.7 Z M 522.63 123.51 525.09 124.35 522.71 129.84 522.58 133.68 526.11 140.72 525.26 142.07 519.08 141.53 518.28 136.51 514.36 136.3 517.93 124.74 522.63 123.51 Z M 613.97 43.29 616.86 47.23 615.08 50.79 615.42 54.77 608.08 57.74 602.87 53.19 606.73 47.37 606.31 44.57 612.36 40.4 613.97 43.29 Z M 616.5 55.81 620.09 57.62 621.8 60.65 620.43 72 616.26 72 609.76 68.41 606.31 64.1 609.14 58.64 611.69 56.46 616.5 55.81 Z M 628.05 67.11 630.09 68.29 633.44 75.73 629.91 78.37 624.33 79.13 622.29 73.71 623.62 72.58 625.19 65.91 628.05 67.11 Z M 710.44 102.47 713.64 99.63 721.99 104.62 721.15 107.44 715.81 111.31 714.74 109.86 708.6 112.65 706.1 111.48 703.59 107.44 704.28 103.19 707.94 99.07 710.44 102.47 Z M 716.45 223.03 717.34 231.59 719.8 241.29 717.21 241.66 716.03 245.45 717.6 250.39 714.39 250.74 715.23 234.66 714.15 232.81 714.37 226.98 716.45 223.03 Z M 447.9 74.61 451.25 81.28 455.2 83.7 449.72 88.23 446.66 87.01 447.9 82.02 444.84 75.95 447.9 74.61 Z M 446.33 54.64 451.69 52.26 457.28 55.55 460.29 59.02 456.84 65.31 453.49 67.46 446.24 65.31 440.85 60.15 440.1 55.68 446.33 54.64 Z M 437.22 59.02 441.19 63.25 441.5 66.75 445.69 68.76 446.77 73.71 443.82 74.39 440.88 80.85 437.02 95.49 431.14 87.41 433.07 84.43 426.09 73.26 424.85 68.53 424.1 60.4 427.93 60.77 429.66 64.34 437.22 59.02 Z M 434.54 275.48 433.47 277.61 433.49 277.84 433.51 277.95 433.52 277.98 433.76 278.23 433.63 278.31 433.89 278.87 433.49 279.75 432.14 279.45 431.34 278.62 430.83 278.62 430.59 278.51 430.12 278.2 429.67 277.95 429.61 277.92 429.19 277.56 428.15 277.31 427.58 276.61 434.54 275.48 Z M 421.35 267.83 421.32 272.27 418.66 272.67 418.15 268.51 421.35 267.83 Z M 365.55 169.36 369.81 173.37 369.3 176.69 366.71 179.59 358.66 184.06 355.22 183.32 351.61 180.04 349.9 175.8 346.31 173.37 347.84 169.74 352.79 171.27 358.37 169.69 365.55 169.36 Z" fill-rule="evenodd" fill="#d62728" stroke="white" opacity="0.25" id="Europe"/>
<path d="M 712.51 387.59 712.48 373.08 720.35 375.85 723.08 379.28 723.26 379.4 723.3 379.43 724.52 379.77 725.92 380.43 727 380.66 726.27 383.69 731.95 390.36 727.56 389.73 723.7 385.26 723.26 385.08 723.21 385.06 723.03 384.97 722.46 384.92 721.24 384.59 720.33 384.12 716.21 388.06 712.51 387.59 Z M 783.75 467.92 786.32 469.28 782.13 475.6 780.03 476.55 776.15 484.15 769.58 483.03 769.7 480.52 773.22 476.37 783.75 467.92 Z M 784.08 450.01 786.41 450.88 787.81 455.27 792.7 458.45 794.37 461.37 789.78 468.04 785.54 462.77 787.76 457.92 784.08 450.01 Z M 717.38 393.97 718.67 399.44 722.06 400.79 724.7 410.39 729.75 413.24 731.84 418.35 737.95 424.06 740.44 432.59 739.26 439.39 732.94 452.46 732.34 457.16 727.8 458.28 723.5 461.02 721.17 458.2 718.18 460.8 711.2 458.2 709.16 452.95 704.22 446.53 700.69 450.04 697.54 443.67 690.69 440.92 679.12 443.01 674.09 447.09 665.67 447.43 661.88 450.18 658.29 450.18 654.94 448.21 656.47 441.42 652.06 429.11 653.17 426.64 651.41 423.19 651.99 418.83 658.71 414.09 667.95 411.77 677.48 400.26 681.3 398.04 684.13 400.26 686.79 399.53 689.54 395.06 694.11 392.98 702.66 393.99 700.42 400.93 710.42 407.16 712.17 406.49 713.95 401.06 715.14 391.71 717.38 393.97 Z M 721.51 466.48 724.34 467.57 728.71 466.95 728.78 469.85 725.56 474.92 722.02 471.68 721.51 466.48 Z" fill-rule="evenodd" fill="#8c564b" stroke="white" opacity="0.25" id="Oceania"/>
<path d="M 111.77 217.22 111.37 220.58 110.55 221.58 107.75 216.15 101.24 206.74 97.18 207.63 89.18 201.22 81.22 199.98 74.44 195.53 71.18 196.21 65.37 203.36 63.47 201.26 58.08 207.97 53.14 211.42 48.7 216.46 40.74 220.15 40.55 217.89 44.49 215.83 50.43 209.97 44.54 204.18 42.32 205.81 39.64 200.07 36.67 200.87 33.47 197.61 31.7 192.99 35.56 185 38.79 185.54 43.6 182.02 42.83 176.33 39.1 179.23 31.72 178.15 27.4 172.46 35.45 167.36 37.13 170.18 41.3 170.34 41.74 165.17 37.51 164.49 36.18 161.55 31.19 156.69 31.57 153.89 36.13 153.46 41.17 144.73 43.12 144.92 46.86 141.05 49.97 141.19 52.47 138.04 57.15 140.31 62.56 141.53 63.2 143.93 69.12 143.6 78.14 146.82 82.53 146.1 87.45 149.13 91.48 149.96 93.81 152.28 98.8 153.71 100.44 150.27 107.05 148.81 110.73 145.97 114.12 148.75 118.17 145.32 120.9 150.59 123.43 146.95 130.61 148.3 138.21 152.96 146.39 155.3 144.13 159.85 148.01 161.03 156.08 159.38 159.29 161.67 159.82 155.66 164.99 153.77 168.38 158.91 170.64 158.55 174.9 161.08 182.52 159.85 182.28 157.35 189.99 158.85 191.28 151.09 187.29 148.17 186.2 138.6 186.89 137.49 188.18 137.9 188.32 137.42 188.42 137.07 188.51 136.86 187.55 136.09 188.97 133.97 190.95 134.96 193.27 137.07 193.49 137.42 193.78 137.9 193.96 138.46 193.89 141.26 197.04 145.71 194.4 148.75 198.53 151.53 202.58 151.53 204.84 154.38 204.49 160.62 208.13 162.3 210.72 151.78 210.59 148.3 216.86 148.88 219.54 151.97 219.83 155.3 217.01 156.57 219.85 162.42 219.47 164.54 212.74 169.63 210.61 167.64 206.51 174.11 204.69 180.2 201.34 180.96 198.77 186.23 195.27 186.95 191.83 193.31 190.19 198.15 190.06 204.83 193.52 205.72 195.51 212.72 199.19 211.87 203.09 213.54 205.91 216.54 211.45 219.57 216.95 220.11 217.66 228.39 223.24 234.77 225.9 231.12 223.4 221.85 226.44 220.42 230.09 216.34 230.2 211.66 225.95 205.77 228.63 199.85 226.75 196.21 228.5 188.16 234.53 189.88 236.5 188.64 241.69 194.79 244.61 196.07 245.54 202.93 250.15 207.84 254.37 204.27 257.02 198.83 259.93 205 260.24 204.91 260.33 205 260.51 205.38 260.64 205.81 260.33 206.12 260.13 206.32 259.88 206.66 260.17 206.91 260.33 206.83 260.7 206.62 261.26 206.66 263.65 215.23 267.16 219.69 272.76 222.35 273.36 225.3 276.31 227.46 276.53 231.38 273.69 233.81 270.3 234.38 266.82 238.06 263.19 238.58 260.97 237.89 260.46 237.92 260.33 237.92 260.04 237.92 259.82 238.1 255.32 237.82 252.59 238.2 250.66 241.15 247.21 242.91 242.02 249.62 238.23 251.52 234.39 255.35 237.83 252.15 243.68 248.87 248.73 243.59 254.76 241.42 257.56 242.61 255.21 248.64 256.94 251.42 259.71 252.98 260.11 252.89 260.33 252.89 260.55 252.89 261.5 253.4 262.66 252.6 264.72 254.44 261.44 255.85 260.86 256.01 260.33 256.24 260.28 256.26 260 256.26 259.66 256.47 258.13 256.47 254.28 259.81 251.22 254.82 244.43 259.16 242.99 262.03 243.95 265.62 238.52 266.69 235.55 268.51 234.92 272.3 231.07 275.09 230.65 278.92 232.04 281.93 230.38 284.97 220.21 292.66 219.3 295.47 222.56 305.56 220.23 309.24 216.37 302.97 216.79 300.35 213.71 297.27 202.92 296.45 198.84 299.74 192.32 298.11 184.63 302.24 184.65 307.67 183.5 311.51 183.56 318.23 186.56 323.58 190.41 326.32 198.86 323.56 199.72 319.64 204.65 318.18 207.55 318.66 204.27 325.62 202.96 331.61 204.42 331.97 213.22 331.77 215.66 333.68 214.6 342.93 216.99 345.95 219.67 347.75 219.7 347.75 220.01 347.73 220.32 347.68 220.8 347.5 222.38 346.78 223.6 345.91 228.5 348.02 227.32 351.22 224.68 347.26 221.65 349.32 220.78 351.24 220.36 350.15 219.96 350.35 219.85 350.33 219.7 350.25 219.63 350.21 219.34 350.12 218.83 349.18 216.28 349.34 210.21 345.23 209.94 342.62 206.4 338.27 205.35 337.31 200.28 336.54 195.53 334.68 189.73 330.38 186.07 332.16 176.45 328.58 167.38 323.65 165.76 321.11 165.5 315.77 157.94 306.8 151.38 300.02 149.34 294.41 145.44 292.87 146.08 297.47 149.8 301.54 153.31 308.09 146.3 304.54 147.19 301.51 143.6 298.14 140.36 290.96 137.3 287.01 132.94 285.8 124.42 269.67 123.94 262.09 124.8 259.41 125.38 250.07 123.74 244.42 127.82 242.37 116.91 234.91 116.02 228.75 111.08 225.56 111.77 217.22 Z M 240.91 326.62 240.89 322.69 242.73 322.24 247.21 325.76 240.91 326.62 Z M 333.61 1.79 342.48 7.02 345.76 14.57 350.08 16.17 352.3 19.48 351.26 21.87 347.11 24.71 334.43 26.84 338.29 28.62 344.25 29.41 346.16 34.11 348.62 29.57 352.7 28.3 352.94 35.63 361.81 38.19 365.75 31.94 372.98 34.87 374.44 38.34 367.86 47.79 362.85 50.38 363.58 51.59 364.69 52.66 362.29 55.42 356.93 54.51 355.36 60.4 357.26 61.89 357.73 68.29 353.54 75.06 353.76 82.13 355.16 87.72 359.35 89.23 358.97 93.57 353.58 92.5 351.5 95.59 352.52 98.51 355.45 98.89 356.75 103.1 354.6 107.09 357.28 115.31 354.54 122.11 350.81 123.82 350.59 132.39 352.3 143.4 348.29 143.93 345.96 139.21 345.74 138.95 345.56 138.73 345.07 138.25 344.52 137.97 343.12 136.58 342.94 139.01 338.62 140.31 336.74 143.73 337.89 144.26 340.7 143.73 341.44 145.45 343.21 144.59 345.14 144.92 345.74 145.22 346.71 145.71 350.59 146.69 348.82 147.66 346.93 149.7 346.25 149.51 346.31 150.21 346.14 150.46 345.8 150.65 345.74 150.71 345.16 151.22 344.87 151.41 343.39 152.9 341.61 155.06 331.33 158.91 326.5 161.43 324.19 166.97 319.56 171.38 312.26 174.17 309.87 176.38 310.11 182.47 306.57 188.16 306.66 191.54 303.97 200.34 302.2 200.78 297.92 197.25 293.58 196.8 290.16 189.79 285.91 182.92 284.16 175.17 280.57 164.26 282.43 155.6 286.4 154.81 288.06 147.27 280.28 144.13 286.66 140.44 276.6 135.88 278.59 126.48 274.45 115.8 273.94 112.4 270.1 106.39 270.28 103.73 264.36 99.44 259.37 97.76 255.72 99.54 248.56 100.09 246.23 97.86 246.5 94.44 243.86 93.28 242.93 89.63 246.61 86.8 240.27 81.81 238.89 76.83 250.42 68.64 253.77 68.53 254.99 66.03 256.27 58.25 251.35 56.33 251.48 52.53 256.6 44.85 259.37 44.29 260.57 41.27 263.81 42.57 264.25 34.26 265.14 31.63 269.84 27.97 278.68 23.72 283 24.21 287.19 31 288.3 27.49 286.97 21.87 291.69 22.71 296.66 27.81 299.61 32.09 301.93 23.38 301.18 20.51 296.97 13.31 304.26 7.59 306.79 8.53 314.1 6.26 316.14 3.17 326.89 1 333.61 1.79 Z M 283.12 147.27 284.96 149.45 280.77 151.59 278.26 148.75 278.48 145.64 283.12 147.27 Z M 218.59 314.49 221.23 314.64 235.41 321.84 227.72 322.36 225.68 318.42 218.63 316.8 218.59 314.49 Z M 155.15 80.1 156.68 81.6 155.72 86.19 151.84 88.02 149.16 86.09 149.1 82.13 155.15 80.1 Z M 143.86 87.82 142.38 95.2 138.39 96.73 133.18 102.56 128.35 100.18 136.02 88.33 141 86.09 143.86 87.82 Z M 159.96 100.37 164.15 100.37 166.19 103.19 165.34 108.14 162.91 110.29 158.76 109.26 152.33 113.99 149.47 114.81 146.7 113.16 145.39 109.77 139.54 108.05 141.56 100 143.8 96.82 146.88 96.73 150.18 99.07 153.84 104.98 158.18 105.33 155.55 97.86 159.18 95.2 159.96 100.37 Z M 146.15 128.95 150.07 125.95 159.05 129.62 160.53 123.2 165.88 126.41 168.6 136.23 168.69 137.28 168.68 137.42 168.67 137.63 168.62 137.9 168.38 138.53 168.2 139.56 169.58 141.86 174.88 145.97 172.53 149.77 174.21 153.09 170.64 154.38 164.72 152.22 158.49 154.69 149.23 156.33 147.99 151.97 141.74 150.59 138.85 139.15 141.94 137.9 138.57 137.56 138.34 137.42 138.01 137.21 139.01 135.67 137.61 135.81 136.24 134.96 136.35 133.32 140.07 126.56 145.88 123.04 146.15 128.95 Z M 134.58 117.18 138.5 115.88 141.27 117.83 144.17 122.34 136.31 128.28 133.6 131.74 133.02 135.88 130.12 137.21 129.96 137.42 129.21 138.39 127.7 139.56 126.49 138.73 126.04 137.42 126.02 137.35 125.84 136.86 125.11 135.53 121.23 132.24 125.58 119.91 123.58 115.23 131.07 113.74 134.58 117.18 Z M 245.96 12.04 252.39 13.49 263.72 21.7 264.18 24.88 262.17 28.78 256.87 33.64 252.3 35.33 256.29 38.04 247.87 48.89 241.75 60.9 237.39 64.1 232.64 65.19 233.55 67.7 230.96 69.93 235.01 73.26 231.82 81.06 227.08 81.7 226.92 86.19 223.78 89.43 227.14 93.86 224.24 97.67 220.89 99.35 219.14 96.44 214.04 96.73 211.27 98.14 201.45 96.35 201.61 93.08 204.05 90.43 207.44 89.43 204.73 84.12 207.11 82.34 205.93 79.24 207.57 72.69 213.47 70.51 213.84 68.17 211.38 62.76 209.03 61.15 208.68 53.72 214.42 54.9 222.56 50.92 226.24 47.51 223.53 46.12 217.41 50.52 209.15 50.52 202.58 46.82 200.54 42.72 201.76 38.78 200.83 35.48 196.84 34.41 204.8 27.81 208.08 26.35 211.81 22.04 217.61 25.86 217.24 22.38 222.33 14.03 227.94 14.21 232.11 11.49 237.45 12.41 240.24 10.39 244.9 10.21 245.96 12.04 Z M 192.65 109.52 190.08 112.82 185.94 108.91 187.93 105.15 190.68 104.62 192.65 109.52 Z M 178.33 118.47 180.2 120.22 183.7 118.95 183.39 125.57 186.22 129.69 185.85 134.47 179.93 137.35 176.76 131.88 172.33 127.69 177.27 127.61 177.71 124.97 175.12 122.58 178.33 118.47 Z M 211.76 174.59 218.12 177.84 220.34 183.81 214.93 180.6 210.48 185.39 208.55 178.2 211.76 174.59 Z M 183.43 96.54 184.07 104.98 182.5 109.52 177.82 109.69 176.76 106.21 172.13 104.53 177.47 95.2 183.43 96.54 Z M 170.73 66.27 174.57 69.11 179.2 74.83 180.17 82.65 177.03 82.34 175.96 79.13 172.28 77.16 170.53 72.69 166.39 66.27 170.73 66.27 Z M 196.31 42.57 199.08 50.11 205.66 53.06 207.19 59.27 211.45 66.15 205.78 73.71 203.29 74.83 203.18 79.13 199.15 79.56 195.29 77.82 191.28 70.16 187.8 65.07 185.49 56.07 186.71 54.64 186.91 48.75 188.82 44.43 196.31 42.57 Z M 190.99 92.3 194.47 95.3 197.06 94.44 202.1 98.14 199.95 100.46 204.49 105.33 208.83 106.21 213.96 102.56 217.9 102.47 223.42 105.86 223.73 109.86 222.09 113.32 218.37 114.24 204 114.07 197.15 112.74 195.2 107.53 195.76 102.74 193.65 97.67 188.82 98.51 185.21 93.86 187.53 90.73 190.99 92.3 Z M 186.76 75.39 189.66 77.38 189.22 81.28 184.03 81.38 182.15 76.39 182.04 72.69 186.76 75.39 Z M 193.47 116.78 199.72 119.11 195.8 127.76 193.1 127.39 191.54 133.04 189 133.04 187.98 120.7 190.02 117.35 193.47 116.78 Z M 184.01 149.19 188.11 154.2 183.94 156.03 179.31 153.03 184.01 149.19 Z M 277.06 233.53 275.31 238.62 283.16 246.51 278.39 247.69 268.42 246.12 273.56 235.41 277.06 233.53 Z M 208.06 140.17 212.05 139.63 212.23 137.77 212.28 137.42 212.31 137.21 212.34 136.16 209.57 133.32 211.54 123.28 216.37 120.3 219.1 120.46 222.07 127.76 220.58 131.74 228.05 127.83 233.11 129.76 235.08 135.6 241.2 136.65 241.6 137.07 241.84 137.42 241.89 137.49 242.11 137.9 242.13 138.6 240.98 139.9 243.41 140.17 248.16 142.87 251.11 148.17 250.02 155.97 253.19 159.5 256.96 160.38 258.11 163.05 260.26 163.69 259.66 165.11 258.8 166.07 258.93 166.07 259.31 165.85 260.04 165.51 260.33 165.39 260.44 165.34 261.72 165.56 262.63 164.94 264.12 167.03 261.57 170.89 261.1 172.56 260.42 172.67 260.33 172.63 259.97 172.46 259.44 171.92 259.42 172.19 259.6 172.67 256.65 175.07 254.99 170.67 248.69 170.94 253.23 176.85 255.32 177.89 257 184.8 252.77 191.4 246.76 188.88 242.06 185.88 237.21 178.97 235.04 177.89 229.94 179.89 226.88 176.28 228.52 173.63 231.91 174.75 236.52 171.86 235.15 169.47 239.91 163.63 238.05 158.61 232 151.22 228.01 147.85 220.23 146.3 217.92 147.91 203.2 143.67 201.9 139.76 205.29 140.65 205.22 138.8 202.54 138.25 201.79 137.83 201.27 137.42 201.19 137.35 200.83 136.86 200.43 133.61 202.21 125.04 205.55 120.3 211.65 120.54 207.88 127.69 208.88 133.97 209.92 135.81 210.39 136.37 210.85 136.86 211.34 137.42 211.41 137.49 211.54 137.83 208.06 140.17 Z M 223.69 120.86 228.85 122.03 230.89 125.27 223.78 127.69 220.94 123.35 223.69 120.86 Z" fill-rule="evenodd" fill="#9467bd" stroke="white" opacity="0.25" id="North America"/>
<path d="M 799 764.98 52.14 764.98 49.1 759.51 37.42 753.56 33.96 749.89 36.98 748.76 34.94 745.01 36.44 742.22 34.36 737.82 28.6 737.82 25.01 730.63 20.53 726.99 16.36 720.72 19.13 719.47 26.67 726.42 31.55 725.86 38.44 728.32 40.46 732 46.57 732.39 51.03 728.7 50.83 724.19 55.4 721.81 60.83 712.54 57.04 704.21 58.72 700.47 56.62 697.59 51.92 694.76 53.03 692.44 71.67 688.74 66.35 682.05 66.52 679.41 71.22 677.6 71.53 673.93 66.41 671.09 62.87 667.35 55.95 664.07 53.16 660.42 57.04 657.74 55.66 655.45 51.38 655.56 48.66 651.08 49.3 644.75 54.38 644.15 63.07 647.26 68.12 651.29 76.52 643.46 76.92 640.72 73.4 637.76 76.39 632.66 81.75 629.69 86.96 629.6 90.35 626.62 97.31 626.01 99.95 622.18 104.14 623.53 107.29 622.85 112.3 623.87 116.58 622.43 125.38 622.85 134.71 621.84 136.97 619.68 144.84 620.26 148.39 617.23 147.46 624.63 152.4 623.02 152.15 618.7 155.48 619.52 155.5 622.34 152.93 625.92 163.66 627.75 167.47 625.84 174.54 625.92 175.45 628.01 181.53 626.44 175.56 620.51 177.36 611.38 182.74 608.93 186.87 611.07 194.23 609.92 198.46 611.15 199.84 608.55 204.51 607.12 204 610.45 211.63 612.55 217.83 615.39 221.69 608.25 229.03 615.07 235.97 614.12 238.34 612.16 244.12 610.76 249.27 608.25 251.86 601.97 250.46 598 249.51 590.45 247.69 584.05 250.66 583.93 252.15 572.56 250.4 570.15 256.69 563.26 258.67 558.77 263.68 556.28 265.09 553.82 270.86 552.26 262.23 560.36 262.92 564.62 258.69 565.5 254.94 571.41 254.5 576.09 259.6 580.2 264.87 595.98 266.16 608.78 263.87 612.31 265.01 615.47 262.72 623.61 258.69 624.38 259.55 628.72 252.88 633.75 246.39 636.91 243.61 640.43 236.23 640.24 233.15 639.09 228.9 639.56 230.98 645.85 232.89 647.88 238.52 649.11 237.63 652.24 234.17 655.34 221.34 650.77 219.47 652.24 228.36 658.07 227.39 661.66 222.02 662.46 215.46 657.3 215.44 661.89 221.58 668.3 230.43 668.42 231.47 672.07 229.54 676.2 232.18 681.65 233.22 687.35 238.12 689.02 242.57 684.87 245.34 689.58 254.65 696.84 257.82 703.11 253.88 703.58 253.9 708.06 256.09 711.2 261.13 709.37 260.93 713.9 262.74 721.81 263.48 728.51 268.06 730.82 272.87 719.29 276.31 713.05 280.32 708.39 287.73 704.84 292.8 703.42 297.92 707.74 296.88 712.54 300.16 712.37 303.2 709.54 308.16 694.47 314.06 688.46 317.52 691 321.69 685.28 330.6 682.58 334.99 678.89 346.27 677.47 348.11 674.93 333.61 671.7 332.79 666.41 326.87 667.23 319.67 661.89 319.8 658.52 322.22 651.71 325.54 646.25 329.78 643.46 335.87 637.1 346.2 631.57 356.8 629.51 361.65 619.19 365.26 619.85 363.38 613.64 364.98 609.84 368.97 608.7 374.51 604.3 375.99 598.14 378.08 594.54 380.83 598.98 382.91 598.14 383.62 592.92 387.61 593.39 386.43 596.6 395.54 597.3 401.84 595.71 405.79 593.66 416.4 590.91 420.26 588.87 425.94 592.78 428.66 589.06 435.05 589.79 446.71 593.25 460.32 593.73 466.5 589.65 472.31 587.7 472.2 581.8 475.79 579.52 478.38 585.64 483.26 585.89 486.14 587.76 488.36 581.18 494.92 576.03 502.85 573.09 507.84 574.08 509.17 569.18 515 564.07 522.56 563.69 531.34 572.27 534.06 571.75 538.96 573.26 541.2 572.45 551.46 574.67 553.88 573.79 555.12 578.07 554.35 582.8 549.12 589.46 553.5 590.51 550.82 597.02 548.27 608.32 554.17 604.01 558 598.63 559.38 592.38 563.9 586.02 568.22 585 572.5 581.8 575.76 576.03 595.02 568.34 598.84 568.51 604.09 566.77 608.28 567.78 617.81 566.55 620.27 567.55 624.93 563.69 630.42 563.91 642.64 569.01 645.85 564.4 650.71 562.88 658.71 569.81 664.07 571.64 679.01 565.94 682.71 569.81 686.48 569.75 687.59 566.55 690.27 565 695.79 564.4 710.11 567.94 717.98 568.84 723.59 573.09 726.05 577.52 734.87 577.58 735.96 579.46 740.72 579.71 749.08 583.3 754.18 584.62 756.97 589.79 760.59 589.65 771.45 593.05 778.74 600.4 777.32 600.97 775.84 609.08 771.56 611.3 765.26 616.75 766.42 621.34 761.69 621.42 760.27 626.27 760.92 632.29 760.78 640.72 764.49 653.83 769.1 658.85 764.93 659.97 755.73 666.88 756.11 669.63 754.45 674.93 755.91 676.83 751.94 680.46 755.86 682.32 756.26 693.01 758.17 699.1 760.92 703.11 762.82 708.23 757.26 711.87 761.92 712.71 765.2 710.86 770.45 718.58 770.85 721.99 773.75 723.45 772.64 728.89 777.56 731.21 788.63 740.52 797.67 746.32 799 749.44 799 764.98 Z M 299.76 662.34 303.09 662.46 304.75 670.23 303.51 679.15 290.96 685.15 289.68 687.07 279.95 688.32 279.52 684.2 281.65 678.12 284.07 678.51 287.7 672.07 288.68 660.08 291.21 653.94 297.46 651.29 301.71 654.37 302.58 659.97 299.76 662.34 Z M 267.6 681.12 267.51 685.42 265.71 689.44 262.52 688.6 255.47 684.74 253.74 681.65 262.06 681.52 263.28 676.96 267.29 673.93 267.6 681.12 Z M 244.72 582.55 248.58 593.73 248.73 600.04 246.58 605.18 239.58 606.22 239.03 603.35 243.88 603.64 243.02 600.68 239.49 598.91 236.19 602.41 232.97 600.47 235.55 596.95 239.03 597.02 242.2 594.2 242.35 589 240.69 586.73 240.69 580.99 244.72 582.55 Z M 182.57 600.68 188.06 601.83 187.09 605.55 181.86 605.33 173.61 601.25 181.39 599.62 182.57 600.68 Z" fill-rule="evenodd" fill="#1f77b4" stroke="white" opacity="0.25" id="Antarctica"/>
</g>
</svg>