<?xml version="1.0"?>
<svg xmlns="http://www.w3.org/2000/svg" version="1.2" baseProfile="tiny" width="800" height="758" viewBox="0 0 800 758" stroke-linecap="round" stroke-linejoin="round">
<g id="continents">
<path d="M 401.55 276.1 405.92 276.26 407.13 280.71 405.02 284.41 407.97 286.17 416.02 288.23 418.1 291.14 424.27 293.62 426.44 289.71 430.19 286.81 437.9 290.13 438.4 290.5 439.03 290.34 439.52 290.22 442.5 290.85 446.5 292.25 451.15 290.31 453.14 291.58 457.74 290.99 457.84 291.28 459.29 295.68 457.79 299.96 456.31 299.63 456.33 300.12 456.32 300.25 456.32 300.35 457.07 301.73 457.21 302.71 461.03 311.66 463.6 313.91 464.92 321.34 467.41 323.23 468.92 328.01 477.3 335.28 477.58 337.99 480.08 340.38 490.06 338.53 495.14 337.25 494.2 342.61 493.33 343.91 492.62 345.34 492.07 345.86 491.87 346.53 491.45 347.34 491.33 347.51 490.96 348.01 490.31 349.82 487.95 353.51 483.73 357.95 479.96 360.33 473.82 367.1 468.75 373.68 467.87 376.29 469.3 378.5 468.93 381.97 471.48 386.46 471.34 388.4 471.41 389.12 471.63 389.9 471.56 390.16 471.57 390.34 471.58 390.59 471.61 390.77 471.73 391.32 471.69 397.74 468.45 401.16 464.42 402.92 458.83 409.11 460.76 415.15 459.84 418.93 454.65 421.6 454.86 424.55 453.54 428.94 449.16 434.87 443.84 440.26 437.19 443.2 434.46 442.71 425.8 444.75 421.95 440.02 422.68 436.86 418.81 428.93 416.38 425.87 414.54 418.11 414.59 414.53 408.49 401.79 410.26 393.13 413.11 387.78 411.24 383.31 411.4 376.27 409.52 376.03 409.1 374.37 407.15 371.98 402.08 364.94 403.77 361.12 404.23 358.33 401.5 352.94 400.93 353.38 399.5 353.45 399.1 353.38 398.71 353.4 398.45 353.25 398.43 353.47 396.06 353.96 393.4 350.14 388.67 349.38 386.3 349.72 385.34 350 378.35 352.93 375.91 352.21 375.62 352.15 375.69 352.08 375.97 352.12 376.12 352.11 373.88 351.9 370.53 352.21 366.19 353.83 362.71 352.28 357.5 348.2 357.01 347.8 356.58 347.59 356.37 347.51 355.66 347.24 355.36 347.14 355.3 346.52 354.49 346.1 353.59 343.45 349.75 339.24 348.74 337.49 346.09 336.07 345.98 334.48 346.42 333.3 346.48 328.2 347.48 324.29 345.35 316.71 345.45 315.27 349.76 307.82 351.13 303.68 352.97 302.5 353.33 301.49 353.67 300.78 353.84 300.25 353.84 300.24 353.84 300.23 354.34 299.59 357.67 298.42 361.54 294.08 362.46 287.76 367.6 284.09 369.74 279.24 373.24 280.92 377.87 281.07 385.5 277.24 396.96 275.69 401.55 276.1 Z" fill="#2ca02c" stroke="white" opacity="0.25" id="Africa"/>
<path d="M 499.16 326.35 497.25 328.61 495.91 329.34 495.44 329.53 495.29 329.59 494.62 329.78 493.55 330.02 490.97 330.92 481.51 335.04 478.08 334.99 476.6 326.98 472.13 319.17 468.47 315.53 467.09 309.83 465.07 308.44 464.21 306.02 462.83 304.04 462.24 302.84 460.77 300.78 460.53 300.25 460.43 300.03 459.89 299.29 459.39 295.99 459.44 295.48 459.29 295.68 457.84 291.28 457.74 290.99 458.35 290.31 459.73 286.42 461.64 282.34 461.45 278.88 458.62 276.52 454.66 278.56 451.5 276.47 447.85 278.23 442.72 275.87 443.09 275.24 442.83 275.08 442.78 274.99 442.78 274.99 442.59 274.97 442.43 274.86 442.12 274.03 442.46 273.22 441.26 272.61 441.65 272.12 441.43 271.18 441.63 270.03 441.25 269.54 441.76 268.9 441.75 268.89 441.73 268.8 441.57 268.77 440.16 267.55 441.38 266.37 444.78 266.36 447.04 263.97 451.28 264.32 455.95 261.65 461.8 262.64 466.91 264.85 469.2 264.33 470.04 264.69 470.46 264.7 470.74 264.8 470.74 264.8 471.04 264.75 473.77 263.13 473.73 259.75 472.3 258.54 471.61 258.37 470.88 257.79 470.74 257.7 470.41 257.47 470.65 257.07 470.74 257.03 470.79 257.02 471.88 257.12 475.77 258.06 481.14 259.46 484.56 262.03 489.26 262.17 491.9 265.84 490.91 268.64 490.92 268.89 490.92 268.94 490.99 269.37 490.23 269.98 489.91 271.95 490.38 274.09 492.68 274.81 492.78 274.88 492.86 274.99 492.86 274.99 493.13 275.52 493.56 275.89 494.84 276.63 495.44 276.78 496.26 276.98 497.19 276.96 500.98 274.98 500.88 270.5 499.24 269.14 499.37 268.89 499.49 268.64 500.01 268.46 498.39 266.37 502.72 264.95 500.83 261.44 497.86 262.35 494.21 255.12 495.5 251.52 497.94 251.39 498.79 246.47 494.98 245.96 490.71 248.44 488.25 243.9 485.07 241.72 486.53 235.45 489.78 234.32 494.13 230.38 497.5 230.55 505.11 234.32 510.72 232.72 513.91 234.39 517.37 233.42 514.47 229.5 518.55 222.32 532.03 218.5 534.01 216.85 537.87 217.18 538.65 221.33 546.02 223.44 550 220.96 553.15 224.42 558.15 233.72 565.55 232.96 569.61 237.53 574.24 239.48 575.32 239.22 584.07 234 589.44 234.48 590.23 236.3 595.92 237.3 597.89 236.12 597.54 231.72 599.52 229.16 606.68 231.7 610.01 235.91 613.85 234.76 619.48 236.64 620.94 238.68 625.79 239.21 630.68 237.69 633.4 235.45 638.63 236.99 641.24 238.04 644.28 236.16 647.55 229.07 647.45 225.18 653.82 223.81 658.3 225.66 663.45 237.85 666.74 238.46 670.04 244.08 673.27 244 677.25 241.84 676.31 248.72 674.28 252.54 670.21 252.91 670.6 257.43 668.99 260.12 669.34 260.81 667.2 265.05 662.5 268.14 664.27 271.42 666.38 275.17 666.11 280.86 662.83 281.47 660.12 282.7 660.45 273.77 658.94 273.52 657.86 273.91 657.66 268.87 655.47 267.51 651.03 269.33 650.9 265.96 648.48 264.92 643.52 269.89 644.7 275.59 648.08 277.03 644.19 281.32 646.35 283.15 648.74 288.06 648.87 289.61 648.22 289.97 649.55 290.99 650.02 292.03 648.32 298.65 644.9 305.29 638.17 311.66 633.33 312.62 633.34 313.2 632.78 312.69 631.71 313.32 631.61 313.44 623.82 315.13 619.53 315.06 616.68 316.35 614.37 321.01 621.39 329.24 622.22 337.49 616.46 342.14 612.61 344 611.75 340.42 608.48 337.53 605.83 335.32 602.02 336.49 600.21 340.63 602.66 345.18 603.04 347.01 602.49 346.89 602.86 347.37 602.93 347.51 602.97 347.58 603.33 347.6 606.65 349.66 609.54 352.73 609.59 356.95 608.03 359.31 604.89 357.05 602.31 349.22 601.43 347.76 601.17 347.65 601.06 347.51 601.07 347.51 601.16 347.21 601.01 347.26 600.64 347.17 600.51 346.75 599.96 346.03 598.93 345.02 599.2 340.91 598.92 334.26 595.86 325.4 591.93 328.46 588.88 319.9 586.7 318.43 585.21 316.75 584.52 314.65 583.36 312.01 582.19 312.49 580.46 314.34 578.03 313.68 573.76 315.08 571.96 318.79 568.65 320.64 558.83 328.49 558.93 333.81 557.83 340.62 552.74 345.61 551.53 344.88 547.65 336.74 545.86 331.25 544.91 329.93 544.88 329.2 544.7 329.01 544.67 328.96 544.62 328.88 544.52 328.8 543.88 327.7 542.1 319 534.08 313.44 532.23 309.48 528.42 305.33 524.54 306.28 517.8 306.24 508.48 304.81 506.33 301.35 500.52 302.52 497.82 300.33 496.05 299.76 495.72 299.6 495.44 299.3 495.2 299.05 492.35 293.83 489.2 294.45 487.96 294.4 488.98 298.02 492.36 302.27 494.16 307.24 494.59 304.34 495.16 303.92 495.44 304.27 495.44 304.27 495.78 304.54 495.9 306.37 495.52 307.53 495.45 307.58 495.44 307.59 495.17 307.68 495.26 308.32 495.44 308.37 495.45 308.37 495.83 308.45 500.93 308.95 505.73 304.14 506.49 303.5 506.2 305.15 506.4 306.78 511.2 309.99 513.88 313.38 509.52 320.89 499.16 326.35 Z M 444.18 261.8 445.86 264.71 439.84 265.43 440.46 262.54 444.18 261.8 Z M 656.7 383.07 657.26 382.42 660.42 382 661.07 382.57 657.02 384.34 655.62 385.76 654.76 383.96 655.65 383.62 656.7 383.07 Z M 659.08 342.85 660.34 347.44 660.31 347.51 660.26 347.6 660.03 347.96 659.24 348.58 657.75 348.44 657.87 350.94 655.15 349.68 654.65 348.01 654.78 347.74 654.94 347.6 655.03 347.51 655.03 347.51 655.1 347.4 655.13 347.12 653.57 346.2 653.34 347.09 652.29 345.43 655.17 345.18 659.08 342.85 Z M 623.16 358.93 626.04 360.05 627.76 357.12 629.98 356.64 630.35 356.52 630.38 356.51 630.65 356.35 632.89 353.3 635 352.62 635.25 352.62 639.97 348.71 644 352.18 640.59 354.23 639.69 355.5 643.68 361.23 640.96 361.78 637.04 371.27 631.71 370.37 630.49 370.37 630.35 370.46 630.02 370.67 629.68 370.84 628.99 370.67 624.49 369.8 624.02 366.45 622.13 364.47 623.16 358.93 Z M 640.75 354.23 641 354.05 641.27 354.19 640.94 354.59 640.75 354.23 Z M 618.22 376.58 621.08 378.31 625.59 377.61 629.54 378.61 630.1 379.99 630.35 380.11 630.58 380.23 631.1 380.36 632.9 380.17 633.6 381.88 631.11 381.62 630.85 381.62 630.6 381.68 630.35 381.77 630.33 381.78 629.85 381.89 625.31 381.31 616.59 379.69 618.22 376.58 Z M 691.9 369.11 691.91 383.46 687.77 380.07 685.93 375.88 672.99 369.91 672.07 366.8 673.59 364.17 676.55 365.01 676.95 368.2 679.87 370.72 684.96 366.63 691.9 369.11 Z M 454.48 280.89 454.98 280.3 457.31 281.18 454.98 282.48 454.48 280.89 Z" fill-rule="evenodd" fill="#ff7f0e" stroke="white" opacity="0.25" id="Asia"/>
<path d="M 226.33 337.18 231.79 338.14 233.89 340.29 240.52 341.12 242.66 339.86 249.42 342.76 251.12 344.56 254.17 346.78 254.49 347.27 254.49 347.51 254.49 347.91 257.32 349.98 257.31 351.19 262.48 350.22 263.97 351.61 266.73 351.47 269.46 354.47 270.41 354.4 271.64 358.71 273.31 360.83 270.27 363.57 269.35 365.05 268.81 366.86 271.07 365.83 272.2 367.8 275.3 367.39 277.22 365 284.82 367.21 285.57 368.94 295.09 369.66 298.36 371.54 299.29 372.64 299.36 372.69 299.85 373.05 300.22 373.46 300.93 373.73 301.21 374.17 304.78 374.65 306.41 379.41 305.23 383.71 301.73 387.25 300.08 390.12 299.5 390.96 299.36 391.21 299.36 391.22 298.88 391.79 297.67 391.65 297.01 393.46 297.47 398.63 295.67 406.48 292.55 413.06 290.54 415.11 284.85 415.37 279.96 418.19 276.28 422.02 276.11 422.9 275.83 423.12 276.04 423.46 275.98 424.19 276.26 425.4 275.72 428.82 272.43 433.48 268.76 435.93 265.69 442.07 262.33 445.23 255.92 444.02 255.1 438.74 254.92 444.57 257.07 445.92 258.45 450.43 256.53 453.84 251.53 455.95 246.62 456.17 245.9 461.81 239.9 461.78 241.46 466.34 238.79 474.15 235.93 474.93 234.57 478.35 238.57 481.56 238.41 483.5 234.3 487.83 230.9 493.65 232.64 498.62 227.48 500.11 224.46 503.27 220.42 499.64 220.68 494.98 218.05 492.72 219.72 490.29 219.02 482.72 216.82 479.2 221.44 475.64 223.38 472.39 222.06 471.57 223.18 468.15 222.61 463.71 220.53 462.47 222.15 457.04 222.17 451.29 225.57 441.83 225.56 433.24 228.25 420.45 227.99 415.37 229.03 411.66 228.31 404.32 225.86 401.9 218.03 397.6 212.48 388.3 210.01 382.35 205.51 377.19 204.48 372.87 206.58 370.82 205.31 365.75 207.1 361.66 209.79 360.19 212.4 357.07 213.33 350.68 213.08 349.09 212.72 348.67 212.11 347.69 211.92 347.51 211.9 347.48 213.05 344.32 216.86 342.56 218.6 338.86 226.33 337.18 Z M 232.18 507.86 228.13 507.69 227.32 504.21 229.74 499.98 232.23 499.69 236.87 508.54 232.18 507.86 Z" fill-rule="evenodd" fill="#9467bd" stroke="white" opacity="0.25" id="South America"/>
<path d="M 376.89 230.75 371.58 229.43 375.95 224.86 375.98 218.49 372.48 216.42 370.44 214.26 370.91 212.44 369.72 212.08 371.03 205.43 378.84 208.5 377.05 212.26 378.32 215.23 386.16 229.1 383.19 233.76 381.02 233.75 379.92 233.43 379.41 233.82 375.27 234.21 376.89 230.75 Z M 366.91 218 369.1 221.79 368.35 228.74 362.35 231.19 360.9 228.93 362.34 225.46 360.82 221.09 363.83 220.83 366.91 218 Z M 466.54 246.02 461.31 247.52 459.5 250.34 460.53 252.33 457.11 254.52 456.41 249.2 452.86 247.25 450.28 247.75 447.89 251.83 445.43 256.49 444.18 261.8 440.46 262.54 439.84 265.43 439.44 265.09 439.03 265.02 438.65 264.96 438.28 264.8 438.11 264.83 437.79 264.65 436.21 264.89 432.37 266.1 432.28 267.41 433 268.58 433.13 268.76 433.3 268.89 433.41 268.97 433.81 269.54 433.16 269.43 433.1 270.27 433.73 271.32 435.3 272.4 433.6 273.28 433.61 274.22 434.25 274.72 433.73 274.89 433.62 274.97 433.57 274.99 433.53 275.01 433.5 274.99 433.4 274.93 433.39 274.71 432.69 274.32 432.66 274.85 432.76 274.99 432.85 275.13 433.17 275.88 433.34 276.55 430.07 275.71 430.31 275.08 430.3 274.99 430.28 274.86 430.05 274.44 429.11 273.39 428.31 270.34 427.26 269.44 427.05 268.89 427.02 268.82 426.6 268.35 425.16 262.09 423.35 260.42 421.48 259.04 421.3 258.92 419.81 257.55 417.7 256.75 415.9 254.92 416.23 254.54 415.4 253.54 415.32 252.38 414.29 251.57 413.37 253.14 412.52 251.02 412.83 250.8 409.66 251.24 409.92 255.02 413.46 259.66 419.86 266.2 417.15 267.55 410.44 263.27 406.22 258.92 404.77 255.65 401.96 254.42 399.17 256.42 399.05 256.47 398.92 256.52 396.15 258.52 391.63 256.95 389.78 260.43 385 264.45 384.31 265.15 383.54 266.6 382.57 267.87 382.02 268.89 382.02 268.89 383.18 271.04 381.32 272.74 380.94 274.33 379.83 274.38 379.14 274.86 379.04 274.99 378.8 275.29 378.11 276.54 373.16 276.7 369.49 278.14 366.5 275.43 363.88 275.59 363.01 275.84 363.16 275.47 363.32 274.99 363.41 274.74 363.19 271.73 361.96 271.12 362.18 269.4 362.45 269.16 362.63 268.89 362.68 268.82 363.76 264.55 363.49 261.88 362.48 258.8 365.86 256.43 372.82 257.48 378.8 257.51 380.4 250.12 378.31 246.2 373.28 243.65 375.65 240.29 379.59 240.96 385.47 236.39 388.28 232.6 390.09 231.62 392.01 231.59 393 226.5 398.52 224.78 402.25 222.74 401.75 218.72 400.57 216.04 401.64 210.05 405.85 208.68 405.07 215 403.77 216.45 404.1 219.01 407.74 222.33 410.32 220.37 414.01 223.13 413.91 222.61 413.28 222.58 413.27 222.14 413.9 222.31 422.92 218.97 425.73 220.4 428.57 217.25 429.02 216.47 428.86 217 428.7 217.28 429.31 217.33 428.89 214.2 430.39 208.18 434.6 210.62 436.08 206.95 434.26 201.39 438.68 199.48 444.17 200.15 443.7 195.53 434.76 198.05 432.73 197.56 432.25 196.32 429.75 195.26 430.12 190.75 429.02 185.91 433.72 179.7 436.6 175.12 438.38 174.04 438.33 171.58 435.71 169.85 430.03 171.96 429.81 177.27 421.85 186.48 420.31 190.82 420.57 194.79 424.34 198.96 419.26 204.61 417.82 213.6 415.16 213.84 411.95 217.02 407.85 205.93 407.71 202.07 405.61 201.03 400.65 205.82 398.1 206.32 393.99 201.25 394.24 195.38 393.55 190.2 394.87 187.39 398.11 184.3 400.5 183.66 401.16 181.49 404.03 179.86 409.41 173.16 411.2 168.7 411.48 165.86 422.44 150.62 422.86 148.64 424.39 148.11 424.84 146.93 426.75 146.07 429.15 146.03 429.67 144.2 432.49 142.9 433.28 144.67 436.29 140.74 443.26 138.13 446.56 139.68 450.6 143.55 450.44 146.7 453.74 148.62 461.38 150.41 465.48 153.45 467.02 155.47 467.9 155.65 469.52 157.15 470.54 157.48 470.74 157.71 470.91 157.91 471.3 158.55 472.58 159.24 473.07 164.27 471.6 166.37 470.74 167.13 470.69 167.17 468.9 168.09 466.95 168.45 460.62 166.65 458.19 172.02 459.21 176.35 462.49 179.17 464.28 177.13 463.62 173.19 469.93 176.27 470.06 170.95 470.74 170.45 471.18 170.13 471.98 169 473.7 168.13 475.31 165.97 479.45 167.53 480.3 165.13 478.92 160.81 479.34 154.32 483.38 154.73 485.13 158.45 481.29 160.59 483.59 164.12 487.37 163.05 487.73 159.98 494.23 155.5 497.98 154.06 501.09 156.23 505.65 153.72 508.02 154.29 511.95 151.56 514.1 155.08 516.37 151.66 514.7 147.92 516.55 146.27 521.69 147.39 529.68 152.36 533.06 151.79 529.82 147.27 530.3 140.5 529.49 136.83 530.28 136.39 530.82 135.97 530.86 135.94 532.46 134.07 534.15 126.99 539.54 125.19 542.42 126.84 540.45 135.01 540.35 135.63 540.5 135.97 540.81 136.67 541.91 137.73 541.8 151.09 544.03 154.16 543.17 158.36 539.65 164.64 544.57 163.33 546.71 158.93 546.3 153.1 544.06 147.18 545.78 141.56 544.1 137.28 543.16 136.13 543.11 135.97 543.02 135.72 544.31 132.93 548.84 129.72 549.48 132.47 554.86 129 556.92 129.11 561.5 133.63 562.97 130.14 560 128.32 559.46 120.21 565.96 119.44 572.64 117.66 571.35 114.28 575.01 107.51 580.52 103.5 587.9 101.16 590.15 98.46 595.2 100.47 599.11 97.63 599.43 95.41 603.9 94.99 604.22 90.54 608.91 84.19 610.85 83.12 614.97 85.59 612.82 88.73 618.34 91.16 619.65 93.16 626.42 93.12 629.72 96.32 632.47 101.14 631.9 106.1 628.07 110.79 623.63 114.23 620.03 119.23 623.66 120.95 624.55 116.68 628.68 119.11 632.88 120.08 635.68 119.16 642.51 120.04 642.46 122.68 645.36 124.7 652.84 124.88 653.15 120.48 655.53 118.75 658.22 120.58 662.88 120.88 665.4 123.11 666.27 131.18 664.24 131.21 665.45 133.56 666.11 132.42 666.65 133.67 665.53 133.9 665.94 134.69 666.14 135.28 666.49 135.97 666.5 135.99 667.31 137.94 671.26 139.41 672.02 137.38 672.3 137.1 672.23 136.37 672.32 135.97 672.44 135.45 672.72 134.35 673.46 132.58 675.35 135.4 675.93 135.79 676.36 135.97 676.83 136.17 678.15 136.12 678.22 135.97 678.39 135.61 678.85 135.23 680.74 134.43 681.89 134.85 683.44 135.92 683.5 135.97 683.88 136.31 684.62 137.34 685.58 136.66 685.2 136.14 685.21 135.97 685.22 135.82 685.37 135.59 685.64 134.88 689.1 133.95 688.89 128.27 697.48 126.79 710.61 130.66 713.01 135.2 713.16 135.65 712.95 135.97 712.85 136.12 712.54 136.45 712.23 136.94 713.82 136.16 715.17 136.8 717.2 139.86 724.63 138.1 729.32 138.48 732.21 140.15 733.26 146.69 737 149.24 738.84 147.55 748.59 148.49 754.7 152.89 757.74 151.31 756.63 144.63 762.75 146.45 768.95 146.21 774.96 149.19 775.9 149.99 777.01 151.28 777.2 151.51 777.49 151.69 777.49 152.99 777.49 151.69 777.93 151.95 787.7 159.44 789.67 162.72 795.48 163.68 799 167.71 797.96 170.83 794.57 171.87 792.82 177.69 786.58 174.03 786.06 171.62 781.2 171.55 779.95 169.14 778.09 169.85 778.91 171.38 778.14 173.12 777.49 173.74 777.11 173.91 777.01 174.07 776.73 174.5 776.28 175.01 774.24 176.14 771.86 176.94 774.53 179.36 776.55 185.6 771.68 186.08 761.82 191.31 755.52 197.61 753.86 195.26 741.92 197.72 737.93 206.1 740.94 213.56 738.2 214.12 738.25 219.29 733.79 221.42 733.4 224.42 730.58 226.27 729.47 230.09 726.5 233.04 723.88 217.01 724.82 211.72 728.04 207.25 731.52 204.66 738.02 196.05 741.77 193.82 740.23 189.82 735.31 194.56 731.6 189.21 728.08 189.79 718.02 202.48 714.96 199.97 710.91 198.9 706.25 201.07 703.9 200.38 695.43 201.2 686.83 210.64 684.7 213.93 682.74 215.67 682 216.13 681.77 216.39 681.47 216.85 681.38 217 679.38 218.56 682.74 219.79 683.91 223.84 689.13 221.09 692.84 225.14 693.02 228.78 691.28 232.13 690.14 241.35 684.69 250.08 679.09 257.15 674.77 259.64 671.61 258.12 669.34 260.81 668.99 260.12 670.6 257.43 670.21 252.91 674.28 252.54 676.31 248.72 677.25 241.84 673.27 244 670.04 244.08 666.74 238.46 663.45 237.85 658.3 225.66 653.82 223.81 647.45 225.18 647.55 229.07 644.28 236.16 641.24 238.04 638.63 236.99 633.4 235.45 630.68 237.69 625.79 239.21 620.94 238.68 619.48 236.64 613.85 234.76 610.01 235.91 606.68 231.7 599.52 229.16 597.54 231.72 597.89 236.12 595.92 237.3 590.23 236.3 589.44 234.48 584.07 234 575.32 239.22 574.24 239.48 569.61 237.53 565.55 232.96 558.15 233.72 553.15 224.42 550 220.96 546.02 223.44 538.65 221.33 537.87 217.18 534.01 216.85 532.03 218.5 518.55 222.32 514.47 229.5 517.37 233.42 513.91 234.39 510.72 232.72 505.11 234.32 497.5 230.55 494.13 230.38 489.78 234.32 486.53 235.45 485.07 241.72 488.25 243.9 490.71 248.44 486.96 250.76 485.27 254.42 489.26 262.17 484.56 262.03 481.14 259.46 475.77 258.06 471.88 257.12 470.79 257.02 470.74 257.03 470.65 257.07 470.41 257.47 464.78 253.45 466.54 246.02 Z M 504.06 122.21 506.49 123.02 504.14 128.49 504.01 132.29 504.39 132.76 504.7 134.02 505.15 135.29 505.46 135.97 505.64 136.4 507.51 139.24 508.06 141.49 500.56 139.99 500.26 138.4 500.91 137.42 499.87 136.44 499.67 136.03 499.67 135.97 499.7 135.49 499.87 135.13 499.77 135.05 496.37 135.4 495.86 131.33 498.14 129.68 500.62 122.32 504.06 122.21 Z M 419.55 58.43 423.49 62.56 424.6 67.48 427.6 67.81 429.65 72.25 426.09 73.57 423.18 80.04 419.36 94.48 414.24 88.14 415.46 83.55 408.56 72.52 407.32 67.8 406.57 59.8 410.71 60.06 412.09 63.65 417.42 61.21 419.55 58.43 Z M 416.9 272.55 415.85 274.67 415.87 274.89 415.89 274.99 415.89 275.01 416.14 275.26 416.02 275.35 416.28 275.89 415.88 276.78 414.54 276.48 413.75 275.64 413.23 275.65 413 275.55 412.54 275.23 412.08 274.99 412.04 274.97 411.62 274.61 411.08 274.36 410.59 274.35 410.01 273.66 416.9 272.55 Z" fill-rule="evenodd" fill="#d62728" stroke="white" opacity="0.25" id="Europe"/>
<path d="M 691.91 383.46 691.9 369.11 699.59 371.78 702.42 373.97 702.47 374.75 702.37 375.25 702.56 375.37 702.6 375.4 706.88 377.26 705.54 379.61 711.16 386.21 706.8 385.58 703 381.15 702.56 380.99 702.51 380.97 702.33 380.88 700.68 380.55 699.66 380.03 697.69 381.43 696.56 381.67 697.15 383.11 695.57 383.93 691.91 383.46 Z M 696.74 389.79 696.58 390.27 696.57 390.34 696.56 390.4 696.59 390.57 697.23 391.33 698.01 395.18 701.36 396.53 701.67 399.86 703.2 402.68 703 404.15 703.98 406.02 708.98 408.84 711.05 413.9 713.37 414.23 713.55 416.33 714.99 417.66 715.87 418.11 718.64 422.38 718.53 425.39 719.54 427.99 718.15 436.06 712.13 447.66 711.55 452.29 704.81 455.45 702.47 455.46 700 454.18 697.53 455.9 691.14 453.68 685.58 443.2 683.71 441.77 680.22 445.25 677.12 438.94 670.35 436.22 658.88 438.29 653.91 442.32 645.59 442.68 641.82 445.38 638.27 445.38 634.96 443.43 636.47 436.73 631.83 423.83 632.05 414.37 638.68 409.69 647.83 407.38 653.56 400.06 655.52 398.38 657.26 396.01 661.05 393.82 663.89 396.1 666.47 395.28 669.31 390.81 673.04 390.43 673.12 390.55 673.18 390.34 673.19 390.29 673.5 390.14 673.72 388.79 682.18 389.8 682.33 390.19 682.5 390.34 682.57 390.4 683.07 390.68 682.3 392.15 680.84 392.82 679.97 396.66 682.72 398.69 685.92 400.58 687.6 400.99 689.85 402.84 691.59 402.17 693.33 396.79 693 393.94 693.45 391 693.47 390.68 693.61 390.34 693.73 390.07 694.05 389.66 694.52 387.54 696.74 389.79 Z" fill-rule="evenodd" fill="#8c564b" stroke="white" opacity="0.25" id="Oceania"/>
<path d="M 97.58 214.91 97.17 218.25 96.87 219.06 96.38 219.23 95.63 215.51 88.73 205.54 87.17 204.53 86.01 205.36 84.78 204.01 83.2 205.4 75.23 199.1 67.36 197.84 61.15 193.91 59.06 193.54 58.4 193.94 57.71 193.31 57.41 194.11 55.02 197.9 49.97 201.42 49.94 194.55 44.81 200.67 46.47 202.83 35.63 213.7 27.3 217.81 27.12 215.57 33.42 211.75 37.09 208.06 37.28 204.67 33.86 204.46 27.84 199.69 23.28 198.75 20.11 195.51 18.52 189.77 22.18 183.06 24.48 183.88 30.14 180.09 29.24 174.48 25.69 177.3 18.38 176.24 14.11 170.63 21.6 165.78 23.74 168.35 27.86 168.51 29.95 165.14 23.69 162.2 22.8 159.85 17.85 155.06 18.23 152.28 22.41 151.97 24.91 149.19 27.72 143.18 29.66 143.35 33.35 139.57 36.24 139.79 38.9 136.58 44.58 140.08 48.88 140.02 49.51 142.39 55.38 142.07 64.31 145.26 68.65 144.57 73.51 147.54 77.5 148.39 82.91 152.26 86.37 148.69 90.7 148.9 96.55 144.4 101.18 145.58 103.92 143.78 106.27 148.69 109.11 145.38 116.64 146.97 123.75 151.32 131.37 153.13 133.43 159.31 141.41 157.7 144.59 159.94 145.2 153.94 149.91 152.07 154.23 157.39 160.02 159.35 166.9 158.58 169.43 154.89 172.97 159.1 177.35 154.35 176 148.77 171.94 146.14 171.01 143.21 171.31 136.89 171.9 136.05 173.16 136.46 173.31 135.97 173.42 135.61 173.51 135.4 172.56 134.66 173.96 132.52 175.91 133.49 178.22 135.61 178.43 135.97 178.71 136.47 178.9 136.97 178.82 139.74 181.93 144.17 179.33 147.14 183.56 149.79 184.34 152.42 187.43 149.95 189.66 152.73 189.32 158.93 192.96 160.37 195.48 150.16 195.21 146.31 201.55 147.29 204.38 150.85 201.69 154.93 204.51 160.69 201.5 165.6 197.47 167.83 195.36 165.87 191.3 172.24 189.52 178.26 182.45 181.63 176.46 192 174.87 198.11 175.03 202.63 178.17 203.26 180.01 209.39 187.67 211.1 190.71 214.25 196.19 217.25 201.64 217.78 202.34 225.95 207.65 232.33 210.6 228.51 208.03 219.5 211.92 217.44 214.64 214.05 213.53 206.34 210.55 203.57 213.19 197.72 211.38 188.35 213.06 186.15 218.94 187.99 221.26 186.71 226.1 192.73 230.01 194.84 229.92 200.76 230.54 200.78 230.51 201.85 229.99 203.37 231.04 202.66 232.08 202.63 234.55 205.53 238.86 201.75 241.29 196.72 245.47 204.45 246.1 206.53 246.99 206.99 246.84 208.02 246.03 208.54 247.09 208.96 248.23 210.46 247.83 212.94 248.77 215 249.33 214.64 251.31 217.35 256.85 219.98 260.37 225.04 260.6 228.92 257.79 231.33 254.42 231.91 250.98 235.51 236.91 235.66 234.99 238.59 231.57 240.33 226.44 246.97 222.69 248.84 218.9 252.62 221.42 251.31 222.29 249.47 228.08 246.21 231.45 242.17 237.61 239.05 241.83 241.26 239.49 245.99 241.19 248.74 248.34 251.9 238.57 257.04 235.53 252.11 228.83 256.42 227.41 259.26 228.34 262.8 225.88 263.53 222.98 263.86 219.95 265.77 218.18 271.76 215.49 273.46 216.56 279.61 205.43 288.95 203.96 292.13 207.2 302.91 204.89 305.95 201.06 299.76 199.19 294.55 193.57 293.11 190.21 293.62 187.76 293.31 186.26 293.94 183.72 296.55 177.26 294.94 169.67 299.02 169.69 304.39 168.13 312.42 169.74 317.16 172.6 321.5 175.39 322.84 183.74 320.11 184.59 316.24 189.46 314.81 192.33 315.27 189.1 322.15 187.79 328.08 189.25 328.45 197.95 328.23 200.37 330.12 199.47 333.9 199.59 334.75 199.53 335.53 199.58 335.72 199.59 335.9 199.59 335.95 198.81 338.44 199.31 339.29 201.67 342.28 202.37 343.49 204.32 344.05 208.22 342.23 213.05 344.32 211.9 347.48 209.3 343.57 206.48 345.14 200.98 345.62 194.96 341.56 194.7 338.97 193.11 337.46 192.48 336.52 191.67 335.9 191.67 335.9 191.53 335.73 190.93 335.17 190.48 334.84 191.2 334.67 190.16 333.72 185.15 332.96 180.46 331.13 174.62 326.87 171.08 328.62 161.57 325.08 152.6 320.21 151 317.7 150.73 312.42 143.26 303.55 136.76 296.83 134.82 291.35 131.3 293.76 138.06 302.57 136.29 303.78 131.75 301.31 132.62 298.31 129.06 294.98 125.87 287.86 122.85 283.97 118.52 282.76 115.45 277.76 114.16 273.61 111.45 270.62 109.98 266.11 109.61 259.29 110.95 250.84 109.41 241.84 110.85 242.52 113.3 242.78 113.74 243.46 114.65 243.04 113.45 239.79 109.08 236.32 108.48 234.95 105.52 234.57 102.67 232.41 101.79 226.33 100.6 224.92 99.21 224.37 98.6 224.89 96.9 223.15 97.54 221.63 96.7 220.55 97.88 217.72 97.58 214.91 Z M 225.35 323.15 223.11 322.24 225.32 319.26 232.11 321.15 225.35 323.15 Z M 244.31 323.08 244.44 322.97 244.55 323.08 244.52 323.2 244.31 323.08 Z M 317.05 1.68 325.83 6.96 329.07 14.47 333.34 16.02 335.54 19.36 333.45 22.89 330.41 24.5 317.87 26.54 321.68 28.33 327.59 29.09 329.46 33.73 332.07 28.92 335.94 28.02 336.36 33.82 338.84 35.79 344.96 37.78 348.62 31.7 355.47 34.01 357.45 37.87 350.93 47.24 345.98 49.8 346.36 50.63 346.71 50.99 346.83 51.08 347.79 51.74 345.74 54.73 340.13 53.96 338.57 59.72 340.45 61.2 340.91 67.54 336.78 74.32 336.99 81.24 338.37 86.8 342.52 88.33 342.14 92.59 336.81 91.54 334.76 94.54 335.44 97.16 338.65 97.84 339.95 102.03 340.58 112.95 336.4 115.93 337.76 120.79 334.09 122.5 333.85 130.98 329.95 128.25 329.32 126.87 329.06 125.79 328.9 125.13 328.72 124.26 324.28 126.66 324.86 126.97 327.94 125.37 328.41 125.52 328.64 128.7 328.85 128.82 329.06 129.14 329.19 129.34 332.59 132.04 334.46 134.03 335.03 135.49 335.09 135.97 335.15 136.46 335.21 137.35 335.2 139.71 335.54 141.9 331.58 142.4 329.28 137.76 329.06 137.48 328.87 137.23 328.39 136.81 327.35 136.06 327.29 135.97 326.93 135.54 326.47 135.13 325.25 134.71 324.21 134.76 324.1 135.33 326.06 135.47 326.25 135.75 326.31 135.97 326.38 136.24 326.28 137.51 322.02 138.79 320.15 142.23 321.3 142.72 324.08 142.24 324.81 143.89 326.75 143.04 328.46 143.41 329.06 143.7 330.01 144.15 331.92 144.58 332.1 146.07 330.74 147.69 330.23 148.12 329.56 147.92 329.62 148.62 329.46 148.87 329.12 149.07 329.06 149.12 328.48 149.62 326.72 151.3 324.97 153.39 311.96 158.02 307.95 164.83 302.96 169.71 295.1 171.17 293.58 174.53 293.81 180.55 290.29 186.17 290.39 189.52 287.73 198.22 283.22 197.01 275.45 192.19 274.06 187.76 269.86 180.96 268.13 173.28 265.11 166.55 264.57 162.54 266.42 153.94 270.34 153.17 271.99 145.73 264.28 142.59 266.94 140.42 269.74 142.47 270.61 138.94 266.25 136.62 266.5 136.23 266.63 135.97 266.64 135.94 266.74 135.63 267.06 135.33 265.46 134.37 264.39 135.62 264.1 135.9 263.93 135.91 263.84 135.97 263.62 136.13 262.8 136.25 262.52 136.2 262.01 135.97 262 135.97 261.38 135.84 260.82 134.97 260.8 128.58 262.62 125.16 259.7 120.29 258.17 111.36 254.22 105.3 254.41 102.63 248.55 98.41 243.61 96.73 236.18 100.13 230.6 96.8 230.86 93.47 227.48 91.72 227.33 88.72 230.65 85.81 224.7 80.97 223.04 78.24 223.97 74.88 231.43 70.93 239.27 65.33 240.64 57.25 236.15 56.29 235.38 53.67 241.25 43.96 244.59 41.02 248.01 42.07 249.31 31.36 253.97 27.63 262.72 23.44 267 23.93 271.12 30.75 273.76 29.54 270.91 21.64 275.58 22.55 283.41 31.77 285.72 23.17 284.98 20.25 280.81 13.14 288.01 7.6 292.16 10.45 294.23 6.15 297.76 6.15 299.78 3.22 310.4 1 317.05 1.68 Z M 103.79 234.19 107.55 235.3 109.39 238.32 105.21 238.36 101.44 234.29 103.79 234.19 Z M 145.25 99.33 151.41 102.13 150.57 106.97 147.74 109.22 144.06 108.06 135.98 113.46 133.79 113.35 131.74 107.86 128.94 108.88 124.83 106.29 127.01 99.18 129.26 95.82 132.3 95.69 135.58 98 139.19 103.87 142.63 98.53 145.25 99.33 Z M 131.58 127.56 135.46 124.65 141.05 127.06 146.55 130.77 145.36 123.74 149.22 123.06 151.56 126.12 153.81 134.8 153.89 135.79 153.89 135.97 153.88 136.15 153.82 136.46 153.59 137.07 153.41 138.05 158.65 146.3 159.36 151.44 155.83 152.75 149.96 150.59 143.81 153.05 134.64 154.64 133.4 150.39 127.22 148.96 124.36 137.68 127.42 136.45 128.58 136.15 128.51 136.02 128.43 135.97 128.24 135.87 128.39 135.55 123.54 135.78 122.05 134.04 123.14 127.99 127.09 124.13 131.33 121.72 131.58 127.56 Z M 120.15 115.92 125.71 115.45 129.56 121.21 121.85 126.89 119.18 130.32 118.21 135.3 117.53 135.71 117.03 135.92 116.83 135.97 116.34 136.1 116.18 135.98 116.17 135.97 116.01 135.7 115.73 135.72 115.55 135.97 114.84 136.95 113.13 138.16 112.13 137.27 111.72 135.97 111.69 135.87 110.78 134.11 106.93 130.86 111.24 118.65 109.27 114.02 116.69 112.53 120.15 115.92 Z M 230.34 11.98 236.7 13.28 243.17 15.61 244.39 19.87 248.1 21.94 246.38 28.42 241.12 33.23 239.13 39.9 228.91 52.13 226.18 60.23 217.69 64.37 215.5 69.22 219.5 72.43 216.36 80.21 211.65 80.88 211.51 85.28 208.4 88.52 211.05 90.66 211.06 94.56 205.78 98.24 204.73 95.11 198.77 95.67 196.02 97.05 186.31 95.31 186.46 92.12 188.88 89.43 192.22 88.48 189.54 83.24 191.9 81.44 190.73 78.43 192.36 71.87 197.83 69.59 198.09 66.69 196.13 62.07 193.21 59.2 193.46 53.16 199.13 54.33 207.18 50.4 210.83 46.95 210.3 43.35 205.08 48.71 199.83 47.91 195.65 50.44 187.73 46.66 185.48 41.52 187.79 37.13 181.75 33.99 184.29 31.02 192.86 26.12 196.55 21.82 201.73 25.15 202.64 19.25 207.54 13.38 212.82 14.36 216.62 11.43 221.92 12.3 223.06 10.81 229.29 10.17 230.34 11.98 Z M 163.43 117.25 165.28 118.94 168.73 117.71 168.27 122.38 170.86 133.01 168.73 134.44 167.42 134.21 167.38 135.75 167.21 135.97 166.91 136.38 166.36 136.7 165.26 136.25 165.13 136.12 165.07 135.97 165.02 135.86 164.74 134.94 164.01 133.55 162.13 130.75 157.48 126.16 162.37 126.23 162.81 123.64 160.25 121.27 163.43 117.25 Z M 181.23 42.08 183.95 49.53 190.46 52.47 191.99 58.59 194.91 62.07 195.69 66.88 191.91 70.46 188.01 78.26 184.01 78.72 179.49 76.14 174.17 65.93 173.75 61.57 171.19 59.17 170.51 55.53 173.05 52.15 171.91 48.21 173.81 43.95 181.23 42.08 Z M 175.94 91.3 179.41 94.26 182.5 93.52 184.81 99.36 189.31 104.2 193.98 104.28 198.67 101.48 202.57 101.37 208.04 104.74 208.37 109.62 206.68 112.11 203.33 112.97 188.82 112.83 181.06 110.35 180.04 105.64 180.57 101.23 178.58 96.6 173.8 97.43 170.8 93.31 173 89.82 175.94 91.3 Z M 192.84 138.68 196.79 138.12 196.97 136.31 197.01 135.97 197.04 135.76 197.07 134.74 194.33 131.93 196.29 122 201.46 118.95 204.21 119.69 206.69 126.44 205.23 130.34 209.49 129.89 211.68 126.86 217.85 128.72 219.76 132.95 226.02 135.59 226.28 135.97 226.3 136 226.47 136.29 226.55 137.13 225.4 138.43 231.05 140.33 235.01 145.1 233.53 154.31 237.5 157.81 241.23 158.66 242.36 161.34 244.49 161.97 244.01 163.16 245.94 163.83 246.84 163.19 248.3 165.26 243.69 173.47 240.92 173.21 239.52 168.76 236.95 167.28 233.05 169.13 236.11 173.61 239.59 175.99 241.25 182.82 237.38 187.43 231.24 186.95 226.47 183.89 221.67 177.05 219.33 175.79 214.48 177.97 211.47 174.41 213.16 171.72 216.44 172.91 221.41 171.24 219.63 167.67 224.36 161.87 221.92 156 218.44 151.69 209.9 144.17 208.14 145.99 204.88 144.73 202.6 146.33 189.97 143.7 187.89 141.92 186.75 138.3 190.03 137.34 187.38 136.8 186.64 136.36 186.17 135.97 186.03 135.87 185.7 135.39 185.67 128.88 186.98 124.02 190.36 119 196.09 118.33 192.75 125.51 194.06 133.45 195.15 134.95 195.61 135.39 196.1 135.97 196.16 136.04 196.28 136.35 192.84 138.68 Z" fill-rule="evenodd" fill="#9467bd" stroke="white" opacity="0.25" id="North America"/>
<path d="M 777.49 756.84 38.59 756.84 35.57 751.38 24.02 745.51 23.59 740.89 21.57 737.18 22.89 732.77 20.99 729.89 15.28 729.99 11.74 722.85 1 712.7 5.92 711.77 13.39 718.67 18.21 718.15 25.02 720.55 27.03 724.19 33.07 724.66 36.89 721.54 36.94 716.84 41.81 714.14 47.18 704.95 43.43 696.73 45.1 693.02 43.02 690.17 38.36 687.36 39.46 685.1 57.9 681.42 53.49 676.12 53.29 671.41 57.47 670.4 57.78 666.7 52.7 663.89 49.19 660.27 42.35 657.06 39.59 653.34 43.43 650.72 42.06 648.5 37.84 648.58 35.14 644.14 35.77 637.86 40.16 637.35 50.01 640.54 54.4 644.34 62.62 636.99 63.1 633.89 57.46 627.87 62.8 630.82 61.71 627.82 67.87 623.02 72.41 624.14 76.39 619.97 83.28 619.34 85.88 615.56 90.02 616.91 93.15 616.18 98.1 617.24 102.33 615.8 111.04 616.25 120.28 615.26 123.21 613.02 130.3 613.62 130.99 609.85 133.81 610.65 132.88 618 137.78 616.41 137.54 612.11 140.83 612.9 140.84 615.73 138.29 619.29 148.92 621.1 152.68 619.13 159.69 619.24 161.15 621.78 166.59 619.77 160.69 613.87 158.14 606.93 161.27 608.03 163.39 605.28 157.57 604.65 158.15 602.13 167.79 602.47 171.87 604.56 180.45 603.57 183.34 604.64 184.71 602.06 188.83 603.95 194.18 603.8 196.37 606.04 202.5 608.81 206.32 601.81 213.58 608.5 220.46 607.58 222.8 605.63 231.81 603.02 234.34 600.99 236.18 595.57 234.79 591.61 233.85 584.17 232.06 577.85 234.99 577.73 236.45 566.45 234.72 564.1 242.24 555.58 242.3 553.6 247.58 550.64 249.26 547.95 254.96 546.4 246.45 554.4 247.04 559.57 242.92 559.47 239.22 565.31 239.66 572.65 243.82 574.02 246.85 582.21 245.94 583.8 248.92 589.14 250.31 602.28 249.23 606.89 248.94 613.81 246.27 614.03 242.55 618.19 243.78 622.04 237.18 627.04 230.75 630.14 229.01 632.99 225.28 633.93 217.67 632.3 213.46 632.76 215.52 639.02 217.41 641.02 222.97 642.2 220.36 647.61 217.38 648.13 205.97 643.86 204.13 645.25 212.92 651.12 211.97 654.57 206.65 655.44 200.17 650.28 200.14 654.89 206.96 660.58 214.97 661.26 216 664.88 214.84 668.29 217.74 680.07 222.58 681.65 226.99 677.57 228.7 680.81 238.93 689.43 242.08 695.62 238.18 696.13 238.19 700.58 240.37 703.64 245.35 701.87 245.15 706.25 246.95 714.07 248.48 714.34 247.67 720.78 252.22 723.01 256.96 711.64 260.36 705.43 264.34 700.86 271.65 697.27 276.68 695.97 281.76 700.18 280.72 705.03 283.95 704.75 286.97 701.99 291.87 687.05 297.71 681.16 301.14 683.7 305.26 678 314.07 675.32 318.42 671.7 329.58 670.29 331.41 667.74 317.06 664.54 316.25 659.35 310.38 660.12 303.26 654.89 303.39 651.49 308.01 640.53 312.42 637.88 319.28 630.32 329.51 624.82 339.99 622.81 344.8 612.63 348.37 613.23 346.51 607.14 348.54 602.95 351.33 603.15 357.52 597.89 359 591.79 361.05 588.2 363.78 592.62 365.82 591.75 365.47 587.61 369.72 586.09 369.69 590.33 380.77 590.39 393.95 585.71 401.43 584.52 402.79 582.63 408.4 586.45 411.09 582.82 422.49 584.95 424.99 587.36 433.13 586.74 442.4 587.42 448.54 583.38 454.28 581.45 454.16 575.63 457.73 573.37 459.99 579.14 465.11 579.65 467.96 581.48 470.16 574.98 476.64 569.92 484.49 566.97 489.43 567.99 490.74 563.14 496.52 558.07 500.44 557.2 504.46 557.98 509.12 563.54 512.68 566.21 515.38 565.64 520.22 567.15 522.43 566.35 532.59 568.55 534.97 567.7 536.21 571.94 535.44 576.6 530.26 583.21 534.61 584.24 531.95 590.67 529.44 601.84 535.28 597.61 539.05 592.28 540.43 586.05 544.9 579.81 549.17 578.75 553.4 575.6 555.39 570.83 565.85 565.96 575.68 562.28 579.45 562.47 584.66 560.73 588.81 561.73 598.22 560.51 600.66 561.5 605.28 557.7 610.71 557.9 622.8 562.95 625.96 558.38 630.77 556.89 635.62 561.02 635.54 563.62 641.82 563.93 644 565.56 658.77 559.94 662.44 563.75 666.16 563.7 667.27 560.51 669.92 559 675.39 558.4 689.55 561.87 697.33 562.77 702.87 567.01 705.32 571.37 714.04 571.47 718.46 574.31 720.91 571.66 723.8 575.33 733.16 578.41 735.9 583.49 739.5 583.41 750.23 586.74 756.05 594.56 754.56 602.6 749.32 603.33 748.97 606.37 744.1 610.17 745.26 614.76 740.58 614.83 739.19 619.58 737.31 620.01 739.8 625.53 739.69 633.86 743.34 646.9 747.04 652.62 743.79 652.98 734.69 659.8 734.09 664 734.85 669.64 730.93 673.26 734.82 674.99 735.2 685.63 737.1 691.65 739.82 695.57 741.7 700.64 736.19 704.25 740.8 705.18 744.04 703.37 749.49 713.63 752.51 715.67 751.41 721.17 758.24 723.33 767.23 732.64 776.18 738.3 777.49 741.5 777.49 756.84 Z M 283.56 655.3 286.85 655.39 288.51 663.06 287.28 671.94 274.87 677.89 273.58 679.81 263.96 681 263.55 676.91 265.45 671.91 268.05 671.3 272.34 663.09 271.48 660.75 272.6 653 275.1 646.96 280.05 644.21 282.89 645.21 286.66 649.51 286.36 652.92 283.56 655.3 Z M 229.11 576.34 232.87 587.05 233.08 593.67 230.96 598.77 224.03 599.77 223.48 596.89 228.29 597.24 227.42 594.27 223.93 592.55 220.67 596.01 217.48 594.07 220.04 590.62 223.47 590.66 226.61 587.91 226.9 584.93 228.5 583.78 225.16 581.25 224.71 575.18 229.11 576.34 Z" fill-rule="evenodd" fill="#1f77b4" stroke="white" opacity="0.25" id="Antarctica"/>
</g>
</svg>