<?xml version="1.0"?>
<svg xmlns="http://www.w3.org/2000/svg" version="1.2" baseProfile="tiny" width="800" height="765" viewBox="0 0 800 765" stroke-linecap="round" stroke-linejoin="round">
<g id="continents">
<path d="M 419.02 278.27 421.48 277.16 423.43 278.43 423.23 280.37 424.65 282.93 424.29 283.5 424.16 283.77 424.1 283.91 423.34 284.82 422.3 285.71 425.49 288.45 433.65 290.54 434.58 292.78 438.46 293.95 441.98 295.99 444.67 293.95 444.27 291.56 447.97 289.09 451.63 291.01 455.75 292.47 457.39 292.55 457.72 292.62 458.65 292.84 460.4 293.17 464.64 294.6 469.14 292.63 472.44 293.98 475.81 293.33 475.92 293.61 477.36 298.06 475.12 304.17 478 310.5 478.82 313.43 481.73 316.48 483.19 324.17 485.59 325.9 487.12 330.74 489.11 332.84 491.28 333.73 495.58 338.09 495.87 340.83 498.4 343.25 505.07 341.58 508.48 341.37 513.6 340.08 512.67 345.5 509.13 351.43 506.36 356.51 501.59 361.37 498.26 363.41 493.06 368.65 492.06 370.26 490.88 370.82 486.94 376.9 486.16 380.56 487.67 382.1 487.12 385.27 488.18 388.57 488.62 389.14 489.53 389.56 489.69 389.81 490.09 398.73 490.53 399.65 488.31 403.45 482.55 406.46 477.47 411.31 476.92 412.7 478.87 418.81 477.94 422.64 472.68 425.33 472.91 428.32 472.11 431.69 469.09 435.21 467.14 438.76 463.97 442.19 460.03 445.44 455.04 447.18 449.99 446.75 443.51 448.73 440.85 445.97 440.63 442.74 436.46 432.75 434 429.66 432.14 421.81 431.74 416.96 429.81 413.93 427.62 409.24 426.11 407.07 426.02 405.32 426.53 401.58 427.82 396.56 429.75 394.47 430.7 391.14 428.82 386.64 429.66 385.12 427.27 380.02 428.97 379.51 427.07 379.29 426.64 377.59 424.67 375.19 421.32 371.75 419.55 368.07 420.62 367.27 421.26 364.21 421.72 361.4 422.06 359.67 418.97 355.93 413.48 356.98 412.39 356.18 410.77 353.1 409.15 352.26 406.01 352.35 403.59 352.68 402.64 352.97 395.57 355.93 393.11 355.2 393.15 355.11 393.31 355.11 388.87 354.95 383.29 356.84 379.76 355.29 374.49 351.14 372.31 350.07 370.85 348.23 370.54 346.35 369.63 344.55 366.66 342.1 365.64 340.33 362.96 338.91 362.85 337.29 363.29 336.08 361.94 333.68 363.34 330.93 364.36 326.97 363.4 322.74 364.07 320.69 362.21 319.32 362.32 317.87 365.44 311.5 366.97 309.92 368.06 306.16 369.9 304.95 371.29 302.03 374.4 301.02 378.41 296.83 378.25 293.07 380.94 288.43 384.71 286.35 385.92 284.18 386.07 283.77 386.79 281.73 386.88 281.43 390.4 283.15 395.08 283.31 399.89 281.32 402.79 279.43 408.38 278.38 411.75 279.07 414.39 277.85 419.02 278.27 Z M 509.81 394.27 510.7 395.72 511.9 401.03 510.46 403.03 509.68 406.84 506.24 417.44 504.58 423.25 500.22 425.16 497.62 423.76 495.92 416.63 498.31 412.11 498.53 410.42 497.49 405.65 498.51 402.99 502.7 401.76 505.98 399.08 509.81 394.27 Z" fill-rule="evenodd" fill="#2ca02c" stroke="white" opacity="0.25" id="Africa"/>
<path d="M 517.68 329.06 515.75 331.34 514.38 332.08 513.91 332.27 513.76 332.33 513.09 332.54 512.01 332.77 511.21 333.2 509.39 333.68 503.43 336.45 501.21 336.65 499.84 337.84 496.38 337.79 494.7 331.37 494.87 329.71 493.74 327.25 491.39 324.33 490.35 321.8 487.8 320.01 486.65 318.13 486.67 315.55 484.88 311.89 483.21 310.96 482.35 308.52 477.76 301.57 477.47 298.39 477.52 297.85 477.36 298.06 475.92 293.61 475.81 293.33 476.43 292.65 477.83 288.72 479.76 284.58 479.58 283.99 479.56 283.77 479.56 283.72 479.56 283.42 479.67 282.99 479.27 282.03 479.56 281.08 476.7 278.71 472.68 280.75 469.49 278.66 465.81 280.42 464.37 278.96 460.63 278.05 461 277.41 460.74 277.24 460.69 277.16 460.49 277.13 460.34 277.02 460.36 275.36 459.14 274.74 459.27 268.44 462.71 268.44 464.99 266.01 469.27 266.36 473.99 263.67 477.03 263.85 480.71 265.89 485.08 266.92 487.4 266.36 488.25 266.75 488.95 266.86 489.27 266.8 492.01 265.15 491.97 261.75 490.53 260.54 489.82 260.36 489.09 259.78 488.95 259.68 488.62 259.44 488.84 259.05 488.95 259 489 258.98 490.11 259.11 492.17 260.05 494.78 260.2 497.05 261.48 501.37 262.29 502.92 264.05 506.09 266.07 507.66 264.2 510.35 267.92 508.33 274.07 509.44 276.65 511.12 276.96 511.23 277.04 511.3 277.16 511.59 277.68 512.01 278.07 513.32 278.82 513.91 278.97 514.73 279.18 515.69 279.15 519.5 277.16 519.46 272.87 517.82 267.21 521.27 267.01 519.37 263.46 516.35 264.38 512.67 257.08 513.98 253.42 516.44 253.3 517.79 250.79 517.31 248.34 513.45 247.82 509.13 250.31 506.64 245.72 503.43 243.53 504.16 238.65 508.2 236.05 512.52 232.24 518.24 232.95 523.69 236.05 525.22 234.58 529.36 234.44 532.58 236.12 536.08 235.14 534.02 232.34 535.95 223.53 538.54 223.68 550.05 220.4 552.91 218.39 556.81 218.7 558.14 223.11 560.2 222.7 564.5 225.3 569.07 222.55 572.59 226.45 577.31 235.46 584.78 234.68 589.06 239.51 593.56 241.24 594.65 241.01 598.72 239.1 603.29 235.81 608.92 236.19 609.72 238.06 615.48 239.06 617.46 237.86 617.12 233.41 619.21 230.65 626.34 233.41 626.74 236.09 629.71 237.65 633.59 236.5 639.22 238.31 640.55 240.39 644.28 240.97 650.06 239.78 653.37 237.2 658.64 238.75 661.28 239.81 664.12 238.1 667.51 231.2 667.55 226.82 674 225.41 679.41 228.4 683.31 239.44 689.39 242.02 690.38 245.92 698.05 243.7 696.72 250.59 694.68 254.46 690.56 254.84 690.96 259.57 689.34 262.11 689.7 262.83 687.63 264.59 687.52 267.1 682.78 270.24 684.55 273.56 686.7 277.35 686.88 282.22 682.23 285.04 680.36 284.96 680.9 281.49 680.7 275.93 678.08 276.07 677.24 273.73 677.88 270.96 675.66 269.6 671.16 271.42 671.05 268.03 668.59 266.98 663.74 271.96 661.08 272.1 661.59 274.8 663.65 275.19 664.78 277.77 667.66 275.79 670.28 278.21 668.19 279.21 664.27 283.55 666.44 285.39 668.86 290.35 670.17 294.36 669.55 300.87 668.44 301.07 664.98 307.79 663.03 310.16 658.18 314.21 653.3 315.19 652.74 315.26 651.7 315.96 651.55 316.01 648.13 316.84 644.25 318.77 642.81 317.58 639.33 317.65 634.92 321.38 634.12 323.66 637.58 328.48 641.22 331.99 642.28 335.47 642.06 340.33 637.76 343.31 636.23 345.03 632.51 347.41 632.53 344.62 631.49 343.29 628.65 342.16 628.16 340.36 625.48 338.13 623.57 338.09 621.64 339.31 619.83 343.5 621.31 345.81 622.66 349.96 626.32 352.64 629.25 355.73 629.29 360 631.18 363.21 627.72 362.37 624.55 360.09 623.4 357.93 621.93 352.19 618.79 348.12 617.77 347.76 618.79 343.79 618.52 337.06 616.81 333.18 616.5 329.29 614.17 329.27 611.45 331.2 608.83 330.26 609.67 326.92 608.37 322.55 604.64 319.37 602.78 314.57 600.14 316.72 597.39 316.27 593.29 317.58 591.25 321.42 588.93 322.39 586.42 325.25 582.56 328.02 582.34 329.27 577.98 331.23 577.44 332.7 578.09 336.61 575.07 345.86 571.84 348.53 570.62 347.79 569.24 344.4 566.69 339.56 564.79 333.82 562.88 330.44 561.09 321.63 561.55 319.91 559.64 318.49 557.12 319.56 552.97 316.01 551.11 312.01 550 312.13 547.25 307.81 543.33 308.79 536.52 308.74 530.89 308.2 527.08 307.29 526.31 304.52 524.93 303.8 521.7 305.39 519.06 304.97 516.33 302.75 514.54 302.2 514.2 302.03 513.91 301.73 513.67 301.47 510.79 296.19 507.62 296.83 506.36 296.78 507.38 300.44 508.17 302.5 510.81 304.72 510.9 306.5 512.61 309.75 513.65 310.18 513.74 310.84 513.91 310.89 513.94 310.89 514.11 310.92 514.22 310.96 514.31 310.96 519.26 311.5 524.31 306.63 524.8 307.64 525 309.28 526.84 311.86 529.85 312.54 532.56 315.96 529.61 320.27 524.73 326.04 523.27 326.18 522.05 328.15 517.68 329.06 Z M 462.09 263.82 463.8 266.77 457.72 267.48 458.34 264.56 462.09 263.82 Z M 676.91 386.39 677.24 387.67 674.96 387.29 675.84 386.95 676.91 386.39 Z M 668.24 315 666.16 313.72 668.44 309.06 670.23 309.09 668.24 315 Z M 577.29 344.64 578.91 345.63 581.48 350.29 581.26 351.81 578.93 353.22 577.55 352.84 576.69 348.55 577.29 344.64 Z M 668.44 324.48 670.32 325.25 671.59 327.97 669.08 332.12 669.99 334.9 668.66 335.97 666.18 333.2 665.76 330.93 666.86 330.05 666.8 326.76 668.44 324.48 Z M 660.04 347.72 664.96 342.07 665.31 343.09 660.04 347.72 Z M 679.32 345.74 680.61 350.2 677.97 351.39 678.1 353.93 675.33 352.66 675.33 350.05 673.74 349.13 676.8 346.53 679.32 345.74 Z M 643.01 362 645.92 363.13 647.42 360.24 650.46 359.49 652.83 356.31 654.98 355.62 655.23 355.62 658.33 351.88 659.99 351.65 661.83 353.48 664.18 354.44 660.61 357.24 659.73 358.53 661.72 361.35 662.01 364.57 660.57 365.74 660.5 368.27 658.35 369.75 658.4 371.6 657.98 372.22 657.97 372.28 657.95 372.51 657.86 372.93 657.04 374.48 654.23 375.75 653.9 374.24 652.88 373.77 652.26 374.17 651.84 373.59 651.24 373.7 650.88 373.34 650.55 372.99 650.42 373.57 647.87 374.33 647.85 373.17 644.34 372.99 643.7 369.11 641.9 367.49 641.42 364.74 643.01 362 Z M 718.8 257.29 721.64 258.4 717.23 263.67 713.22 260.11 714.63 252.95 718.8 257.29 Z M 690.76 287.34 692.56 289.35 691.14 293.12 688.88 292.6 690.76 287.34 Z M 713.06 265.6 714.72 270.06 714.55 272.16 712.39 275.45 711.6 280.23 712.26 281.62 709.89 283.69 708.67 282.82 706.32 284.66 703.42 284.1 701.29 287.45 698.67 284.2 692.07 286.14 691.16 285.17 694.64 282.2 699.63 281.54 700.76 282.22 703.02 278.82 706.61 277.49 709 274.91 710.42 271.3 710.16 267.86 713.06 265.6 Z M 613.89 354.89 616.24 354.93 617.92 357.42 621.07 359.44 622.82 361.64 623.99 361.48 626.59 364.23 628.47 365.41 629.91 368.47 633.64 371.77 634.61 374.5 634.57 379.11 631.86 379.6 625.17 373.53 623.55 371.24 622.35 368.34 619.8 365.72 618.47 362.28 616.57 361.26 614.95 358.56 611.67 355.93 613.89 354.89 Z M 662.1 385 659.48 386.75 659 385.47 662.1 385 Z M 676.84 364.28 675.82 365.45 668.24 365.52 666.42 365.9 666.13 367.74 667.49 369.53 669.17 368.58 669.81 370.62 670.1 371.66 670.37 372.13 670.42 372.28 670.46 372.39 670.61 372.59 671.08 372.95 671.32 373.59 670.99 374.53 672.43 376.15 666.98 374.81 666.69 378.8 664.58 378.28 665.16 375.44 663.3 372.62 663.45 372.37 663.58 372.33 663.66 372.28 663.69 372.26 663.98 371.99 664.56 370.55 666.13 364.97 668.39 363.55 669.52 364.12 674.53 364.63 676.84 364.28 Z M 638 379.84 640.91 381.58 644.79 381.94 645.67 380.76 649.46 381.89 650.02 383.28 650.51 383.53 650.88 383.62 651.04 383.66 653.61 383.82 653.56 385.21 651.04 384.94 650.88 384.94 650.77 384.94 650.53 384.98 649.97 385.18 645.19 384.62 642.24 383.62 640.4 383.84 636.36 382.99 633.81 381.56 635.12 379.62 638 379.84 Z M 712.48 372.28 712.48 377.24 712.51 386.8 708.32 383.37 706.45 379.13 704.37 377.62 699.69 376.37 696.26 373.95 695.37 375.5 693.38 373.1 694.22 372.68 694.6 372.39 694.68 372.28 694.88 372.02 693.29 371.46 690.96 368.4 694 367.29 696.97 368.14 697.45 371.62 698.1 372.22 698.43 372.13 698.45 372.24 698.46 372.28 698.47 372.51 698.59 372.99 699.45 373.93 700.34 373.93 701.16 373.15 701.49 372.55 701.9 372.28 702 372.22 703.95 370.58 705.48 369.78 709.87 371.71 712.48 372.28 Z M 645.81 321.26 644.9 324.03 642.77 325.41 640.95 324.66 640.93 322.79 642.3 321.47 645.81 321.26 Z" fill-rule="evenodd" fill="#ff7f0e" stroke="white" opacity="0.25" id="Asia"/>
<path d="M 241.91 340.02 241.57 342.05 245.65 340.88 247.43 340.99 249.55 343.16 253.15 342.8 256.25 343.99 258.42 342.73 259.24 342.77 259.93 342.62 260.26 342.59 260.33 342.6 260.46 342.62 261.02 342.53 260.7 343.07 261.86 344.71 263.65 344.55 266.96 347.47 268.77 348.55 273.23 352.95 273.23 354.17 278.46 353.19 279.95 354.6 282.74 354.44 285.51 357.49 286.46 357.42 287.42 361 289.39 363.92 286.33 366.7 284.84 370.02 287.19 368.58 287.64 370.4 288.28 370.97 291.41 370.55 293.33 368.14 296.24 368.22 301.03 370.38 301.78 372.13 304.82 371.97 308.41 373.02 311.42 372.84 314.7 374.75 317.61 377.39 321.2 377.88 322.84 382.7 321.66 387.04 318.12 390.62 316.45 393.52 313.39 396.66 313.82 402.11 311.91 408.56 312 410.06 306.81 418.79 301.05 419.05 300.98 419.73 296.1 421.91 292.38 425.77 291.83 432.65 289.72 434.63 288.5 437.36 286.6 437.18 284.8 439.82 283.05 444.78 281.7 446.03 278.31 449.22 271.81 448.01 270.55 446.48 270.99 442.67 270.21 445.81 270.81 448.55 272.99 449.92 272.81 451.86 274.38 454.47 272.43 457.94 267.38 460.06 262.41 460.29 261.68 465.98 258.64 466.75 255.58 466.16 257.18 472.45 255.3 474.19 254.5 478.47 251.62 479.25 250.15 481.76 254.12 487.9 251.2 490.4 249.47 494.79 246.52 498.17 248.29 503.21 246.52 502.66 243.06 504.7 240.18 508.03 235.94 504.23 236.19 499.51 233.62 497.61 235.24 494.75 234.53 487.11 235.63 484.72 232.29 483.56 236.96 479.95 238.72 472.39 238.6 467.9 236.03 466.66 237.67 461.15 237.03 459.12 237.7 455.36 239.91 449.68 241.62 443.16 241.04 438.21 241.46 433.54 243.39 427.03 243.59 419.05 244.63 415.29 243.9 407.89 241.44 405.42 233.53 401.07 230.89 398.14 231.13 396.75 227.92 391.69 225.42 385.68 222.42 381.27 220.87 380.44 219.94 375.88 221.96 374.01 220.67 368.89 222.38 366.52 222.47 364.77 225.19 363.26 225.73 361.37 227.83 360.11 228.94 357.93 228.52 352.06 228.14 351.63 227.54 350.63 227.35 350.45 227.32 350.43 228.85 348.64 228.5 347.23 229.56 347.32 232.33 345.45 232.26 343.77 234.1 341.71 237.5 341.28 241.04 338.75 241.91 340.02 Z M 247.83 512.51 243.73 512.36 242.9 508.82 245.94 503.68 247.87 504.26 249.24 507.62 255.14 512.63 247.83 512.51 Z M 289.99 367.01 292.76 367.27 291.54 369.78 288.04 370.46 287.39 368.51 287.73 367.09 289.99 367.01 Z" fill-rule="evenodd" fill="#9467bd" stroke="white" opacity="0.25" id="South America"/>
<path d="M 394.08 232.45 389.8 232.02 393.13 226.49 393.17 220.06 389.54 218.27 386.63 212.94 388.87 205.44 392.77 205.1 392.46 209.05 396.05 209.96 394.26 213.75 395.52 216.74 397.14 220.79 403.46 230.76 400.47 235.49 393.35 235.63 394.08 232.45 Z M 384 219.55 386.21 223.38 386.63 227.7 384.97 230.33 380.47 232.59 378.65 229.09 377.83 222.66 381.67 219.32 384 219.55 Z M 484.7 247.88 478.09 249.98 477.58 252.25 478.63 254.24 475.17 256.46 474.46 251.07 470.87 249.11 468.27 249.63 465.86 253.74 463.95 255.43 463.37 258.46 460.91 262.32 462.09 263.82 458.34 264.56 457.72 267.48 454.04 266.95 452.45 268.96 450.16 268.15 451.54 273.44 453.22 274.66 451.4 275.42 451.43 276.37 452.07 276.88 451.54 277.04 451.43 277.13 451.38 277.16 451.34 277.18 451.29 277.16 451.21 277.1 451.21 276.88 450.85 276.65 450.47 277.02 450.56 277.16 450.65 277.3 450.98 278.05 451.14 278.74 447.84 277.88 448.08 277.24 448.07 277.16 448.06 277.02 447.81 276.6 446.88 275.53 446.06 272.45 444.33 270.44 443 268.79 442.87 264.11 441.05 262.44 439.17 261.02 438.99 260.9 433.52 256.86 432.92 254.31 430.1 252.92 430.41 252.7 427.11 253.8 427.49 256.99 429.95 258.86 431.06 261.66 435.49 265.39 437.53 268.27 434.78 269.63 430.43 265.98 428 265.3 423.3 260.81 422.72 258.13 418.95 256.58 416.6 258.37 416.49 258.43 416.36 258.49 413.57 260.51 408.98 258.92 407.12 262.44 407.2 263.91 402.28 266.51 399.27 270.99 400.44 273.16 398.56 274.88 398.18 276.49 397.05 276.54 396.36 277.02 396.25 277.16 396.01 277.46 395.32 278.71 390.31 278.88 387.52 280.78 385.61 278.24 383.57 277.6 380.94 277.77 380.05 278.02 380.21 277.63 380.38 277.16 380.47 276.9 380.25 273.87 378.99 273.04 380.76 267.42 380.54 263.91 379.65 260.2 383.91 258.92 390.45 259.47 396.03 259.47 396.72 259.02 397.45 250.4 393.86 246.51 389.74 244.59 392.84 242.09 396.81 242.76 402.77 238.13 405.59 234.3 407.43 233.3 409.38 233.27 410.37 228.14 413.43 225.93 415.96 226.41 419.73 224.32 419.22 220.29 418.02 217.57 419.11 211.52 423.36 210.13 421.59 220.56 425.27 223.95 427.89 221.94 431.61 224.73 431.5 224.21 431.5 223.91 440.61 220.52 443.45 221.97 446.33 218.78 446.46 218.82 447.08 218.89 446.66 215.71 446.71 212.7 449.99 209.01 453.91 208.39 452.07 202.74 456.55 200.82 462.09 201.52 461.62 196.82 452.58 199.37 447.53 196.55 446.86 186.55 456.06 175.9 453.55 170.85 447.7 173.27 447.59 178.38 441.25 184.4 437.97 192.06 438.24 196.1 442.05 200.29 437.22 205.36 435.47 215.11 432.76 215.35 429.53 218.54 425.38 207.34 425.25 203.43 421.32 203.82 415.52 207.76 412.66 205.65 411.35 199.99 410.93 191.45 412.26 188.62 421.3 181.38 428.77 169.71 429.04 166.85 440.12 151.43 440.54 149.42 454.13 141.47 464.51 140.4 468.43 147.51 479.49 151.24 485.19 156.32 487.71 158.05 488.45 157.82 488.76 158.35 488.95 158.6 489.13 158.82 489.51 159.47 490.82 160.17 491.3 165.22 489.82 167.35 488.95 168.12 488.89 168.18 487.09 169.11 485.12 169.49 478.71 167.62 476.28 173.05 482.13 174.11 487.71 177.41 488.27 171.98 488.95 171.49 489.4 171.18 490.37 169.88 491.95 169.17 493.57 166.96 497.76 168.51 497.05 162.84 497.93 155.24 506.11 160.93 516.49 154.93 519.5 157.1 526.64 155.17 535.26 147.06 548.52 153.22 548.34 137.53 553.04 127.56 561.4 127.42 562.02 136.42 573.96 129.63 579.17 128.9 578.62 120.69 592.61 118.16 591.08 110.51 599.9 103.83 614.75 100.76 630.56 83.22 634.32 90.62 646.91 93.64 651.84 106.47 644.41 117.12 652.83 120.61 662.56 120.53 668.22 125.54 675.73 119.27 685.71 123.64 684.53 131.81 687.63 138.63 691.62 140.13 701.2 135.09 710.29 136.07 709.45 128.82 718.14 127.34 731.99 131.81 738.06 140.6 745.58 138.76 754.07 141.81 754.29 147.51 769.78 149.29 775.97 153.71 779.05 152.11 777.92 145.37 789.96 146.73 799 152.54 799 174.8 795.72 177.25 797.05 188.57 792.26 186.94 783.06 192.71 778.19 197.32 775.13 196.55 762.11 200.21 759.01 207.51 762.07 215.07 759.28 215.63 759.34 220.86 754.82 223 754.45 226.04 751.59 227.92 750.46 231.77 747.46 234.75 746.13 228.36 744.8 218.54 745.76 213.19 749.01 208.68 762.09 195.64 761.34 191.07 756.37 195.87 752.63 190.46 749.06 191.03 738.88 203.86 731.7 200.25 726.98 202.44 716.05 202.57 711.33 208.64 705.21 215.43 703.22 217.21 702.49 217.64 702.24 217.92 701.96 218.39 701.87 218.54 699.83 220.13 703.24 221.36 704.41 225.44 709.69 222.66 713.44 226.78 711.4 236.23 710.71 243.16 705.21 251.97 699.54 259.11 696.39 261.23 692.13 259.93 689.7 262.83 689.34 262.11 690.96 259.57 690.56 254.84 694.68 254.46 696.72 250.59 698.05 243.7 690.38 245.92 689.39 242.02 683.31 239.44 679.41 228.4 674 225.41 667.55 226.82 667.51 231.2 664.12 238.1 661.28 239.81 658.64 238.75 653.37 237.2 650.06 239.78 644.28 240.97 640.55 240.39 639.22 238.31 633.59 236.5 629.71 237.65 626.74 236.09 626.34 233.41 619.21 230.65 617.12 233.41 617.46 237.86 615.48 239.06 609.72 238.06 608.92 236.19 603.29 235.81 598.72 239.1 594.65 241.01 593.56 241.24 589.06 239.51 584.78 234.68 577.31 235.46 572.59 226.45 569.07 222.55 564.5 225.3 560.2 222.7 558.14 223.11 556.81 218.7 552.91 218.39 550.05 220.4 538.54 223.68 535.95 223.53 534.02 232.34 536.08 235.14 532.58 236.12 529.36 234.44 525.22 234.58 523.69 236.05 518.24 232.95 512.52 232.24 508.2 236.05 504.16 238.65 503.43 243.53 506.64 245.72 509.13 250.31 505.09 253.23 503.65 255.62 505.2 260.6 507.66 264.2 506.09 266.07 502.92 264.05 501.37 262.29 497.05 261.48 494.78 260.2 492.17 260.05 490.11 259.11 489 258.98 488.95 259 488.84 259.05 488.62 259.44 483.28 255.59 484.7 247.88 Z M 1.44 152.79 11.31 160.35 12.59 165.5 16.01 164.43 17.51 164.66 18.13 164.43 18.67 164.43 19.13 164.64 19.18 164.66 22.75 168.73 21.93 171.66 20.46 172.52 19.91 172.36 19.2 172.47 19.13 172.48 18.93 172.52 16.49 178.79 11.2 176.21 9.67 172.68 2.44 172.41 1 174.8 1 173.53 1 172.2 1 170.91 1 169.55 1 168.23 1 166.85 1 165.5 1 164.09 1 162.72 1 161.34 1 159.88 1 158.47 1 156.98 1 155.54 1 154.02 1 152.54 1.44 152.79 Z M 550.22 97.91 536.01 106.3 526.26 122.25 520.14 120.93 526.33 105.69 549.69 90.53 550.22 97.91 Z M 522.63 122.71 522.58 132.89 526.11 139.92 519.08 140.73 516 131.38 517.93 123.94 522.63 122.71 Z M 710.44 101.67 721.15 106.65 708.6 111.86 703.59 106.65 710.44 101.67 Z M 716.45 222.24 717.63 226.97 717.34 230.8 719.8 240.5 717.21 240.87 716.03 244.66 717.6 249.6 714.39 249.95 715.17 244.86 714.48 242.56 715.23 233.87 714.15 232.02 714.37 226.19 716.45 222.24 Z M 437.22 58.22 445.69 67.97 437.02 94.7 426.09 72.46 437.22 58.22 Z M 434.54 274.69 433.47 276.82 433.49 277.04 433.51 277.16 433.52 277.18 433.76 277.43 433.63 277.52 433.89 278.07 433.49 278.96 432.14 278.66 431.34 277.82 430.83 277.82 430.59 277.71 430.12 277.41 429.67 277.16 429.61 277.13 429.19 276.76 428.15 276.51 427.58 275.81 434.54 274.69 Z M 421.35 267.04 421.32 271.47 418.66 271.87 418.15 267.71 421.35 267.04 Z M 365.55 168.56 369.81 172.57 366.71 178.79 358.66 183.27 351.61 179.25 349.9 175.01 352.79 170.47 365.55 168.56 Z" fill-rule="evenodd" fill="#d62728" stroke="white" opacity="0.25" id="Europe"/>
<path d="M 736.76 376.04 737.24 378.39 733.45 380.44 731.72 380.47 728.82 378.8 733.9 378.75 736.2 377.33 736.76 376.04 Z M 712.51 386.8 712.48 377.24 712.48 372.28 720.35 375.06 723.12 377.19 723.08 378.48 723.26 378.61 723.3 378.64 724.52 378.97 725.92 379.64 727 379.86 726.27 382.9 728.35 384.51 729.35 386.64 731.95 389.56 727.56 388.93 723.7 384.47 723.26 384.28 723.21 384.26 723.03 384.18 722.46 384.13 721.24 383.79 720.33 383.33 718.34 384.73 717.8 386.44 716.21 387.27 712.51 386.8 Z M 783.75 467.13 786.32 468.49 782.13 474.8 780.03 475.76 778.39 480.58 776.15 483.36 773.24 483.56 769.58 482.24 769.7 479.73 773.22 475.57 779.12 471.36 782.69 464.9 783.75 467.13 Z M 784.08 449.22 786.41 450.09 787.81 454.47 792.7 457.66 795.76 456.81 794.37 460.57 792.24 461.58 792 463.85 789.78 467.25 787.94 463.25 785.54 461.98 787.76 457.12 786.7 453.37 784.08 449.22 Z M 717.38 393.18 718.67 398.64 720.24 398.37 722.06 399.99 722.37 403.38 723.92 406.23 724.7 409.59 726.78 410.3 729.75 412.44 731.84 417.56 734.18 417.9 734.36 420.02 737.95 423.27 739.5 426.12 739.42 429.17 740.44 431.79 739.26 438.6 737.98 442.59 736.51 443.8 732.94 451.67 732.34 456.37 727.8 457.49 723.5 460.23 721.17 457.4 718.18 460 711.2 457.4 709.85 455.59 709.16 452.16 707.05 451.15 706.99 448.76 704.22 445.73 700.69 449.25 697.54 442.88 690.69 440.13 685.84 440.65 682.23 442.11 679.12 442.22 675.15 444.41 674.09 446.29 665.67 446.64 661.88 449.38 658.29 449.38 654.94 447.42 656.42 444.56 656.47 440.62 655.32 438.34 654.83 434.81 652.06 428.32 653.17 425.85 651.41 422.39 651.99 418.04 654.27 416.08 658.71 413.29 660.26 413.46 667.95 410.98 670.97 407 670.79 405.46 672.47 403.43 673.94 403.52 677.48 399.47 681.3 397.25 684.13 399.47 686.79 398.73 689.54 394.27 693.42 393.84 694.11 392.18 698.65 393.25 702.66 393.2 702.77 395.56 701.31 396.25 700.42 400.13 703.2 402.18 708.14 404.51 710.42 406.37 712.17 405.7 713.95 400.27 713.61 397.68 714.06 394.4 715.14 390.92 717.38 393.18 Z M 721.51 465.69 724.34 466.78 728.71 466.16 728.78 469.06 725.56 474.13 722.02 470.88 721.51 465.69 Z" fill-rule="evenodd" fill="#8c564b" stroke="white" opacity="0.25" id="Oceania"/>
<path d="M 111.77 216.42 111.37 219.79 110.55 220.79 107.75 215.35 101.24 205.95 97.18 206.84 89.18 200.43 81.22 199.19 74.44 194.73 71.18 195.42 65.37 202.57 63.67 199.28 58.43 202.05 58.08 207.17 48.86 214.23 48.7 215.67 40.74 219.36 40.55 217.09 44.49 215.03 50.43 209.18 47.37 205.87 42.32 205.02 39.64 199.28 36.67 200.07 33.47 196.82 31.7 192.2 35.56 184.21 38.79 184.75 43.6 181.22 39.1 178.43 31.72 177.35 27.4 171.66 35.45 166.57 41.3 169.55 41.74 164.38 37.51 163.69 31.19 155.9 36.13 152.67 41.17 143.93 52.47 137.25 62.56 140.73 78.14 146.02 87.45 148.34 96.94 153.1 107.05 148.02 114.12 147.95 118.17 144.52 130.61 147.51 138.21 152.17 146.39 154.51 148.01 160.23 156.08 158.59 164.99 152.97 168.38 158.11 174.9 160.29 181.84 159.47 192.79 154.87 186.11 145.31 186.2 137.8 186.89 136.69 188.18 137.11 188.32 136.63 188.42 136.28 188.51 136.07 187.55 135.3 188.97 133.17 193.27 136.28 193.49 136.63 193.78 137.11 193.96 137.66 193.89 140.46 195.96 143.54 194.4 147.95 204.84 153.59 204.49 159.82 208.13 161.51 210.59 147.51 216.86 148.08 217.01 155.78 219.47 163.75 206.51 173.32 204.69 179.4 201.34 180.17 198.77 185.43 195.27 186.16 191.83 192.52 189.88 199.46 190.06 204.03 193.52 204.93 195.51 211.93 199.19 211.07 203.09 212.74 205.91 215.75 211.45 218.78 216.95 219.32 217.59 227.19 218.99 230.04 223.24 233.98 225.9 230.33 223.4 221.06 227.59 218.78 230.09 215.55 230.2 210.87 225.95 204.97 228.63 199.06 226.75 195.42 228.5 187.37 234.53 189.09 236.5 187.85 241.69 194 246.14 195.1 245.54 202.13 250.15 207.05 254.37 203.47 257.02 198.03 259.93 204.2 260.24 204.12 260.33 204.2 260.51 204.59 260.64 205.02 260.33 205.33 260.13 205.53 259.88 205.87 260.17 206.12 260.33 206.03 260.7 205.82 261.26 205.87 263.65 214.43 267.16 218.89 272.76 221.55 273.36 224.51 276.31 226.67 276.53 230.58 273.69 233.02 270.3 233.59 266.82 237.27 264.14 237.44 260.97 237.1 260.46 237.13 260.33 237.13 260.04 237.13 259.82 237.3 255.32 237.03 252.59 237.41 250.66 240.36 247.21 242.12 242.02 248.82 238.23 250.72 234.39 254.56 237.83 251.36 243.68 248.08 248.73 242.79 254.76 240.63 257.56 241.82 255.21 247.85 256.94 250.63 259.71 252.19 260.11 252.09 260.33 252.09 260.55 252.09 261.5 252.6 262.66 251.81 264.72 253.65 261.44 255.06 260.86 255.21 260.33 255.44 260.28 255.46 260 255.46 259.66 255.68 259 256.18 254.28 259.02 253.48 256.52 257.14 253.74 251.22 254.02 243.68 259.66 242.51 262.74 243.95 264.83 238.52 265.89 235.55 267.71 234.92 271.5 231.07 274.29 230.65 278.13 232.04 281.13 230.38 284.18 220.21 291.87 219.3 294.67 221 300.84 222.56 304.77 221.85 308.42 220.23 308.45 216.37 302.18 216.79 299.56 213.71 296.47 212.03 297.32 208.97 295.88 202.92 295.65 199.59 296.37 198.84 298.95 192.32 297.32 189.66 298.34 187.53 300.19 184.63 301.45 183.76 304.37 184.65 306.87 183.5 310.72 183.08 315 183.56 317.44 186.56 322.79 190.41 325.53 196.13 324.24 198.86 322.76 199.72 318.84 204.65 317.39 207.55 317.87 206.11 321 205.47 324.87 204.27 324.83 204.25 329.1 202.96 330.81 204.42 331.18 209.85 330.56 213.22 330.97 215.66 332.88 214.75 336.7 214.6 342.14 216.99 345.16 219.67 346.96 219.7 346.96 220.01 346.93 220.32 346.89 220.8 346.71 222.38 345.99 223.6 345.12 226.92 345.92 228.5 347.23 228.85 348.64 227.32 350.43 224.68 346.46 221.65 348.53 220.78 350.45 220.36 349.35 219.96 349.55 219.85 349.53 219.7 349.45 219.63 349.42 219.34 349.33 218.83 348.39 216.28 348.55 214.6 346.37 210.21 344.44 209.94 341.83 206.4 337.47 205.35 336.52 203.8 337.02 200.28 335.74 196.86 334.9 195.53 333.89 191.81 330.44 189.73 329.59 186.07 331.37 176.45 327.78 174.08 326.02 170.71 325.15 167.38 322.86 165.76 320.31 166.78 317.7 165.5 314.98 159.78 308.77 157.54 307.44 157.94 306.01 155.1 303.5 151.38 299.23 149.34 293.61 145.44 292.08 146.08 296.68 149.8 300.74 150.12 302.23 152.69 305.02 155.37 312.64 151.58 309.62 150.89 306.26 146.3 303.75 147.19 300.72 143.6 297.34 140.36 290.17 139.61 288.14 137.3 286.22 132.94 285.01 132.6 283.37 129.83 279.95 128.41 275.79 125.8 272.73 124.42 268.88 124.98 265.33 123.94 261.3 124.8 258.62 125.38 249.27 123.74 243.63 129.03 244.86 127.82 241.58 116.91 234.12 115.47 230.51 116.02 227.96 111.08 224.77 111.77 216.42 Z M 240.91 325.83 238.76 324.9 238.45 321.4 240.89 321.89 242.73 321.45 247.76 323.82 247.21 324.97 240.91 325.83 Z M 333.61 1 352.3 18.69 374.44 37.54 367.86 46.99 362.85 49.59 363.58 50.8 364.69 51.87 362.29 54.63 356.93 53.72 357.73 67.5 353.54 74.27 355.16 86.93 351.5 94.79 356.75 102.3 357.28 114.52 353.16 116.39 350.59 131.6 352.3 142.61 345.96 138.42 345.74 138.15 345.56 137.94 345.07 137.46 344.52 137.18 343.12 135.79 342.94 138.22 337.96 140.13 340.7 142.94 341.44 144.65 343.21 143.8 345.14 144.13 345.74 144.43 346.71 144.92 350.59 145.89 348.82 146.86 346.93 148.91 346.25 148.72 346.31 149.42 346.14 149.67 345.8 149.86 345.74 149.92 345.16 150.43 344.87 150.61 343.39 152.11 341.61 154.26 326.5 160.64 324.19 166.18 319.56 170.58 312.26 173.37 310.11 181.68 306.57 187.37 306.66 190.75 303.97 199.54 297.92 196.46 293.58 196.01 285.91 182.13 280.57 163.47 282.43 154.81 286.4 154.02 288.06 146.48 286.66 139.65 276.6 135.09 278.59 125.69 275.62 120.53 270.28 102.93 259.37 96.97 248.56 99.3 238.89 76.04 253.77 67.73 251.48 51.74 265.14 30.83 333.61 1 Z M 218.59 313.7 221.23 313.84 225.57 315.6 230.09 318.2 232.15 318.61 233.48 321.47 227.72 321.56 225.68 317.63 221.56 316.34 218.63 316.01 218.59 313.7 Z M 143.86 87.03 142.38 94.41 133.18 101.76 128.35 99.39 136.02 87.53 143.86 87.03 Z M 159.96 99.57 166.19 102.39 152.33 113.19 146.92 106.91 139.54 107.26 143.8 96.03 153.84 104.18 159.96 99.57 Z M 146.15 128.16 150.07 125.16 159.05 128.82 165.88 125.61 168.6 135.44 168.69 136.49 168.68 136.63 168.67 136.83 168.62 137.11 168.38 137.73 168.2 138.76 169.58 141.07 174.88 145.18 170.64 153.59 164.72 151.43 156.26 154.69 149.23 155.54 147.99 151.18 141.74 149.8 138.85 138.35 141.94 137.11 138.57 136.76 138.34 136.63 138.01 136.42 139.01 134.88 137.61 135.02 136.24 134.17 136.35 132.53 140.07 125.77 146.15 128.16 Z M 134.58 116.39 139.52 115.42 144.17 121.55 136.31 127.49 133.02 135.09 130.12 136.42 129.96 136.63 129.21 137.6 127.7 138.76 126.49 137.94 126.04 136.63 126.02 136.56 125.84 136.07 125.11 134.73 121.23 131.45 125.58 119.11 134.58 116.39 Z M 245.96 11.25 262.17 27.98 235.01 72.46 223.78 88.64 211.27 97.35 204.73 83.33 207.57 71.9 213.47 69.72 211.38 61.96 209.03 60.36 209.15 49.72 200.83 34.69 222.33 13.24 245.96 11.25 Z M 178.33 117.68 183.7 118.16 185.85 133.67 183.96 135.09 182.37 134.88 182.32 136.42 182.17 136.63 181.86 137.04 181.3 137.39 180.57 136.9 180.17 136.9 180.06 136.76 179.97 136.63 179.93 136.56 176.76 131.09 175.12 121.78 178.33 117.68 Z M 211.76 173.8 218.12 177.04 210.48 184.6 208.55 177.41 211.76 173.8 Z M 183.43 95.74 182.5 108.72 172.13 103.74 177.47 94.41 183.43 95.74 Z M 196.31 41.78 205.66 52.27 207.19 58.48 211.45 65.36 203.18 78.34 195.29 77.03 185.49 55.28 196.31 41.78 Z M 190.99 91.51 202.1 97.35 204.49 104.54 213.96 101.76 223.42 105.07 222.09 112.53 204 113.28 197.15 111.94 190.99 91.51 Z M 193.47 115.99 199.72 118.32 195.8 126.97 189 132.24 187.98 119.91 193.47 115.99 Z M 277.06 232.74 275.31 237.82 276.58 240.09 280.61 240.09 280.41 242.19 283.16 245.72 278.39 246.9 275.38 245.98 268.95 246.31 268.42 245.32 274.71 233.23 277.06 232.74 Z M 208.06 139.38 212.05 138.83 212.23 136.97 212.28 136.63 212.31 136.42 212.34 135.37 209.57 132.53 211.54 122.48 219.1 119.67 222.07 126.97 233.11 128.97 235.08 134.81 241.2 135.86 241.6 136.28 241.84 136.63 241.89 136.69 242.11 137.11 242.13 137.8 240.98 139.11 243.41 139.38 248.16 142.08 251.11 147.38 249.18 155.17 253.19 158.7 256.96 159.59 258.11 162.26 260.26 162.89 259.66 164.32 258.8 165.28 258.93 165.28 259.31 165.05 260.04 164.71 260.33 164.59 260.44 164.55 261.72 164.77 262.63 164.15 264.12 166.23 261.1 171.77 260.42 171.88 260.33 171.83 259.97 171.66 259.33 170.64 259.42 171.39 259.6 171.88 259.46 174.54 256.65 174.27 251.95 166.74 250.75 173.27 255.32 177.1 257 184.01 252.77 190.61 242.06 185.09 237.21 178.18 229.94 179.1 226.88 175.48 236.52 171.07 235.15 168.67 239.91 162.84 238.05 157.82 228.01 147.06 217.92 147.12 205.16 144.46 203.2 142.87 201.9 138.97 205.29 139.85 205.22 138.01 201.79 137.04 201.27 136.63 201.19 136.56 200.83 136.07 200.43 132.82 202.21 124.25 207.88 126.89 208.88 133.17 209.92 135.02 210.39 135.58 210.85 136.07 211.34 136.63 211.41 136.69 211.54 137.04 208.06 139.38 Z" fill-rule="evenodd" fill="#9467bd" stroke="white" opacity="0.25" id="North America"/>
<path d="M 799 764.19 37.42 752.76 46.57 731.6 60.83 711.75 54.38 691.21 71.67 687.95 71.53 673.13 55.95 663.28 48.66 650.29 54.38 643.36 68.12 650.5 76.52 642.66 76.39 631.86 99.95 621.38 116.58 621.63 130.59 621.89 136.97 618.89 147.06 623.84 163.66 626.96 175.56 619.71 177.36 610.59 199.84 607.75 217.83 614.59 221.69 607.45 229.03 614.27 249.27 607.45 251.86 601.18 247.69 583.26 250.66 583.13 252.15 571.77 250.4 569.36 256.69 562.46 254.5 575.29 261.57 584.21 264.87 595.19 266.16 607.98 259.55 627.92 243.61 639.64 221.58 667.51 230.43 667.63 233.22 686.55 254.65 696.04 268.06 730.03 280.32 707.6 292.8 702.63 303.2 708.74 314.06 687.67 334.99 678.1 333.61 670.91 319.67 661.1 322.22 650.92 335.87 636.3 346.2 630.78 356.8 628.72 364.98 609.05 374.51 603.51 375.99 597.34 386.43 595.81 398.01 595.95 411.33 591.25 418.89 589.98 425.94 591.99 428.66 588.27 435.05 588.99 446.71 592.46 460.32 592.93 472.31 586.9 472.2 581.01 486.14 586.97 488.36 580.39 494.92 575.24 502.85 572.29 507.84 573.29 509.17 568.39 515 563.28 522.56 562.9 531.34 571.48 541.2 571.65 551.46 573.87 555.12 577.27 554.35 582 549.12 588.66 553.37 591.52 548.27 607.53 558 597.83 559.38 591.59 563.9 585.23 572.5 581.01 574.52 576.19 587.29 569.36 604.09 565.98 608.28 566.98 617.81 565.76 624.93 562.9 630.42 563.12 642.64 568.22 645.85 563.61 650.71 562.08 656.34 567.43 664.07 570.85 679.01 565.15 682.71 569.01 686.48 568.96 690.27 564.21 695.79 563.61 717.98 568.05 723.59 572.29 726.05 576.73 734.87 576.79 754.18 583.83 760.59 588.86 771.45 592.26 777.32 600.17 775.84 608.29 765.26 615.96 760.27 625.48 760.78 639.93 764.49 653.04 757.99 660.07 751.94 679.67 777.56 730.42 797.67 745.53 799 748.64 799 764.19 Z M 299.76 661.55 303.51 678.36 279.95 687.53 288.52 668.83 291.21 653.15 299.76 661.55 Z M 244.72 581.75 248.58 592.93 246.58 604.39 239.03 596.23 242.2 593.41 240.69 580.2 244.72 581.75 Z" fill-rule="evenodd" fill="#1f77b4" stroke="white" opacity="0.25" id="Antarctica"/>
</g>
</svg>