<?xml version="1.0"?>
<svg xmlns="http://www.w3.org/2000/svg" version="1.2" baseProfile="tiny" width="800" height="765" viewBox="0 0 800 765" stroke-linecap="round" stroke-linejoin="round">
<g id="ne_50m_admin_0_map_units">
<path d="M 419.01 278.37 421.48 277.25 423.43 278.53 423.48 281.26 424.65 283.03 422.52 286.77 425.5 288.54 433.64 290.63 435.74 293.57 438.46 294.04 441.98 296.08 444.67 294.05 444.17 292.13 445.71 290.13 447.96 289.19 451.62 291.09 455.75 292.55 460.4 293.27 464.44 294.69 469.15 292.73 471.16 294.01 475.81 293.42 475.91 293.71 477.37 298.16 476.25 301.86 474.36 302.15 475.28 305.27 478.01 310.61 479.13 314.31 481.73 316.59 483.06 324.1 485.58 326.01 487.57 331.73 491.27 333.83 495.58 338.19 495.86 340.93 498.39 343.34 505.08 341.66 508.48 341.47 513.62 340.18 512.66 345.6 509.39 351.06 506.35 356.61 502.08 361.1 498.27 363.51 493.06 368.75 492.06 370.35 490.87 370.92 486.94 377 486.05 379.64 487.5 381.88 487.12 385.38 488.19 388.68 489.69 389.92 489.95 394.83 489.91 401.32 486.64 404.78 482.56 406.56 477.47 411.41 476.91 412.81 478.86 418.91 477.93 422.74 472.69 425.44 472.9 428.41 471.57 432.85 469.46 434.77 467.14 438.85 461.76 444.3 458.59 446.17 455.03 447.27 452.28 446.78 443.52 448.84 439.63 444.06 440.37 440.86 436.46 432.84 434.01 429.75 432.15 421.91 432.2 418.29 427.62 409.33 426.1 407.17 426.03 405.42 426.53 401.69 427.82 396.66 429.74 394.57 430.7 391.25 428.81 386.73 429.66 385.21 427.27 380.12 428.97 379.61 427.07 379.38 426.64 377.7 424.67 375.28 421.63 372.18 419.55 368.16 420.61 367.37 421.26 364.3 421.73 361.48 421.89 359.25 418.97 356.04 413.47 357.07 412.39 356.28 410.78 353.21 409.15 352.35 406 352.44 403.6 352.78 402.63 353.07 395.56 356.02 393.1 355.3 393.16 355.21 393.31 355.2 387.66 355.3 383.28 356.94 379.76 355.37 374.49 351.24 371.45 349.12 370.53 346.45 369.63 344.65 366.65 342.19 365.64 340.42 362.96 338.99 362.84 337.38 363.29 336.19 361.94 333.78 363.35 331.03 364.36 327.08 363.39 322.83 364.07 320.79 362.21 319.42 362.31 317.96 364.07 313.95 366.66 310.43 368.05 306.25 369.91 305.05 371.3 302.11 374.66 300.94 378.57 296.55 378.26 293.15 379.51 290.15 381.6 288.03 384.7 286.45 386.87 281.54 390.4 283.24 395.08 283.4 400.11 281.23 402.79 279.53 408.38 278.49 411.52 279.09 414.38 277.96 419.01 278.37 Z M 509.81 394.37 510.69 395.82 511.9 401.11 510.46 403.12 509.68 406.93 506.2 417.72 504.58 423.34 500.01 425.19 497.61 423.84 495.91 416.72 498.06 412.75 498.53 410.51 497.49 405.75 498.59 403.03 502.7 401.87 505.98 399.18 509.81 394.37 Z" fill-rule="evenodd" id="Africa"/>
<path d="M 517.67 329.16 515.99 329.98 514.39 332.18 509.39 333.79 503.72 336.46 501.21 336.75 499.84 337.94 496.37 337.89 494.69 331.45 494.87 329.8 492.55 326.28 490.35 321.91 487.81 320.11 486.66 318.23 486.66 315.64 485.26 312.46 483.22 311.06 482.35 308.62 477.98 301.81 477.47 298.48 477.52 297.96 477.37 298.16 475.91 293.71 475.81 293.42 476.42 292.74 477.82 288.8 479.75 284.68 479.56 281.18 476.7 278.79 472.7 280.86 469.5 278.75 465.81 280.53 462.36 278.12 460.62 278.14 459.15 274.84 459.88 272.89 457.88 271.23 459.27 268.54 462.71 268.53 465 266.11 469.28 266.47 474 263.77 479.91 264.77 480.93 266.01 485.08 267 489.25 266.9 492.01 265.26 491.97 261.85 488.62 259.54 494.03 260.14 499.46 261.55 502.92 264.15 506.09 266.16 507.67 264.29 510.34 268 508.33 274.17 508.8 276.34 513.31 278.91 515.69 279.24 519.51 277.24 519.41 272.72 516.89 268.54 521.27 267.1 519.36 263.55 516.36 264.48 512.67 257.17 513.97 253.53 516.44 253.4 517.78 250.88 517.3 248.42 513.44 247.91 509.13 250.41 506.64 245.83 503.43 243.62 504.91 237.28 508.19 236.14 512.59 232.16 518.23 233.04 520.63 235.52 529.36 234.52 532.58 236.21 536.08 235.23 533.15 231.27 537.28 224.02 550.9 220.15 552.9 218.48 556.8 218.81 557.59 223.01 565.04 225.14 569.06 222.63 572.24 226.14 577.3 235.54 584.78 234.76 588.88 239.38 591.99 239.57 593.57 241.35 594.65 241.09 603.5 235.82 608.92 236.3 609.73 238.15 615.48 239.15 617.46 237.96 617.12 233.51 619.11 230.93 626.35 233.49 626.74 236.2 629.72 237.75 633.6 236.59 639.28 238.49 640.76 240.55 645.67 241.08 650.61 239.55 653.36 237.28 658.65 238.84 661.29 239.9 664.36 238 667.66 230.84 667.56 226.91 674 225.52 678.52 227.39 683.73 239.71 687.05 240.32 689.95 243.85 690.39 246.01 693.85 245.75 697.68 243.75 696.73 250.7 694.67 254.56 690.57 254.93 690.96 259.5 689.33 262.22 689.69 262.92 687.63 264.68 687.52 267.2 682.78 270.33 682.39 271.98 684.56 273.64 686.69 277.43 687.2 281.1 686.42 283.19 683.1 283.8 680.43 285.43 680.89 281.59 679.78 278.56 680.71 276.02 678.08 276.16 677.23 273.83 677.88 271.06 675.67 269.69 671.18 271.52 671.04 268.12 668.6 267.07 663.59 272.1 661.09 272.19 661.6 274.89 663.65 275.28 664.78 277.85 667.66 275.87 670.28 278.31 668.19 279.31 664.26 283.65 666.45 285.5 669.11 290.68 670.31 297.1 669.55 300.97 668.43 301.17 664.98 307.88 662.81 310.35 658.18 314.31 653.29 315.28 652.73 315.35 651.65 315.99 651.54 316.11 648.14 316.94 644.26 318.87 643.68 317.82 639.34 317.75 636.46 319.06 634.13 323.76 637.58 328.58 641.22 332.09 642.29 335.57 642.06 340.42 637.76 343.41 636.24 345.12 632.35 347 632.81 344.16 631.48 343.39 628.66 342.25 628.17 340.46 625.49 338.23 623.58 338.17 621.64 339.41 619.82 343.59 622.29 348.2 622.97 350.64 626.32 352.73 629.24 355.83 629.29 360.09 631.17 363.31 627.71 362.48 624.54 360.19 623.25 357.79 621.93 352.28 618.52 348.03 618.79 343.88 618.51 337.16 616.82 333.28 616.39 329.41 615.41 328.2 611.45 331.29 608.84 330.36 609.67 327.02 608.36 322.65 604.65 319.46 602.79 314.67 599.85 317.02 597.4 316.36 593.07 317.77 592.8 319.67 591.25 321.52 587.91 323.39 586.43 325.34 582.56 328.12 582.34 329.36 577.98 331.32 577.45 332.79 578.09 336.7 577.02 339.82 576.97 343.59 575.07 345.96 571.83 348.63 570.61 347.89 567.85 341.24 566.69 339.66 564.88 334.11 562.87 330.53 561.08 321.73 561.4 318.68 557.44 319.58 555.45 318.74 552.97 316.11 551.1 312.11 550 312.22 547.25 307.92 543.33 308.88 536.52 308.83 536.13 309.08 527.09 307.39 526.31 304.63 524.92 303.9 521.69 305.5 519.05 305.08 513.67 301.57 510.8 296.29 507.61 296.92 506.35 296.87 507.38 300.53 508.41 302.83 510.8 304.82 510.9 306.6 512.62 309.84 513.64 310.29 514.31 311.07 519.46 311.58 524.31 306.72 524.79 307.73 524.99 309.38 526.84 311.95 529.85 312.63 532.56 316.05 529.62 320.37 528.26 320.75 528.15 323.64 522.98 326.38 522.06 328.25 517.67 329.16 Z M 462.1 263.92 463.8 266.86 457.72 267.58 458.34 264.67 462.1 263.92 Z M 668.24 315.09 666.16 313.82 668.31 309.25 670.28 309.39 668.24 315.09 Z M 577.29 344.73 578.91 345.74 581.49 350.39 580.96 352.32 578.94 353.31 577.54 352.93 576.87 349.73 577.29 344.73 Z M 668.44 324.58 670.09 325.33 671.58 328.05 669.09 332.21 669.99 334.98 668.67 336.07 666.18 333.3 667.33 324.83 668.44 324.58 Z M 679.31 345.84 680.59 350.48 677.97 351.49 678.09 354.02 675.04 352.37 675.32 350.15 673.52 350.13 672.45 348.45 673.61 347.22 675.37 348.19 676.79 346.62 679.31 345.84 Z M 643.01 362.1 645.92 363.23 647.66 360.26 650.58 359.48 652.84 356.4 654.98 355.72 655.23 355.72 658.23 352.1 660 351.76 664.08 355.27 661.98 355.88 660.62 357.34 659.72 358.62 661.71 361.45 661.27 362.23 663.75 364.41 661 364.97 660.6 368.3 658.36 369.86 658.39 371.69 657.04 374.57 654.24 375.84 653.89 374.34 651.65 373.65 648.9 373.96 644.35 373.08 643.88 369.69 641.97 367.69 641.78 363.28 643.01 362.1 Z M 718.81 257.4 721.64 258.48 717.51 263.82 713.21 260.21 714.63 253.05 718.81 257.4 Z M 690.77 287.43 692.55 289.44 691.13 293.21 688.6 291.42 690.77 287.43 Z M 697.83 285.68 694.77 289.44 694.34 286.39 697.83 285.68 Z M 713.06 265.68 714.72 270.15 714.55 272.25 712.39 275.54 711.72 279.57 712.27 281.71 709.89 283.79 708.67 282.92 706.32 284.77 703.43 284.2 701.28 287.54 698.67 284.31 692.02 286.23 691.17 285.26 694.65 282.29 699.64 281.65 700.76 282.31 703.01 278.91 706.61 277.59 709.01 275 710.44 271.24 710.16 267.96 713.06 265.68 Z M 613.89 354.98 616.23 355.04 617.91 357.51 621.07 359.53 622.68 361.59 623.99 361.59 627.14 364.86 629.38 365.53 629.92 368.56 631.33 368.89 632.02 371.88 633.63 371.87 634.62 374.61 634.56 379.2 631.87 379.7 627.29 375.8 623.55 371.35 622.35 368.42 619.8 365.81 618.48 362.37 616.57 361.36 614.95 358.66 611.68 356.03 613.89 354.98 Z M 662.1 385.09 659.49 386.85 658.98 385.58 662.1 385.09 Z M 676.84 364.39 675.81 365.55 666.77 365.6 666.03 367.03 667.48 369.63 669.37 368.49 669.81 370.72 672.38 375.71 670.25 377.35 669.59 375.67 666.97 374.82 666.69 378.89 664.62 378.63 665.17 375.54 663.3 372.72 664.5 370.87 665.58 366.06 668.02 363.73 672.41 364.71 676.84 364.39 Z M 638.01 379.93 640.9 381.68 644.78 382.03 645.47 380.97 649.46 381.98 650.03 383.38 652.86 383.56 653.56 385.29 649.77 385.3 645.18 384.72 641.04 383.64 636.37 383.08 633.82 381.66 635.13 379.72 638.01 379.93 Z M 676.91 386.5 677.23 387.77 674.95 387.39 675.85 387.05 676.91 386.5 Z M 712.49 372.38 712.5 381.94 712.5 386.89 708.31 383.46 706.46 379.22 705.37 378.26 701.42 376.65 699.68 376.47 696.26 374.05 695.37 375.6 693.37 373.19 692.45 370.05 690.95 368.49 693.99 367.39 696.98 368.24 697.38 371.46 699.33 373.98 700.33 374.01 703.96 370.67 705.47 369.88 709.87 371.8 712.49 372.38 Z M 645.8 321.35 644.83 324.27 642.77 325.51 640.96 324.77 642.1 321.7 645.8 321.35 Z" fill-rule="evenodd" id="Asia"/>
<path d="M 241.91 340.11 241.58 342.14 245.65 340.97 247.43 341.08 249.55 343.25 253.15 342.89 256.25 344.09 258.41 342.82 261.01 342.62 261.42 343.92 265.24 345.75 266.96 347.57 270.04 349.82 270.37 350.95 273.23 353.05 273.22 354.27 278.45 353.29 279.95 354.7 282.74 354.55 285.5 357.58 286.46 357.51 287.71 361.87 289.39 364.01 286.32 366.78 284.85 370.11 287.13 369.06 288.27 371.06 291.4 370.65 293.34 368.23 296.24 368.32 301.02 370.46 301.78 372.21 304.82 372.06 308.41 373.1 311.41 372.94 314.71 374.84 317.6 377.49 321.2 377.98 322.85 382.79 321.66 387.14 318.12 390.72 315.24 395.3 313.35 397 313.81 402.22 311.91 408.66 312 410.15 309.58 414 308.85 416.8 306.81 418.87 301.05 419.14 299.31 420.66 296.11 421.99 292.39 425.86 291.83 432.74 289.73 434.73 288.5 437.45 286.6 437.29 284.79 439.92 283.29 444.52 281.7 446.13 278.3 449.32 271.81 448.1 270.55 446.58 270.99 442.77 270.22 445.92 270.81 448.65 272.98 450.02 273.06 452.62 274.38 454.57 272.44 458.02 267.38 460.15 262.42 460.38 261.69 466.08 258.64 466.84 255.62 466.05 255.79 469.27 257.2 470.66 255.29 474.29 254.5 478.56 251.61 479.34 250.23 482.8 254.28 486.04 254.12 488 251.41 490.29 249.75 494.47 246.53 498.27 248.28 503.29 243.07 504.79 242.63 508.54 240.01 507.99 235.93 504.32 236.2 499.61 233.54 497.32 235.23 494.87 234.51 487.21 235.63 484.83 232.29 483.65 236.96 480.05 238.66 470.26 236.04 466.75 237.68 461.25 236.72 456.93 239.9 449.77 241.61 443.26 241.13 437.2 243.85 424.28 243.58 419.14 244.64 415.39 243.91 407.97 239.36 404.16 233.52 401.17 230.89 398.24 231.13 396.83 227.91 391.78 225.41 385.77 222.42 381.36 220.87 380.55 219.82 376.18 221.95 374.11 220.67 368.98 222.37 366.61 222.47 364.85 225.19 363.37 225.73 361.48 227.83 360.21 228.76 353.76 227.32 350.52 228.85 348.72 228.49 347.33 229.57 347.41 232.33 345.55 232.26 343.87 234.09 341.81 237.49 341.39 241.03 338.84 241.91 340.11 Z M 247.82 512.62 243.73 512.45 242.91 508.93 245.36 504.66 247.87 504.37 249.25 507.73 255.15 512.71 247.82 512.62 Z M 289.99 367.1 292.76 367.37 291.54 369.88 288.04 370.56 287.74 367.2 289.99 367.1 Z" fill-rule="evenodd" id="South America"/>
<path d="M 111.78 216.53 111.36 219.9 110.56 220.88 109.8 217.13 104.15 211.36 102.83 207.06 97.24 206.91 89.19 200.54 81.23 199.27 74.43 194.81 71.5 198.58 63.65 202.88 63.62 195.95 58.44 202.13 60.11 204.31 49.16 215.3 40.74 219.46 40.55 217.19 46.92 213.33 50.64 209.6 50.82 206.17 47.37 205.96 44.53 203.48 41.44 205.36 40.36 198.54 36.67 200.18 33.47 196.91 31.86 191.11 35.56 184.33 37.89 185.16 43.61 181.33 39.11 178.51 31.72 177.43 27.4 171.77 34.97 166.86 41.31 169.62 43.42 166.21 37.09 163.24 31.19 156.03 35.8 152.91 41.16 144.02 52.46 137.35 63.19 143.22 69.12 142.9 87.45 148.43 98.81 153.03 110.73 145.25 118.18 144.62 131.87 148.37 138.22 152.25 146.38 154.6 144.14 159.02 150.77 160.42 156.07 158.7 164.67 153.01 169.04 158.38 174.89 160.37 187.97 160.11 192.41 155.31 191.03 149.67 186.94 147.01 186.3 137.67 193.96 137.75 197.03 145.02 194.4 148.03 204.84 153.67 204.5 159.94 208.18 161.4 210.73 151.07 216.86 148.17 219.72 151.77 217.01 155.9 219.85 161.72 216.81 166.68 210.6 166.96 203.49 180.37 197.55 182.89 191.5 193.37 189.89 199.54 190.05 204.11 193.23 204.74 195.51 212.03 199.19 211.15 202.83 212.67 205.91 215.86 211.45 218.89 216.95 219.42 217.66 227.68 223.03 234.13 226.01 230.27 223.41 221.16 227.34 219.08 230.09 215.66 228.97 207.86 225.96 205.06 228.63 199.14 226.8 189.67 228.49 187.45 234.44 189.31 236.79 188.02 241.68 194.1 245.63 196.24 245.54 202.22 250.22 207.05 254.57 203.22 257.03 198.14 264.04 212.02 263.64 214.53 267.15 218.99 272.75 221.65 273.32 224.39 276.31 226.76 276.54 230.69 273.7 233.12 270.3 233.7 266.82 237.35 252.6 237.5 250.66 240.46 247.21 242.22 242.02 248.93 238.23 250.82 234.4 254.64 237.83 251.46 243.68 248.16 247.08 244.07 253.31 240.92 256.28 240.99 257.57 243.15 255.21 247.94 256.93 250.72 259.7 252.28 262.67 251.91 264.15 253.91 258.66 256.26 254.28 259.11 253.48 256.62 257.14 253.85 251.21 254.12 251.25 255.01 244.44 258.48 242.51 262.83 243.94 264.93 238.52 266 235.46 267.93 235.02 271.46 233.67 273.98 230.95 275.7 232.03 281.92 224.27 288.67 220.78 291.36 219.3 294.58 219.9 297.35 222.58 305.47 221.85 308.52 220.23 308.55 216.36 302.28 216.79 299.66 214.48 297.02 210.8 297.14 208.8 295.56 201.41 296.4 200.28 298.91 198.84 299.04 192.31 297.41 189.66 298.43 187.52 300.28 184.64 301.53 183.75 304.48 184.66 306.97 183.5 310.82 183.08 315.08 184.71 319.88 187.6 324.26 190.42 325.61 196.12 324.35 198.86 322.85 199.72 318.94 204.64 317.5 207.54 317.96 206.11 321.09 205.46 324.98 204.28 324.92 204.24 329.19 202.95 330.91 204.43 331.28 209.85 330.65 213.22 331.06 215.67 332.97 214.76 336.8 214.59 342.24 216.98 345.26 219.66 347.05 223.6 345.22 226.92 346.03 228.49 347.33 228.85 348.72 227.32 350.52 224.69 346.57 221.85 348.15 220.79 350.54 218.84 348.49 216.28 348.64 214.6 346.48 210.2 344.53 209.93 341.92 206.4 337.57 205.35 336.62 203.8 337.11 200.29 335.85 197.96 335.41 195.55 334 191.82 330.53 189.64 329.69 186.07 331.46 176.45 327.88 174.24 326.2 170.7 325.26 167.39 322.96 165.77 320.42 166.79 317.8 165.49 315.08 159.77 308.85 157.53 307.54 157.94 306.12 155.11 303.59 151.37 299.33 149.41 293.79 145.44 292.18 145.86 296.22 149.8 300.83 150.11 302.33 152.69 305.12 154.67 309.84 151.57 309.72 150.9 306.34 146.31 303.85 147.19 300.82 143.59 297.45 140.37 290.26 139.61 288.24 137.31 286.32 132.93 285.1 132.6 283.47 129.84 280.05 128.53 275.86 125.8 272.83 124.31 268.27 124.98 265.65 123.94 261.38 124.8 258.71 125.29 252.83 123.73 243.74 129.03 244.95 127.82 241.67 123.4 238.16 122.79 236.78 119.8 236.39 116.91 234.21 115.47 230.61 116.03 228.06 111.09 224.85 111.78 216.53 Z M 240.91 325.93 238.65 325 238.99 321.56 240.89 321.99 242.72 321.53 247.75 323.9 245.34 324.98 240.91 325.93 Z M 333.6 1 352.3 18.87 353.13 33.48 374.44 37.58 356.93 53.84 357.72 67.57 353.55 74.42 355.15 87.04 352.19 97.5 357.38 113.46 350.82 123.12 352.29 142.73 345.96 138.54 340.71 143.07 348.82 146.94 341.61 154.34 326.5 160.76 324.41 165.9 319.36 170.84 309.88 175.71 310.11 181.8 306.56 187.47 306.66 190.86 303.97 199.65 299.41 198.43 291.56 193.55 285.91 182.21 280.56 163.59 282.43 154.9 286.4 154.11 288.06 146.6 286.66 139.73 276.77 135.72 278.66 126.14 275.64 120.88 270.29 103.04 259.38 97.07 251.87 100.51 246.22 97.14 246.27 86.03 239.52 74.98 253.77 67.8 251.49 51.79 269.84 27.23 291.69 22.09 304.25 6.98 333.6 1 Z M 218.59 313.79 221.23 313.93 232.15 318.7 235.41 321.14 227.73 321.67 225.69 317.74 221.56 316.43 218.64 316.1 218.59 313.79 Z M 118.05 236.01 121.85 237.13 123.71 240.19 119.48 240.22 118.05 236.01 Z M 159.95 99.7 165.34 107.43 148.38 113.87 146.3 108.32 139.32 106.73 143.8 96.15 153.83 104.29 159.95 99.7 Z M 146.14 128.23 150.06 125.29 159.05 128.92 166.33 126.78 168.2 138.83 173.5 147.18 170.65 153.69 164.72 151.51 158.5 153.99 149.23 155.61 147.98 151.3 141.73 149.86 136.51 134.78 137.6 128.67 146.14 128.23 Z M 134.58 116.46 144.09 121.81 133.6 131.02 132.63 136.05 126.88 138.7 121.23 131.56 125.58 119.23 134.58 116.46 Z M 245.97 11.4 263.91 21.48 254.84 39.63 235.01 72.51 227.07 81.05 226.47 94.88 211.27 97.4 204.72 83.43 207.58 71.94 213.1 69.63 208.43 59.14 210.9 50.28 202.89 46.46 199.41 30.66 222.92 12.82 245.97 11.4 Z M 178.33 117.81 183.22 123 185.84 133.74 181.3 137.47 177.02 131.46 175.12 121.87 178.33 117.81 Z M 211.76 173.89 218.12 177.12 210.49 184.7 208.54 177.52 211.76 173.89 Z M 183.43 95.87 183.21 108.07 172.7 104.6 177.47 94.47 183.43 95.87 Z M 196.32 41.84 205.65 52.33 210.94 66.9 207.11 70.52 203.18 78.4 194.56 76.26 185.49 55.43 196.32 41.84 Z M 190.98 91.58 197.61 93.83 204.49 104.62 217.89 101.76 223.76 110.1 218.66 113.48 204 113.34 196.15 110.84 195.66 101.62 190.98 91.58 Z M 193.47 116.07 199.71 118.43 195.81 127.03 188.99 132.36 188.01 119.8 193.47 116.07 Z M 277.07 232.84 274.33 238.02 278.03 240.61 280.39 240.14 281.34 244.22 283.28 246.47 282.36 249.3 278.4 247.01 268.41 245.43 274.2 233.77 277.07 232.84 Z M 208.06 139.47 212.05 138.91 209.56 132.65 211.54 122.61 219.55 120.28 222.06 127.1 233.34 129.4 235.27 133.68 241.6 136.35 250.68 145.96 248.13 148.9 249.18 155.27 264.12 166.34 259.46 174.64 256.66 174.37 252.64 168.38 248.7 170.25 255.31 177.18 256.99 184.09 253.75 185.38 253.13 190.8 242.05 185.17 237.2 178.26 229.93 179.18 226.89 175.58 236.94 172.39 235 169.16 239.91 162.91 237.46 156.98 225.3 145.02 217.93 147.21 205.15 144.54 200.44 132.92 205.55 119.58 209.29 134.19 208.06 139.47 Z" fill-rule="evenodd" id="North America"/>
<path d="M 394.09 232.53 392.7 233.36 388.72 231.2 393.13 226.58 392.09 222.04 393.17 220.14 389.53 218.36 386.84 213.66 388.17 206.94 396.06 210.04 394.25 213.84 395.53 216.84 401.24 227.66 403.46 230.87 400.45 235.58 392.45 236.03 394.09 232.53 Z M 384 219.64 386.22 223.48 386.64 227.81 385.46 230.5 380.46 232.67 377.93 230.69 379.39 227.18 377.84 222.77 380.89 222.5 384 219.64 Z M 484.71 247.97 479.42 249.49 477.59 252.34 478.63 254.34 475.17 256.56 474.47 251.18 470.88 249.21 468.27 249.72 465.85 253.84 463.36 258.55 460.92 262.42 462.1 263.92 458.34 264.67 457.72 267.58 454.05 267.04 452.46 269.05 450.16 268.26 451.54 273.53 451.15 278.82 447.84 277.97 446.06 272.55 444.34 270.54 443 268.87 442.88 264.21 441.05 262.53 439.16 261.13 438.98 261 433.52 256.97 432.93 254.4 430.1 253.02 430.41 252.8 427.21 253.25 427.48 257.07 430.07 259.08 431.06 261.75 435.49 265.5 437.52 268.37 434.79 269.73 430.44 266.09 428 265.4 423.74 261.01 422.27 257.7 419.43 256.45 416.61 258.48 416.49 258.53 416.35 258.58 413.56 260.6 408.98 259.01 407.12 262.53 407.2 263.99 402.29 266.6 399.28 271.08 400.45 273.26 395.32 278.82 390.32 278.98 386.61 280.44 385.61 278.32 383.58 277.7 380.94 277.86 380.24 273.96 379 273.34 380.81 266.7 380.54 264 379.53 260.89 382.94 258.48 389.97 259.55 396.02 259.58 396.71 259.1 397.64 252.11 395.52 248.15 390.44 245.57 389.54 243.19 392.84 242.18 396.81 242.85 402.76 238.24 405.6 234.4 407.43 233.41 409.37 233.38 410.37 228.24 413.44 226.04 415.95 226.5 419.72 224.43 419.22 220.37 418.03 217.66 419.1 211.61 423.36 210.23 421.59 220.67 425.27 224.02 427.88 222.04 431.61 224.83 431.51 224.3 431.5 224 440.62 220.62 443.46 222.07 446.33 218.89 446.46 218.92 447.07 218.97 446.65 215.81 446.71 212.78 450 209.09 453.92 208.48 452.08 202.85 456.55 200.92 462.09 201.6 461.62 196.93 452.58 199.48 447.52 196.66 446.78 187.21 451.53 180.94 456.19 172.73 453.54 170.97 447.8 173.11 446.02 181.08 439.67 186.21 438.24 196.19 442.05 200.4 436.91 206.11 435.46 215.2 432.77 215.44 429.53 218.65 425.38 207.45 425.24 203.54 421.32 203.93 415.53 207.84 411.38 202.72 410.92 191.54 412.27 188.71 421.52 181.09 426.95 174.32 429.05 166.95 440.12 151.54 440.55 149.54 461.17 138.92 468.59 144.39 468.43 147.58 479.49 151.32 490.81 160.25 491.3 165.34 485.11 169.57 478.72 167.74 476.27 173.17 488.13 177.46 488.26 172.09 493.57 167.06 497.75 168.63 497.64 155.28 501.73 155.7 506.12 161 516.49 155.01 519.63 157.21 526.63 155.25 535.25 147.14 540.45 148.27 551.85 156.49 548.66 148.15 548.33 137.61 553.04 127.66 561.4 127.5 562.01 136.48 579.17 129.01 578.63 120.8 591.94 118.22 592.08 111.77 599.91 103.91 614.75 100.85 632.55 88.99 646.3 93.42 651.84 106.54 644.41 117.23 648.59 119.69 662.56 120.63 665.45 125.34 673.33 121.08 683.16 121.48 686.86 130.27 687.64 138.73 691.63 140.21 697.26 136.94 709.66 134.69 709.45 128.95 714.9 127.28 731.4 131.37 738.06 140.66 745.57 138.89 753.23 140.96 754.3 147.57 769.79 149.39 775.97 153.83 779.04 152.23 777.91 145.49 790.37 147.09 799 152.62 799 174.91 795.72 177.33 798.05 186.9 793.13 187.38 783.17 192.67 776.79 199.03 775.12 196.66 763.05 199.15 759.01 207.62 762.06 215.16 759.29 215.73 759.33 220.95 754.83 223.1 754.44 226.13 751.58 228.01 750.46 231.87 747.46 234.85 744.81 218.64 745.76 213.3 749.02 208.78 752.53 206.16 759.11 197.46 762.89 195.21 761.34 191.16 756.37 195.95 752.62 190.55 749.06 191.13 738.89 203.96 731.71 200.34 726.99 202.54 717.41 202.1 714.82 203.7 705.22 215.53 699.83 220.22 703.23 221.46 704.41 225.54 709.68 222.77 713.44 226.86 713.63 230.54 711.86 233.92 710.71 243.24 705.2 252.07 699.54 259.22 695.17 261.73 691.98 260.2 689.69 262.92 689.33 262.22 690.96 259.5 690.57 254.93 694.67 254.56 696.73 250.7 697.68 243.75 693.85 245.75 690.39 246.01 689.95 243.85 687.05 240.32 683.73 239.71 678.52 227.39 674 225.52 667.56 226.91 667.66 230.84 664.36 238 661.29 239.9 658.65 238.84 653.36 237.28 650.61 239.55 645.67 241.08 640.76 240.55 639.28 238.49 633.6 236.59 629.72 237.75 626.74 236.2 626.35 233.49 619.11 230.93 617.12 233.51 617.46 237.96 615.48 239.15 609.73 238.15 608.92 236.3 603.5 235.82 594.65 241.09 593.57 241.35 591.99 239.57 588.88 239.38 584.78 234.76 577.3 235.54 572.24 226.14 569.06 222.63 565.04 225.14 557.59 223.01 556.8 218.81 552.9 218.48 550.9 220.15 537.28 224.02 533.15 231.27 536.08 235.23 532.58 236.21 529.36 234.52 520.63 235.52 518.23 233.04 512.59 232.16 508.19 236.14 504.91 237.28 503.43 243.62 506.64 245.83 509.13 250.41 505.35 252.76 503.64 256.46 505.21 260.71 507.67 264.29 506.09 266.16 502.92 264.15 499.46 261.55 494.03 260.14 488.62 259.54 482.93 255.48 484.71 247.97 Z M 1.45 152.88 11.32 160.46 13.31 163.77 19.19 164.74 22.74 168.82 18.26 173.02 16.5 178.9 4.75 172.7 1 174.91 1 173.62 1 172.31 1 170.99 1 169.66 1 168.32 1 166.97 1 165.6 1 164.21 1 162.82 1 161.41 1 159.98 1 158.54 1 157.08 1 155.61 1 154.12 1.45 152.88 Z M 550.21 98.02 536.01 106.35 526.27 122.37 521.12 117.7 526.54 105.75 539.59 98.03 550.21 98.02 Z M 522.63 122.82 522.58 133.02 526.67 142.31 519.08 140.8 514.85 136.15 519.15 122.94 522.63 122.82 Z M 616.51 55.14 620.42 71.26 606.31 63.46 616.51 55.14 Z M 710.44 101.78 719.24 108.69 708.34 111.99 703.7 107.05 710.44 101.78 Z M 716.45 222.32 717.33 230.88 719.8 240.59 714.47 242.48 715.22 233.96 714.15 232.13 714.38 226.29 716.45 222.32 Z M 446.32 53.94 459.54 55.12 456.84 64.58 446.24 64.64 446.32 53.94 Z M 437.21 58.36 445.35 67.84 437.02 94.8 426.1 72.6 437.21 58.36 Z M 434.53 274.78 432.15 278.76 427.57 275.91 434.53 274.78 Z M 421.35 267.13 421.2 272.1 418.66 271.98 418.15 267.8 421.35 267.13 Z M 365.55 168.67 369.82 172.68 367.75 178.14 358.65 183.38 355.23 182.64 346.3 172.68 350.29 167.55 352.78 170.59 365.55 168.67 Z" fill-rule="evenodd" id="Europe"/>
<path d="M 736.75 376.13 737.25 378.48 733.45 380.53 731.73 380.56 728.83 378.9 734.61 378.63 736.75 376.13 Z M 712.5 386.89 712.5 381.94 712.49 372.38 720.26 375.08 723.12 377.3 723.31 378.74 727.63 380.62 726.27 382.99 728.35 384.61 729.36 386.74 732.22 388.9 731.95 389.67 727.55 389.03 723.71 384.55 720.33 383.41 718.34 384.83 717.8 386.54 716.2 387.36 712.5 386.89 Z M 783.74 467.22 786.33 468.59 782.12 474.9 780.03 475.84 778.39 480.69 776.14 483.46 773.25 483.64 769.59 482.33 770.61 478.42 773.21 475.68 776.08 474.17 779.62 470.75 782.69 464.99 783.74 467.22 Z M 784.08 449.33 786.41 450.17 787.3 454.55 789.86 454.87 790.37 456.78 793.09 457.75 795.76 456.92 794.49 461.02 793.25 460.84 790.1 467.03 787.94 463.35 785.55 462.07 787.76 457.23 786.69 453.47 784.08 449.33 Z M 717.38 393.29 718.66 398.74 720.25 398.47 722.05 400.1 722.36 403.47 723.91 406.32 724.7 409.69 726.78 410.39 729.75 412.54 731.84 417.66 734.19 417.98 734.37 420.11 736.72 421.91 739.52 426.22 739.41 429.27 740.43 431.89 739.03 440.06 736.52 443.9 732.93 451.77 732.35 456.46 728.65 457.3 725.53 459.66 720.67 458.37 718.18 460.1 711.72 457.86 710.02 454.05 706.1 447.27 704.21 445.83 700.69 449.34 697.55 442.97 690.7 440.21 685.83 440.75 682.23 442.22 679.12 442.31 675.15 444.5 674.09 446.38 665.68 446.75 661.87 449.47 658.28 449.47 654.94 447.5 656.43 444.67 656.46 440.73 655.31 438.43 654.83 434.91 651.77 427.69 651.41 422.48 652 418.13 654.6 415.97 658.7 413.4 660.25 413.56 664.02 411.84 667.95 411.06 670.96 407.09 670.79 405.57 672.59 403.54 675.71 401.97 677.48 399.57 681.3 397.35 684.18 399.66 686.79 398.84 689.66 394.31 693.42 393.93 694.11 392.27 698.65 393.35 702.66 393.29 702.78 395.67 701.31 396.35 700.43 400.23 703.21 402.28 708.14 404.61 710.41 406.47 712.17 405.8 713.94 400.36 713.6 397.48 715.14 391.01 717.38 393.29 Z M 721.51 465.78 724.34 466.88 728.72 466.25 728.73 469.48 725.57 474.23 723.73 474.03 722.01 470.99 720.63 466.34 721.51 465.78 Z" fill-rule="evenodd" id="Oceania"/>
<path d="M 273.6 549.63 262.24 559.67 262.84 564.89 258.68 564.79 254.93 570.69 254.5 575.39 259.34 580.93 264.75 594.78 266.15 608.06 264.76 619.71 259.54 628.03 240.85 640.05 238.51 648.41 222.33 666.99 230.43 667.68 233.23 686.68 244.3 687.44 256.47 697.06 263.48 727.84 280.33 707.7 292.8 702.76 303.2 708.84 314.06 687.79 344.01 673.01 319.67 661.24 324.47 646.72 335.86 636.4 346.2 630.85 356.79 628.81 365.43 608.74 374.52 603.62 378.08 593.83 398.01 596.04 411.33 591.32 418.89 590.11 425.94 592.06 428.66 588.39 440.18 590.55 442.7 592.98 460.31 593.04 472.31 587 472.19 581.13 486.14 587.04 488.36 580.46 494.92 575.35 504.44 572.11 515.01 563.38 523.49 563.7 531.34 571.6 541.2 571.74 551.46 573.97 555.13 577.39 553.5 589.82 548.28 607.61 558 597.96 559.39 591.66 563.91 585.34 572.5 581.1 574.51 576.27 587.28 569.48 604.1 566.06 608.29 567.08 617.8 565.84 624.93 563 630.43 563.2 642.64 568.31 645.84 563.68 650.7 562.18 655.52 568.98 664.08 570.94 679 565.27 682.72 569.12 686.48 569.06 690.28 564.31 700.03 563.96 717.98 568.13 723.58 572.41 725.4 576.25 734.87 576.92 754.19 583.94 756.97 589.07 771.45 592.36 777.19 598 775.82 608.38 765.25 616.04 760.28 625.55 760.79 639.98 768.43 657.62 755.74 666.2 756.68 695.1 772.64 728.23 797.68 745.54 799 748.78 799 764.28 52.15 764.28 34.36 737.04 60.83 711.83 53.03 691.77 71.66 688.05 71.54 673.18 55.95 663.43 48.66 650.37 56.83 643.72 68.13 650.57 76.44 643.14 75.52 633.88 81.74 629.02 97.32 625.31 99.95 621.48 116.57 621.72 144.85 619.52 147.45 623.95 163.66 627.09 175.56 619.77 172.99 607.91 186.86 610.37 199.85 607.84 209.41 609.59 217.83 614.66 221.69 607.58 229.02 614.35 247.45 608.8 251.87 601.28 247.7 583.37 250.66 583.24 252.14 571.85 250.39 569.47 258.05 558.86 265.08 553.14 273.6 549.63 Z M 299.76 661.66 303.51 678.48 279.94 687.62 288.41 669.53 291.2 653.22 299.76 661.66 Z M 244.72 581.84 248.52 592.66 246.59 604.52 239.02 596.31 242.19 593.54 240.69 580.3 244.72 581.84 Z" fill-rule="evenodd" id="Antarctica"/>
</g>
</svg>