<?xml version="1.0" standalone="no"?>
<!DOCTYPE svg PUBLIC "-//W3C//DTD SVG 20010904//EN"
 "http://www.w3.org/TR/2001/REC-SVG-20010904/DTD/svg10.dtd">
<svg version="1.0" xmlns="http://www.w3.org/2000/svg"
 width="513.000000pt" height="513.000000pt" viewBox="0 0 513.000000 513.000000"
 preserveAspectRatio="xMidYMid meet">
<metadata>
Created by potrace 1.14, written by Peter Selinger 2001-2017
</metadata>
<g transform="translate(0.000000,513.000000) scale(0.100000,-0.100000)"
fill="#000000" stroke="none">
<path d="M2375 5123 c-294 -24 -572 -94 -842 -210 -99 -42 -105 -56 -7 -17 37
15 95 30 129 34 33 3 70 11 82 18 27 15 115 15 168 1 22 -6 85 -12 140 -13 83
-2 108 1 150 19 28 12 56 29 63 38 11 13 24 15 58 10 26 -3 56 -1 73 7 17 6
43 9 60 5 28 -6 29 -8 20 -35 -7 -20 -7 -35 1 -49 9 -19 7 -23 -17 -32 -21 -8
-34 -6 -58 7 -27 14 -37 15 -71 4 -53 -17 -147 -89 -139 -107 3 -8 5 -18 5
-23 0 -5 20 -12 45 -16 25 -3 55 -14 68 -23 38 -29 74 -40 109 -35 48 8 103
-19 116 -55 9 -24 69 -71 76 -59 1 2 7 10 14 19 10 13 10 22 1 43 -10 21 -9
29 4 44 24 26 21 53 -8 92 -15 20 -25 47 -25 67 l0 32 71 -3 c53 -3 78 -9 100
-25 34 -25 84 -37 93 -23 5 9 58 7 113 -4 13 -2 37 -18 55 -34 18 -16 40 -35
48 -43 8 -7 22 -23 30 -35 15 -22 15 -22 49 -4 42 22 79 17 93 -13 9 -19 20
-23 93 -29 207 -15 417 -111 574 -260 142 -136 222 -273 278 -476 25 -93 25
-349 -1 -440 -77 -277 -241 -493 -472 -621 l-61 -34 77 3 77 4 52 -46 c57 -50
83 -60 139 -54 22 3 57 -2 87 -13 28 -10 69 -23 91 -29 37 -9 44 -16 63 -59
22 -51 28 -152 14 -235 -6 -38 -6 -37 -30 45 -29 102 -49 137 -93 166 -43 30
-114 30 -206 2 -38 -12 -177 -63 -309 -114 -188 -73 -462 -168 -632 -221 -9
-2 -13 12 -13 51 0 60 14 76 75 91 38 9 45 19 45 73 0 56 -52 156 -92 177 -25
13 -28 13 -28 0 0 -8 -10 -26 -22 -40 l-23 -25 -75 14 c-41 8 -87 24 -102 35
-15 11 -33 20 -39 20 -7 0 -44 34 -82 75 l-69 75 -57 0 c-45 0 -62 4 -76 20
-10 11 -25 20 -33 20 -9 0 -40 26 -69 58 l-53 57 -68 -4 c-37 -1 -91 -4 -119
-5 -40 -1 -53 -5 -53 -16 0 -37 -33 -141 -67 -209 -68 -140 -219 -259 -374
-296 -359 -84 -708 191 -709 560 0 253 179 488 423 555 l58 16 -30 44 c-17 25
-31 56 -31 69 0 46 -41 119 -72 130 -31 11 -52 52 -45 89 2 12 0 44 -5 72 -10
55 10 155 40 200 35 52 81 172 87 228 4 31 15 86 26 121 23 77 24 113 3 156
-13 29 -22 34 -64 40 -44 6 -53 4 -106 -30 -189 -121 -426 -334 -581 -522
-247 -300 -434 -681 -517 -1055 -49 -217 -59 -317 -60 -563 0 -264 14 -385 70
-615 109 -441 328 -839 642 -1162 222 -229 438 -387 717 -524 249 -122 490
-196 782 -241 154 -23 526 -23 688 0 543 78 1042 321 1427 695 229 222 387
438 524 717 122 249 196 490 241 782 23 154 23 526 0 688 -106 735 -512 1378
-1129 1792 -148 99 -418 231 -590 288 -135 44 -181 53 -206 37 -15 -10 -5 -42
13 -42 7 0 25 -10 41 -22 l28 -22 -25 -7 c-70 -20 -141 -5 -218 46 -20 14 -88
43 -151 66 -100 36 -130 42 -223 46 -85 5 -107 9 -103 19 5 14 -50 16 -159 7z
m117 -25 c-7 -7 -12 -19 -12 -29 0 -13 13 -17 71 -21 57 -4 73 -9 85 -27 9
-12 26 -21 42 -21 59 0 103 -12 98 -27 -4 -9 4 -16 25 -20 16 -3 28 -11 26
-17 -6 -16 -123 -10 -175 10 -41 15 -44 19 -40 48 l3 31 -80 3 c-44 1 -116 4
-160 6 -44 3 -92 5 -107 6 -26 1 -48 33 -33 48 4 4 59 8 122 9 64 2 119 5 121
8 3 3 10 5 16 5 6 0 5 -5 -2 -12z m1572 -2720 c-138 -236 -412 -503 -666 -649
l-86 -50 -5 -447 c-4 -499 -8 -529 -81 -687 -86 -186 -245 -345 -430 -430
-223 -104 -498 -104 -721 -1 -240 111 -419 327 -486 588 -20 77 -22 114 -26
519 l-5 436 -48 23 c-27 12 -79 42 -117 66 l-68 43 175 1 c855 2 1721 193
2445 541 66 31 121 58 123 58 2 1 0 -5 -4 -11z m654 -51 c42 -25 55 -39 64
-70 9 -31 9 -43 -2 -60 -86 -135 -138 -261 -165 -397 -34 -170 -117 -338 -189
-383 -61 -39 -123 -109 -170 -195 -39 -70 -166 -224 -261 -315 -31 -29 -67
-52 -94 -60 -43 -13 -45 -15 -64 -80 l-20 -66 -46 -7 c-101 -14 -222 -93 -263
-172 -9 -18 -32 -41 -50 -52 -20 -11 -39 -33 -46 -53 -7 -19 -35 -55 -62 -80
-51 -47 -66 -87 -33 -87 12 0 14 -3 6 -11 -5 -5 -34 -9 -64 -7 -47 3 -55 6
-67 30 -11 24 -8 34 37 120 41 78 50 104 54 164 5 62 11 80 56 155 39 63 51
94 51 124 0 101 6 111 89 156 148 81 254 161 381 289 137 136 203 227 280 385
87 178 120 323 120 536 0 111 3 139 16 149 15 13 337 32 374 23 8 -2 39 -18
68 -36z"/>
<path d="M2350 1067 l0 -394 23 -21 c30 -28 85 -29 121 -1 l26 20 0 395 0 394
-85 0 -85 0 0 -393z"/>
<path d="M2054 4616 c-7 -19 13 -56 32 -56 11 0 13 7 8 28 -11 45 -29 58 -40
28z"/>
<path d="M2354 4479 c-48 -14 -51 -36 -6 -49 85 -23 169 -2 131 35 -19 18 -87
26 -125 14z"/>
<path d="M2550 4389 c0 -5 5 -7 10 -4 6 3 10 8 10 11 0 2 -4 4 -10 4 -5 0 -10
-5 -10 -11z"/>
<path d="M2427 4357 c-28 -22 -29 -24 -17 -66 11 -41 12 -42 30 -26 34 31 51
115 23 115 -4 0 -21 -10 -36 -23z"/>
<path d="M3107 4146 c-94 -35 -164 -110 -188 -201 -25 -91 14 -222 84 -281 63
-53 107 -69 192 -69 63 0 89 5 121 22 63 34 97 66 129 125 26 46 30 63 30 133
0 70 -4 87 -30 133 -51 93 -130 143 -235 149 -40 2 -79 -2 -103 -11z"/>
<path d="M2173 3710 c-17 -4 -58 -31 -92 -61 l-61 -53 -2 -96 c-2 -130 -1
-141 23 -206 24 -63 75 -126 117 -143 16 -7 62 -11 103 -9 l74 3 17 54 c10 29
22 59 29 67 8 10 4 30 -17 81 -39 98 -63 196 -70 291 l-7 82 -41 -1 c-23 -1
-55 -4 -73 -9z"/>
<path d="M1390 3694 c0 -5 7 -28 16 -51 12 -30 23 -43 36 -43 18 0 18 1 -1 38
-19 38 -51 73 -51 56z"/>
<path d="M1377 3206 c-94 -35 -164 -110 -188 -201 -25 -91 14 -222 84 -281 63
-53 107 -69 192 -69 63 0 89 5 121 22 63 34 97 66 129 125 26 46 30 63 30 133
0 70 -4 87 -30 133 -51 93 -130 143 -235 149 -40 2 -79 -2 -103 -11z"/>
<path d="M2450 3139 c-17 -30 -6 -97 19 -123 15 -14 33 -20 60 -20 75 2 75 12
1 92 -66 72 -69 73 -80 51z"/>
<path d="M2750 2839 c0 -63 20 -98 70 -124 39 -20 66 -19 89 4 18 18 25 18 88
9 69 -11 125 -6 153 12 13 9 13 11 0 20 -8 5 -27 10 -41 10 -45 0 -200 49
-281 88 l-78 38 0 -57z"/>
</g>
</svg>
