<svg width="202" height="36" viewBox="0 0 202 36" fill="none" xmlns="http://www.w3.org/2000/svg">
<g clip-path="url(#clip0_1204_1097)">
<path d="M13.86 30.576C11.436 30.576 9.252 30 7.308 28.848C5.364 27.672 3.84 26.076 2.736 24.06C1.632 22.044 1.08 19.824 1.08 17.4C1.08 15.072 1.632 12.936 2.736 10.992C3.864 9.048 5.424 7.512 7.416 6.384C9.408 5.256 11.676 4.692 14.22 4.692C15.612 4.692 16.956 4.848 18.252 5.16C19.572 5.472 20.76 5.916 21.816 6.492L19.44 12.072C17.808 11.4 16.284 11.064 14.868 11.064C13.02 11.064 11.592 11.664 10.584 12.864C9.576 14.04 9.072 15.588 9.072 17.508C9.072 18.756 9.3 19.884 9.756 20.892C10.212 21.876 10.848 22.656 11.664 23.232C12.504 23.808 13.452 24.096 14.508 24.096C15.084 24.096 15.564 24.048 15.948 23.952V18.156L22.176 17.436V28.704C19.464 29.952 16.692 30.576 13.86 30.576ZM26.0705 5.232H43.4585V10.704H34.8185V15.204H42.7025V19.74H34.8185V24.528H43.4585V30H26.0705V5.232ZM59.5046 30.576C56.9126 30.576 54.6086 30.024 52.5926 28.92C50.6006 27.816 49.0406 26.292 47.9126 24.348C46.8086 22.38 46.2566 20.148 46.2566 17.652C46.2566 15.132 46.8086 12.888 47.9126 10.92C49.0406 8.952 50.6006 7.428 52.5926 6.348C54.6086 5.244 56.9126 4.692 59.5046 4.692C62.0966 4.692 64.3886 5.244 66.3806 6.348C68.3966 7.428 69.9566 8.952 71.0606 10.92C72.1886 12.864 72.7526 15.108 72.7526 17.652C72.7526 20.148 72.1886 22.38 71.0606 24.348C69.9566 26.292 68.3966 27.816 66.3806 28.92C64.3646 30.024 62.0726 30.576 59.5046 30.576ZM59.5046 24.024C61.0166 24.024 62.2526 23.436 63.2126 22.26C64.1966 21.084 64.6886 19.536 64.6886 17.616C64.6886 16.344 64.4606 15.216 64.0046 14.232C63.5726 13.224 62.9606 12.444 62.1686 11.892C61.3766 11.316 60.4766 11.028 59.4686 11.028C58.4846 11.028 57.5966 11.316 56.8046 11.892C56.0126 12.444 55.4006 13.224 54.9686 14.232C54.5366 15.216 54.3206 16.344 54.3206 17.616C54.3206 19.536 54.8006 21.084 55.7606 22.26C56.7206 23.436 57.9686 24.024 59.5046 24.024ZM80.5233 5.232H88.0113L94.2033 17.256L100.251 5.232H107.739V30H100.251V16.788L95.6793 25.428H92.6193L88.0113 16.788V30H80.5233V5.232ZM117.125 5.232H128.069L135.233 30H126.773L125.837 25.248H119.429L118.385 30H110.285L117.125 5.232ZM124.973 20.82L122.633 9.984L120.185 20.82H124.973ZM137.617 5.232H144.853L154.717 18.588V5.232H161.161V30H153.961L144.025 17.112V30H137.617V5.232ZM165.848 5.232H174.164V30H165.848V5.232ZM183.535 5.232H194.479L201.643 30H193.183L192.247 25.248H185.839L184.795 30H176.695L183.535 5.232ZM191.383 20.82L189.043 9.984L186.595 20.82H191.383Z" fill="white"/>
<mask id="mask0_1204_1097" style="mask-type:alpha" maskUnits="userSpaceOnUse" x="44" y="0" width="36" height="36">
<circle cx="61.9649" cy="17.9649" r="17.6056" fill="#1E3A8A"/>
</mask>
<g mask="url(#mask0_1204_1097)">
<circle cx="61.9649" cy="17.9649" r="17.9649" transform="rotate(-30 61.9649 17.9649)" fill="white"/>
<ellipse cx="61.9649" cy="17.9649" rx="15.5282" ry="15.5282" transform="rotate(-30 61.9649 17.9649)" fill="#1E40AF"/>
<path fill-rule="evenodd" clip-rule="evenodd" d="M54.4285 4.58643L54.0749 4.58048L55.0467 4.01941L55.5235 3.81415L56.057 3.64625L56.2671 3.52494L56.7631 3.41364L56.9966 3.45398L57.3532 3.28311L57.8119 3.2284L58.3878 3.31612L58.6819 3.46152L59.2608 3.37242L59.6862 3.442L60.2833 3.20235L60.5792 2.92642L60.7601 2.99709L61.1137 3.00304L61.4855 2.85843L61.8059 2.98867L61.6756 3.309L61.8424 3.59792C61.7309 3.62726 61.5058 3.69422 61.4969 3.72736C61.488 3.7605 61.2392 3.5843 61.1159 3.49206L60.5451 3.71655L60.0128 4.12896L60.0442 4.426L60.5484 4.45009L60.8617 4.68945L61.1406 4.80859L61.6559 4.79125L62.0328 4.95885L62.1774 5.33062L62.5543 5.49823L62.6775 5.28702L62.5633 4.96777L62.7279 4.76766L62.7227 4.45546L62.4579 4.11807L62.4184 3.68564L62.5427 3.71894L62.8245 3.66126L63.4156 3.77524L63.5743 3.92877L63.9775 4.08121L64.1573 3.90737L64.3271 4.01946L64.6918 3.98398L65.0273 4.14049L65.1335 4.32434L65.4276 4.46974L65.6247 4.81119L65.8126 4.77274L66.0338 4.60999L66.3501 4.67254L66.5472 5.01398L66.714 5.3029L66.8494 5.29477L67.0455 5.39171L67.4265 5.62701L67.4953 5.86746L67.1568 5.88777L66.7051 5.83336L66.5949 5.58181L66.511 5.31509L66.3068 5.08277L66.0745 5.28694L65.9927 5.50925L65.4885 5.48516L65.2399 5.41856L65.1056 5.6712L65.3128 5.7267L65.6927 5.71749L65.7685 5.84881L65.7585 6.13475L66.2516 6.20027L66.5668 6.0183L66.7406 6.19809L66.388 6.43666L66.378 6.7226L65.8749 6.94303L65.7647 6.69148L65.5909 6.51168L65.3282 6.66332L64.9605 6.87562L64.7807 7.04947L65.0334 7.18377L64.8617 7.493L64.6323 7.52036L64.4677 7.72046L64.4052 8.03674L64.2405 8.23685L63.891 8.29859L63.9901 8.59157L64.178 8.55312L64.2175 8.98555L63.855 9.51005L63.4347 9.75268L63.1469 10.164L63.3329 10.5469L63.6666 11.1247L63.7627 11.5945L63.5496 11.8926L63.304 11.6492L63.122 11.334L62.9046 10.6541L62.5994 10.5501L62.0952 10.5261L61.5455 10.4232L61.0728 10.6961L60.603 10.7923L60.1705 10.8318L59.727 10.9128L59.4725 11.1998L59.03 11.5253L59.0241 11.8789L59.0152 12.4094L58.987 12.8459L59.1741 13.4733L59.4168 13.8935L59.6624 14.1369L60.013 14.3197L60.4192 14.2953L60.8405 14.2972L60.9678 14.1537L61.0636 13.7131L61.2767 13.415L61.7232 13.1572L62.0728 13.0955L62.1042 13.3925L61.981 13.6037L61.9488 13.9725L61.6528 14.2485L61.56 14.5122L61.6258 14.9295L61.8148 15.1355L62.0634 15.2021L62.4917 15.0949L63.0292 14.9947L63.3233 15.1401L63.5356 15.5078L63.4316 15.813L63.4782 16.1363L63.4419 16.4374L63.5632 16.6475L63.8351 16.8758L64.0726 16.9838L64.3545 16.9261L64.5191 16.726L64.8768 16.7997L65.4376 16.8611L65.772 16.7731L65.9033 16.6973L65.8456 16.4154L66.476 16.0515L66.6821 15.8625L66.8467 15.6623L67.1286 15.6047L67.4792 15.7874L67.9956 16.0146L68.4362 16.1105L68.8161 16.1012L69.3162 16.0576L69.8881 16.0777L70.1337 16.3211L70.4056 16.5493L70.7673 16.6907L71.2523 16.6208L71.7949 16.8328L72.3183 16.9509L72.4548 17.1872L72.6298 17.6116L72.6308 17.8561L72.6108 18.4279L72.5634 18.7705L72.4565 19.2525L72.3525 19.5576L72.6929 19.116L73.0839 19.0654L73.4335 19.0036L73.9528 19.054L74.5095 19.0477L74.9268 18.9819L75.2775 19.1647L75.7151 19.4373L75.8526 19.9182L75.5163 20.4276L75.1882 21.0723L74.8833 21.8787L74.7471 22.5527L74.6512 22.9932L74.2605 23.9542L73.8909 24.5879L73.4071 24.9022L72.9838 25.3217L72.6586 25.7896L72.4537 26.2231L72.1133 26.6648L71.679 27.1257L71.1589 27.7411L70.6417 28.1798L70.1608 28.3174L70.0498 28.7317L69.9236 29.1197L69.3447 29.2088L68.7628 29.4747L68.2678 29.8305L67.9356 30.4076L67.5153 30.6502L67.475 30.8836L67.1983 31.2535L66.8346 31.5335L66.7832 31.8083L67.0166 31.8487L66.8893 31.9922L66.4417 32.0055L66.1517 31.9278L66.0223 31.5823L66.3434 31.0467L66.6231 30.4999L66.6553 30.1311L66.6683 29.6684L66.9521 29.1894L67.2732 28.6538L67.2751 28.2324L67.4002 27.5999L67.5667 26.9784L67.7898 26.3944L67.9027 25.5587L67.8853 25.0435L67.5983 24.7889L66.6262 24.4396L66.0562 23.9983L66.0237 23.4567L65.6346 23.086L65.3838 22.5304L65.1493 22.2456L64.8431 21.8971L64.5712 21.6688L64.4044 21.3799L64.4185 21.1616L64.6397 20.9989L64.5376 20.8827L64.2173 20.7525L64.3971 20.5787L64.6627 20.2502L64.605 19.9683L64.7918 19.6854L64.7675 19.2792L64.7279 18.8468L64.9865 18.6274L65.4411 18.505L65.4704 18.313L65.4915 17.9857L65.4379 17.7715L65.2559 17.4563L65.0891 17.1674L64.8213 17.0068L64.7133 17.2443L64.5375 17.4858L64.1384 17.4011L63.8787 17.3759L63.5321 17.2608L63.2754 17.0588L63.2229 17.0892L62.9854 16.9811L62.8034 16.6659L62.475 16.4003L62.2556 16.1417L62.0374 16.1277L61.8606 16.1247L61.6464 16.1783L61.4008 15.9349L61.1522 15.8683L60.9107 15.6925L60.7287 15.3774L60.5589 15.2653L60.2538 15.1613L59.9981 15.2038L59.596 15.2959L59.2576 15.3162L58.7978 15.1264L58.4663 15.0376L58.1874 14.9184L57.7388 14.6872L57.3274 14.3994L57.1051 14.3176L56.9383 14.0287L56.9221 13.7579L56.9927 13.577L56.9502 13.3214L56.8137 13.085L56.5833 12.8679L56.368 12.677L56.1901 12.4295L56.0303 12.0315L55.8635 11.7425L55.5917 11.5143L55.3601 11.0526L55.1752 10.9142L55.2248 11.0607L55.3309 11.2446L55.3775 11.5679L55.5454 12.1013L55.7274 12.4165L55.7395 12.6196L56.0073 12.7802L56.1287 12.9903L55.8923 13.1268L55.67 13.045L55.4658 12.8127L55.3445 12.6025L55.2302 12.2833L55.0937 12.0469L54.9572 11.8105L55.0128 11.6034L54.8308 11.2882L54.6721 11.1347L54.6174 10.676L54.5264 10.5184L54.3818 10.1466L54.1181 10.0537L53.9594 9.9002L53.8754 9.63349L53.942 9.38491L53.8844 9.10303L53.8378 8.77972L53.9599 8.324L54.0113 8.04916L54.2244 7.75103L54.5112 7.09519L54.6455 6.84255L54.5848 6.73749L54.6888 6.43232L54.6988 6.14638L54.8472 5.67549L54.9208 5.31779L54.9086 5.11471L54.8964 4.91163L54.7448 4.64897L54.4285 4.58643ZM62.5971 3.26728L62.5353 2.91771L62.6842 2.83178L62.5727 2.86111L62.3322 2.9299L61.8806 2.87548L61.538 2.8281L61.2147 2.87468L60.8348 2.8839L60.5822 2.7496L60.3832 2.82948L60.2012 2.5143L60.4942 2.41519C60.6835 2.3993 61.0681 2.37803 61.0923 2.42005C61.1166 2.46207 61.4008 2.42871 61.5399 2.40677L61.9986 2.35206L61.8451 2.51074L61.7744 2.69162L61.9664 2.72086L62.4292 2.73385L62.9071 2.7731L62.7247 2.82111L62.8405 3.02168L63.3033 3.03467L63.6195 3.09721L63.7176 3.14568L63.5337 3.25183L63.9328 3.33657L63.8925 3.56998L63.5914 3.5337L63.2488 3.48633L62.8911 3.41268L62.5971 3.26728ZM62.0208 2.2692L62.1118 2.4268L62.4917 2.41758L63.0373 2.45277L63.5456 2.54455L64.0731 2.73029L64.7814 2.9867L65.2756 3.29673L65.7768 3.49764L66.2355 3.44293L66.574 3.42262L66.3284 3.17919L66.0081 3.04896L65.9171 2.89136L66.1686 2.78115L66.2212 2.75082L65.3774 2.50254L64.1992 2.34226L63.0888 2.17793L62.0208 2.2692ZM62.7557 12.7012L62.4708 12.9357L62.479 13.0711L62.7538 13.1225L63.0731 13.0083L63.2236 13.0264L63.1792 13.1921L63.3105 13.1163L63.554 12.8707L63.9379 12.9292L64.3371 13.0139L64.6544 13.321L64.6252 13.513L64.994 13.5452L65.4527 13.4905L66.0064 13.661L66.1884 13.9762L66.8158 13.7891L67.3422 13.7303L67.3108 13.4333L67.0278 13.2465L66.3468 13.2194L65.8729 13.2478L65.5374 13.0913L65.0747 13.0783L64.6785 12.8168L64.3844 12.6714L64.0116 12.5715L63.2547 12.4131L62.7557 12.7012ZM67.6574 13.5484L67.7938 13.7847L68.0343 13.716L68.1615 13.5724L67.92 13.3967L67.6574 13.5484ZM59.2018 5.33259L59.2595 5.61447L59.4556 5.7114L59.4434 5.50832L59.3898 5.29413L59.2018 5.33259ZM60.8875 6.25049L60.7754 6.42027L61.0088 6.46061L61.2311 6.54238L61.6524 6.54427L61.8474 6.39669L61.7261 6.18657L61.2219 6.16248L60.8875 6.25049ZM61.7212 6.78472L61.3161 7.05361L61.4041 7.38802L61.4577 7.6022L61.6486 7.38693L61.8122 6.94231L61.7212 6.78472ZM62.3112 6.65419L62.1799 6.73001L62.3234 6.85727L62.2265 7.05332L62.3548 7.15431L62.5912 7.01784L62.5679 6.85618L62.4244 6.72892L62.3112 6.65419ZM62.552 7.49576L62.559 7.38664L62.6792 7.35225L62.856 7.35522L63.0147 7.50875L62.7258 7.67555L62.5379 7.71401L62.552 7.49576Z" fill="#22C55E"/>
<ellipse cx="66.4708" cy="10.7949" rx="5.82306" ry="5.82306" fill="white"/>
<ellipse cx="55.583" cy="15.0106" rx="3.48777" ry="3.48777" fill="white"/>
<ellipse cx="55.6436" cy="15.5565" rx="1.72872" ry="1.72872" fill="#111827"/>
<ellipse cx="66.1372" cy="9.85475" rx="1.72872" ry="1.72872" fill="#111827"/>
<path d="M72.2636 18.1041C73.6768 22.238 70.5966 27.0807 65.47 28.2641C60.3434 29.4475 53.6419 27.1778 53.6419 22.2287C53.6419 19.5902 56.4625 21.4593 62.5888 20.0451C69.7766 18.3858 71.5482 16.0114 72.2636 18.1041Z" fill="#78350F"/>
<path d="M61.5273 33.1773C64.4585 33.1773 66.8347 30.8011 66.8347 27.8698V22.2287C66.8347 22.2287 56.4321 23.0476 56.2198 23.0476L56.2207 27.9682C56.2731 30.854 58.6289 33.1773 61.5273 33.1773Z" fill="#F87171"/>
<path d="M62.0429 29.0223C62.0429 29.3071 61.8121 29.5379 61.5273 29.5379C61.2426 29.5379 61.0117 29.3071 61.0117 29.0223C61.0117 29.0018 61.0117 24.8976 61.0117 24.3821C61.0117 24.1241 61.2631 23.9271 61.5273 23.9271C61.7915 23.9271 62.0429 24.1277 62.0429 24.3856C62.0429 24.5676 62.0429 29.0018 62.0429 29.0223Z" fill="#DC2626"/>
<path fill-rule="evenodd" clip-rule="evenodd" d="M71.4563 18.8659C66.7965 21.1927 61.5397 22.5017 55.9772 22.5017C55.5693 22.5017 55.1631 22.4947 54.7586 22.4807C56.6471 23.7577 58.9243 24.5034 61.3757 24.5034C65.6386 24.5034 69.3748 22.2483 71.4563 18.8659Z" fill="white"/>
</g>
</g>
<defs>
<clipPath id="clip0_1204_1097">
<rect width="202" height="36" fill="white"/>
</clipPath>
</defs>
</svg>
